<?xml version="1.0" encoding="UTF-8" ?>
<!DOCTYPE svg PUBLIC "-//W3C//DTD SVG 1.1//EN" "http://www.w3.org/Graphics/SVG/1.1/DTD/svg11.dtd">
<svg width="283pt" height="281pt" viewBox="0 0 283 281" version="1.1" xmlns="http://www.w3.org/2000/svg">
<path fill="#ffffff" d=" M 0.00 0.00 L 137.85 0.00 C 115.20 1.17 92.63 6.79 72.81 17.99 C 42.69 34.57 19.01 62.53 7.86 95.08 C 3.04 108.67 0.84 123.02 0.00 137.37 L 0.00 0.00 Z" />
<path fill="#000000" d=" M 137.85 0.00 L 146.08 0.00 C 171.82 1.35 197.41 8.75 219.02 23.00 C 256.91 47.28 282.21 90.64 283.00 135.82 L 283.00 146.27 C 282.22 177.44 269.96 208.00 249.72 231.63 C 224.51 261.35 186.50 280.10 147.45 281.00 L 134.87 281.00 C 101.58 279.84 69.03 265.92 44.79 243.14 C 24.75 224.52 10.32 199.91 4.02 173.28 C 1.71 163.94 0.76 154.34 0.00 144.77 L 0.00 137.37 C 0.84 123.02 3.04 108.67 7.86 95.08 C 19.01 62.53 42.69 34.57 72.81 17.99 C 92.63 6.79 115.20 1.17 137.85 0.00 Z" />
<path fill="#ffffff" d=" M 146.08 0.00 L 283.00 0.00 L 283.00 135.82 C 282.21 90.64 256.91 47.28 219.02 23.00 C 197.41 8.75 171.82 1.35 146.08 0.00 Z" />
<path fill="#da2027" d=" M 123.95 68.22 C 129.53 50.10 135.27 32.03 140.98 13.95 C 146.99 32.01 153.06 50.04 159.03 68.11 C 147.55 65.41 135.42 65.47 123.95 68.22 Z" />
<path fill="#fae80b" d=" M 123.95 68.22 C 135.42 65.47 147.55 65.41 159.03 68.11 C 178.14 72.57 195.11 85.08 205.30 101.81 C 211.65 112.20 215.34 124.14 216.11 136.28 C 217.23 154.94 211.13 173.95 199.15 188.34 C 191.29 197.94 180.95 205.45 169.46 210.12 C 152.43 217.00 132.85 217.23 115.66 210.76 C 104.14 206.45 93.77 199.19 85.68 189.92 C 73.02 175.57 66.37 156.20 67.36 137.10 C 67.92 125.15 71.45 113.38 77.44 103.03 C 87.46 85.82 104.58 72.92 123.95 68.22 Z" />
<path fill="#da2027" d=" M 131.47 73.82 C 145.18 71.84 159.52 73.85 171.90 80.18 C 186.99 87.70 199.04 101.08 204.93 116.88 C 210.13 130.61 210.68 146.03 206.46 160.10 C 202.17 174.66 192.79 187.64 180.34 196.32 C 168.94 204.35 154.99 208.69 141.04 208.49 C 125.32 208.39 109.73 202.51 97.86 192.21 C 83.32 179.86 74.44 161.10 74.26 142.01 C 73.89 127.20 78.65 112.34 87.50 100.46 C 97.91 86.27 114.05 76.45 131.47 73.82 Z" />
<path fill="#fae80b" d=" M 142.81 95.47 C 158.50 97.56 173.06 107.72 179.94 122.03 C 183.40 129.11 183.26 137.21 182.46 144.85 C 181.57 151.84 179.21 158.91 174.15 164.01 C 178.91 168.84 183.99 173.38 188.51 178.44 C 190.48 182.32 186.35 185.54 182.99 186.47 C 181.59 185.79 180.13 185.15 179.05 183.99 C 174.81 179.80 170.63 175.54 166.34 171.39 C 158.42 175.91 148.79 177.42 139.93 175.15 C 131.99 173.12 124.00 169.18 119.38 162.14 C 118.65 162.84 117.91 163.55 117.18 164.25 C 118.73 165.83 122.28 168.39 119.31 170.47 C 117.05 171.67 115.40 169.05 113.92 167.80 C 111.03 172.20 107.93 176.53 104.11 180.18 C 101.75 182.47 97.28 182.36 95.34 179.58 C 93.71 177.37 94.21 174.03 96.17 172.18 C 99.89 168.42 104.24 165.34 108.78 162.65 C 107.37 161.09 104.10 158.71 106.81 156.76 C 108.91 155.00 110.80 158.22 112.21 159.44 C 114.34 157.43 116.46 155.41 118.55 153.36 C 119.92 153.34 121.30 153.33 122.68 153.32 C 129.80 163.72 145.06 167.79 155.99 161.08 C 145.60 150.72 135.15 140.42 124.76 130.06 C 121.57 133.15 118.48 136.35 115.31 139.47 C 111.20 135.37 107.05 131.32 102.99 127.18 C 109.73 120.67 116.46 114.14 123.16 107.59 C 130.10 108.72 137.00 110.00 143.96 110.99 C 140.18 114.91 136.23 118.66 132.38 122.51 C 143.07 133.17 153.71 143.88 164.42 154.52 C 170.23 146.55 171.11 135.80 169.39 126.36 C 165.49 112.69 153.05 104.27 142.81 95.47 Z" />
<path fill="#da2027" d=" M 205.30 101.81 C 224.56 101.70 243.81 101.45 263.07 101.38 C 247.45 113.06 231.77 124.66 216.11 136.28 C 215.34 124.14 211.65 112.20 205.30 101.81 Z" />
<path fill="#da2027" d=" M 20.30 103.50 C 39.34 103.26 58.40 103.22 77.44 103.03 C 71.45 113.38 67.92 125.15 67.36 137.10 C 51.64 125.95 36.01 114.66 20.30 103.50 Z" />
<path fill="#ffffff" d=" M 0.00 144.77 C 0.76 154.34 1.71 163.94 4.02 173.28 C 10.32 199.91 24.75 224.52 44.79 243.14 C 69.03 265.92 101.58 279.84 134.87 281.00 L 0.00 281.00 L 0.00 144.77 Z" />
<path fill="#ffffff" d=" M 249.72 231.63 C 269.96 208.00 282.22 177.44 283.00 146.27 L 283.00 281.00 L 147.45 281.00 C 186.50 280.10 224.51 261.35 249.72 231.63 Z" />
<path fill="#da2027" d=" M 169.46 210.12 C 180.95 205.45 191.29 197.94 199.15 188.34 C 205.51 207.16 211.68 226.05 218.09 244.86 C 201.80 233.39 185.64 221.75 169.46 210.12 Z" />
<path fill="#da2027" d=" M 85.68 189.92 C 93.77 199.19 104.14 206.45 115.66 210.76 C 99.85 222.63 83.94 234.37 68.05 246.14 C 73.80 227.36 79.75 208.64 85.68 189.92 Z" />
</svg>
