<?xml version="1.0" standalone="no"?>
<!DOCTYPE svg PUBLIC "-//W3C//DTD SVG 20010904//EN"
 "http://www.w3.org/TR/2001/REC-SVG-20010904/DTD/svg10.dtd">
<svg version="1.0" xmlns="http://www.w3.org/2000/svg"
 width="1024.000000pt" height="1024.000000pt" viewBox="0 0 1024.000000 1024.000000"
 preserveAspectRatio="xMidYMid meet">
<metadata>
Created by potrace 1.13, written by Peter Selinger 2001-2015
</metadata>
<g transform="translate(0.000000,1024.000000) scale(0.100000,-0.100000)"
fill="#000000" stroke="none">
<path d="M4595 10213 c-186 -18 -502 -74 -727 -130 l-108 -27 0 -30 c0 -17 5
-69 10 -116 9 -83 44 -428 215 -2120 46 -465 89 -892 95 -949 6 -57 9 -110 6
-117 -4 -10 -25 -14 -68 -14 -35 0 -103 -7 -153 -15 -49 -8 -93 -11 -96 -7 -4
4 -30 88 -59 187 -28 99 -133 457 -232 795 -240 819 -498 1698 -555 1892 l-45
157 -97 -48 c-185 -93 -615 -357 -636 -391 -5 -9 126 -269 600 -1185 75 -145
168 -326 320 -620 48 -93 111 -215 140 -270 154 -294 305 -593 305 -602 0 -6
-19 -18 -43 -27 -24 -9 -83 -39 -131 -67 -48 -27 -92 -49 -96 -47 -5 2 -79 93
-166 203 -87 110 -230 292 -319 405 -89 113 -413 525 -720 915 -307 391 -560
712 -562 714 -23 28 -578 -647 -558 -679 6 -9 227 -200 1525 -1314 256 -219
482 -414 503 -432 l37 -34 -70 -81 c-39 -45 -91 -113 -116 -150 -25 -38 -50
-69 -55 -69 -5 0 -60 29 -122 64 -62 35 -465 263 -897 506 -432 243 -834 470
-895 505 -60 34 -168 95 -238 135 -71 40 -132 69 -136 64 -43 -48 -297 -771
-278 -790 2 -3 76 -28 163 -55 88 -28 249 -79 359 -114 110 -35 350 -111 533
-169 182 -58 482 -154 665 -212 182 -58 418 -133 522 -166 105 -33 191 -61
193 -63 1 -1 -8 -40 -22 -86 -13 -46 -30 -120 -37 -164 -7 -44 -16 -84 -19
-88 -4 -4 -115 3 -246 17 -341 37 -487 52 -759 81 -132 14 -301 32 -375 40
-603 65 -1122 117 -1125 113 -23 -23 -29 -657 -9 -825 6 -48 9 -53 32 -53 14
0 453 45 976 100 1154 122 1205 127 1331 140 55 5 117 12 137 16 42 6 37 15
58 -106 6 -36 22 -103 35 -150 13 -46 22 -86 21 -88 -3 -2 -504 -163 -991
-317 -110 -35 -258 -82 -330 -105 -71 -23 -220 -70 -330 -105 -624 -198 -780
-248 -784 -251 -2 -2 20 -81 48 -175 54 -180 139 -412 197 -537 19 -41 34 -78
34 -82 0 -5 28 7 63 27 34 19 116 66 182 103 66 37 242 136 390 220 149 84
466 263 705 398 239 135 550 310 689 389 140 78 258 143 261 143 3 0 34 -40
68 -89 34 -49 87 -116 117 -149 30 -33 55 -63 55 -67 0 -9 12 2 -340 -301
-173 -148 -450 -386 -615 -528 -165 -142 -483 -416 -707 -608 l-407 -350 67
-91 c157 -216 462 -572 489 -572 6 0 38 34 70 75 33 41 142 181 244 310 102
129 354 449 559 710 206 261 462 587 569 724 108 136 224 285 259 330 35 44
68 82 73 84 5 2 21 -5 37 -16 15 -11 74 -43 130 -71 56 -29 102 -55 102 -60 0
-4 -50 -104 -111 -222 -241 -466 -293 -566 -454 -879 -186 -361 -294 -571
-395 -765 -37 -71 -111 -215 -165 -320 -54 -104 -131 -254 -172 -332 -41 -79
-71 -148 -67 -154 10 -17 301 -206 424 -276 134 -77 301 -165 305 -161 4 3 33
102 300 1013 108 369 268 913 355 1210 87 297 175 599 196 670 20 72 40 134
44 138 4 4 29 3 55 -3 27 -6 96 -15 154 -21 58 -5 107 -12 109 -14 5 -4 4 -11
-72 -765 -56 -551 -114 -1123 -206 -2033 -27 -273 -50 -505 -50 -515 0 -15 20
-23 108 -45 261 -65 574 -118 800 -135 88 -7 102 -6 102 8 0 8 -7 78 -15 155
-8 77 -46 455 -85 840 -39 385 -95 943 -125 1240 -113 1121 -125 1240 -125
1260 0 19 13 25 103 50 56 15 111 29 122 32 18 4 27 -19 97 -259 43 -145 160
-546 262 -893 102 -346 252 -859 334 -1140 82 -280 200 -683 262 -895 l113
-386 96 13 c259 35 602 111 846 188 66 21 122 39 124 41 4 3 -66 143 -184 369
-29 55 -96 186 -150 290 -113 219 -227 440 -330 640 -40 77 -112 217 -160 310
-86 166 -163 316 -310 600 -40 77 -116 226 -170 330 -54 105 -119 231 -145
280 -26 50 -103 198 -170 330 -67 132 -136 263 -152 292 l-29 52 58 42 c32 23
82 62 111 86 28 25 56 43 61 41 5 -2 87 -102 182 -223 95 -121 259 -330 365
-465 106 -135 286 -364 401 -510 115 -146 366 -465 559 -710 193 -245 444
-564 559 -710 115 -146 267 -340 339 -432 l131 -167 25 16 c14 9 62 40 108 68
104 64 426 295 452 324 3 4 43 38 90 78 47 39 114 98 149 130 l64 58 -344 295
c-189 162 -679 583 -1089 935 -410 352 -980 842 -1268 1088 -287 247 -522 451
-522 454 0 3 20 36 43 72 24 36 49 76 56 89 6 12 17 22 23 22 6 0 158 -83 337
-184 606 -342 1274 -718 1776 -1001 275 -155 610 -344 745 -420 135 -76 290
-164 345 -195 55 -31 209 -118 342 -193 134 -75 247 -137 252 -137 6 0 34 37
65 82 167 253 330 559 455 858 l69 165 -67 22 c-36 12 -158 51 -271 86 -113
36 -263 84 -335 107 -71 23 -220 70 -330 105 -197 62 -551 175 -1200 382 -181
57 -420 133 -530 168 -110 35 -351 111 -535 170 -184 59 -480 153 -657 209
-178 56 -325 105 -328 108 -4 3 1 32 9 64 8 33 19 93 26 134 6 41 12 76 14 77
3 3 361 -33 1531 -157 677 -72 1796 -189 1950 -205 83 -8 254 -27 380 -40 425
-46 618 -65 622 -62 7 8 23 173 34 362 15 251 3 641 -26 853 l-6 43 -47 -6
c-26 -3 -238 -26 -472 -50 -234 -24 -490 -51 -570 -60 -137 -14 -317 -33 -665
-70 -940 -98 -1787 -187 -1900 -200 -241 -26 -804 -85 -819 -85 -10 0 -17 16
-21 48 -4 26 -16 87 -26 136 -10 49 -18 91 -16 92 2 2 124 42 272 89 149 47
317 101 375 120 58 18 391 124 740 235 1389 442 2392 761 2741 872 l127 40
-49 120 c-102 248 -184 416 -317 648 -71 124 -212 340 -222 340 -7 0 -190
-102 -1205 -675 -336 -189 -1114 -628 -1255 -708 -58 -33 -175 -98 -260 -146
-194 -109 -840 -474 -979 -553 -57 -32 -104 -57 -105 -56 -1 2 -28 45 -60 96
-32 51 -57 94 -55 96 2 1 85 72 184 157 99 85 311 267 470 404 160 137 369
317 465 400 96 83 353 303 570 490 217 187 476 409 575 494 181 156 350 302
743 640 l213 183 -23 25 c-44 48 -276 241 -429 358 -107 82 -412 285 -428 285
-10 0 -30 -25 -856 -1075 -307 -390 -812 -1032 -1123 -1426 l-564 -717 -86 70
c-48 38 -99 77 -114 86 l-28 16 137 266 c74 146 150 292 168 325 18 33 85 164
150 290 65 127 255 496 422 820 168 325 350 678 405 785 56 107 126 245 158
305 32 61 104 200 160 310 57 110 125 241 151 292 27 50 49 95 49 101 0 12
-261 91 -450 136 -230 56 -601 119 -614 105 -5 -4 -23 -68 -325 -1094 -104
-357 -253 -864 -330 -1125 -76 -261 -196 -671 -266 -910 -70 -239 -129 -438
-131 -441 -2 -4 -38 4 -79 17 -41 13 -93 27 -116 30 -22 4 -43 12 -45 19 -5
11 17 231 136 1410 22 220 68 668 101 995 33 327 71 703 84 835 14 132 25 250
25 263 0 21 -4 22 -67 20 -38 -1 -86 -3 -108 -5z"/>
</g>
</svg>
