<?xml version="1.0" encoding="UTF-8" standalone="no"?>
<svg
   xmlns:dc="http://purl.org/dc/elements/1.1/"
   xmlns:cc="http://creativecommons.org/ns#"
   xmlns:rdf="http://www.w3.org/1999/02/22-rdf-syntax-ns#"
   xmlns:svg="http://www.w3.org/2000/svg"
   xmlns="http://www.w3.org/2000/svg"
   viewBox="0 0 81.915718 88.310783"
   height="88.310783"
   width="81.915718"
   version="1.1"
   id="svg3364">
  <title
     id="title3350">airfield</title>
  <metadata
     id="metadata3370">
    <rdf:RDF>
      <cc:Work
         rdf:about="">
        <dc:format>image/svg+xml</dc:format>
        <dc:type
           rdf:resource="http://purl.org/dc/dcmitype/StillImage" />
        <dc:title>airfield</dc:title>
      </cc:Work>
    </rdf:RDF>
  </metadata>
  <defs
     id="defs3368" />
  <g
     id="g3374">
    <path
       id="path3376"
       d="m 54.75,100.47249 c -0.44095,-0.99505 -1.36532,-3.09713 -1.9818,-4.50674 -0.11612,-0.2655 -0.29819,-0.56513 -0.4046,-0.66583 -0.1064,-0.10071 -2.5441,-0.17736 -5.41709,-0.17036 -2.87301,0.007 -5.41953,0.008 -5.65894,0.002 -0.53264,-0.013 -0.55558,-0.45608 -0.1123,-2.1685 0.5669,-2.18992 3.34345,-4.79232 8.19327,-7.67936 1.68192,-1.00123 2.29264,-1.47853 2.23221,-1.74454 -0.0458,-0.2014 -0.13442,-1.28944 -0.19703,-2.41786 -0.0626,-1.12841 -0.28849,-4.87571 -0.50198,-8.32733 -0.38153,-6.16863 -0.543,-8.8458 -0.95359,-15.80986 -0.1135,-1.92494 -0.29117,-4.57043 -0.39483,-5.87885 -0.10365,-1.30852 -0.18846,-3.01718 -0.18846,-3.79711 0,-1.27656 -0.0435,-1.42922 -0.43531,-1.52981 -0.23942,-0.0614 -2.13299,-0.22949 -4.20792,-0.37337 -2.07494,-0.14389 -5.1656,-0.36675 -6.86811,-0.49525 -1.70251,-0.1285 -5.272,-0.39603 -7.93218,-0.59451 -11.49604,-0.85775 -11.57491,-0.86622 -12.69053,-1.36269 -1.40158,-0.62374 -2.41287,-1.85128 -2.77357,-3.36664 -0.57806,-2.42852 0.51128,-4.14835 3.45028,-5.44723 0.81887,-0.36189 3.88763,-0.85932 13.17462,-2.13556 1.48971,-0.20471 3.36151,-0.47628 4.15956,-0.60347 0.79806,-0.1272 2.40868,-0.35078 3.57916,-0.49685 1.17048,-0.14608 3.08581,-0.41136 4.25629,-0.58949 1.17048,-0.17814 3.10839,-0.46058 4.30644,-0.62764 l 2.17831,-0.30375 0.18275,-0.86229 c 0.37346,-1.76215 1.94182,-10.1559 1.94182,-10.39247 0,-0.15069 -0.78393,-0.24538 -2.03141,-0.24538 l -2.03141,0 0,-0.60343 c 0,-0.33189 0.10881,-0.60912 0.24183,-0.61608 0.13301,-0.007 1.34591,-0.002 2.69533,0.0117 l 2.45352,0.0243 0.64197,-0.90311 c 0.35309,-0.49671 0.90316,-1.26377 1.22239,-1.70459 l 0.5804,-0.80148 0.98028,1.63257 0.98028,1.63258 2.6956,0.0392 2.69562,0.0392 0.0612,0.62456 0.0613,0.62458 -2.04427,0 c -1.25619,0 -2.04426,0.0946 -2.04426,0.24538 0,0.23657 1.56836,8.63032 1.94181,10.39247 l 0.18276,0.86228 2.1783,0.30369 c 1.19806,0.16703 3.1795,0.4501 4.40318,0.62905 1.22369,0.17894 3.13902,0.44503 4.2563,0.59129 1.11727,0.14628 2.68436,0.36924 3.48242,0.49547 0.79805,0.12622 2.66985,0.39679 4.15956,0.60125 9.6446,1.32377 12.31715,1.75707 13.17462,2.13602 2.93827,1.29855 4.02832,3.01881 3.45066,5.44567 -0.32554,1.36762 -1.12575,2.4364 -2.3858,3.1865 -0.98394,0.58575 -2.76739,0.79697 -12.88521,1.52604 -2.9794,0.21469 -6.72301,0.49233 -8.31911,0.61698 -1.59612,0.12465 -4.59971,0.34514 -6.67465,0.48999 -5.01324,0.34994 -4.64323,0.20669 -4.64323,1.79754 0,0.72121 -0.12534,3.13588 -0.27854,5.36593 -0.1532,2.23005 -0.37304,5.6839 -0.48852,7.67522 -0.20518,3.53775 -0.30281,5.10783 -0.87055,13.99957 -0.15258,2.38959 -0.33574,5.55076 -0.40702,7.02483 l -0.12962,2.68013 2.19957,1.32162 c 2.81146,1.68928 5.47799,3.75182 6.80142,5.26085 0.78022,0.88964 1.12049,1.49722 1.36285,2.43344 0.60982,2.35575 1.09973,2.1573 -5.33594,2.1615 -3.1124,0.002 -5.74599,0.0836 -5.85239,0.18104 -0.20908,0.19163 -0.24367,0.26453 -1.47303,3.10343 -0.45284,1.04574 -0.96322,2.19149 -1.13416,2.54612 l -0.3108,0.64479 -0.49965,-1.12753 z"
       style="fill:#000000" />
  </g>
</svg>
