<?xml version="1.0" encoding="UTF-8" standalone="no"?>
<svg
   xmlns:dc="http://purl.org/dc/elements/1.1/"
   xmlns:cc="http://creativecommons.org/ns#"
   xmlns:rdf="http://www.w3.org/1999/02/22-rdf-syntax-ns#"
   xmlns:svg="http://www.w3.org/2000/svg"
   xmlns="http://www.w3.org/2000/svg"
   viewBox="0 0 54 54"
   height="54"
   width="54"
   version="1.1"
   id="svg3359">
  <title
     id="title3387">artillery</title>
  <metadata
     id="metadata3365">
    <rdf:RDF>
      <cc:Work
         rdf:about="">
        <dc:format>image/svg+xml</dc:format>
        <dc:type
           rdf:resource="http://purl.org/dc/dcmitype/StillImage" />
        <dc:title>artillery</dc:title>
      </cc:Work>
    </rdf:RDF>
  </metadata>
  <defs
     id="defs3363" />
  <g
     id="g3369">
    <path
       id="path3381"
       d="M 16.542162,38.264497 C 16.502473,38.226094 15.8625,38.143868 15.12,38.081774 13.14004,37.916195 12.410475,37.781033 12.522067,37.600475 12.576615,37.512214 12.418746,37.44 12.171246,37.44 c -0.571273,0 -0.732222,-0.25331 -0.3829,-0.602631 0.293596,-0.293596 0.352487,-0.490133 0.136654,-0.456053 -0.403976,0.06379 -0.612426,-0.05022 -0.522119,-0.285551 0.05577,-0.14533 0.02336,-0.312463 -0.07201,-0.37141 -0.09537,-0.05894 -0.222004,0.01946 -0.281396,0.174237 C 10.917527,36.242433 10.44,36.27358 10.44,35.938345 c 0,-0.132911 -0.301539,-0.396161 -0.6700869,-0.585 -0.3685477,-0.18884 -0.8342977,-0.494293 -1.035,-0.678784 L 8.37,34.339122 8.775,34.461691 c 0.328925,0.09955 0.405,0.05267 0.405,-0.249561 0,-0.406337 0.1826894,-0.477441 0.4751854,-0.184944 C 9.9470965,34.319097 10.670388,33.650383 10.44172,33.3 10.298843,33.081071 10.264991,33.106608 10.262756,33.435 10.259632,33.894151 9.9662112,33.946897 9.4769752,33.576251 9.1163767,33.303062 9.2158204,32.94 9.6512461,32.94 c 0.1485,0 0.2199393,0.081 0.1587539,0.18 -0.1534142,0.248229 0.1510256,0.226975 0.406371,-0.02837 0.157829,-0.157827 0.276037,-0.152213 0.487335,0.02315 0.250369,0.207789 0.252611,0.180726 0.02187,-0.264024 C 10.464639,32.347791 10.516734,31.86 10.831388,31.86 c 0.09508,0 0.122719,0.18225 0.06142,0.405 -0.102716,0.373261 -0.09153,0.380313 0.142714,0.09 0.292946,-0.363065 0.855565,-0.411912 1.166226,-0.10125 0.165,0.165001 0.239921,0.0829 0.3285,-0.36 0.108056,-0.540283 0.240648,-0.649319 0.720738,-0.5927 0.110543,0.01303 0.302711,-0.09887 0.42704,-0.248674 C 13.802357,30.902569 14.015662,30.78 14.15204,30.78 c 0.477454,0 0.239752,-0.321813 -0.732099,-0.991152 C 12.78333,29.350397 12.331933,29.155279 12.131842,29.232061 11.62158,29.427867 10.100057,28.820468 9.7676674,28.288271 9.6033771,28.025222 9.4513104,27.783119 9.4297417,27.750263 9.408173,27.717408 8.0058789,27.874391 6.3135324,28.099116 L 3.2365388,28.507707 2.7556209,28.148648 C 2.0828552,27.646357 1.5665812,26.564263 1.546778,25.614952 1.5325495,24.932882 1.6142984,24.735326 2.0847364,24.314908 2.6878309,23.775939 2.9065898,23.729618 8.1,23.041179 12.271745,22.488172 12.255452,22.491508 12.369355,22.167061 12.522203,21.731684 13.167001,21.06 13.432103,21.06 c 0.126142,0 0.456272,-0.210956 0.733623,-0.468792 0.277351,-0.257836 0.879345,-0.659297 1.337766,-0.892134 0.675528,-0.343109 0.854791,-0.536875 0.945878,-1.022409 C 16.649678,17.608929 17.01208,17.28 17.988167,17.28 c 0.551745,0 0.949356,0.09832 1.091833,0.27 0.153441,0.184885 0.563198,0.27 1.299821,0.27 0.980347,0 1.123938,0.05159 1.619223,0.581798 0.298915,0.319988 0.603941,0.745238 0.677838,0.945 0.0858,0.231937 0.322067,0.378488 0.653737,0.405498 0.28566,0.02326 0.843381,0.07082 1.239381,0.105691 1.356982,0.119477 3.316018,1.475998 3.335724,2.3098 0.0039,0.163787 0.0862,0.136051 0.254263,-0.08567 0.349367,-0.460899 1.837722,-0.888124 2.276305,-0.653402 0.243939,0.130552 0.634613,0.09785 1.377128,-0.115275 1.357453,-0.389632 1.383291,-0.410332 1.017171,-0.814891 -0.298215,-0.329524 -0.29337,-0.38135 0.103534,-1.10713 1.063267,-1.944299 1.090987,-1.974474 1.695911,-1.846116 0.30798,0.06535 0.927994,0.133639 1.377808,0.151755 0.449815,0.01812 1.034216,0.174688 1.298668,0.347938 0.599175,0.392537 1.017648,0.395129 2.227365,0.01381 0.864164,-0.272403 1.011955,-0.274968 1.54582,-0.02683 2.964777,1.37801 2.924253,1.33756 3.134803,3.129007 0.06329,0.538464 0.184914,0.979025 0.270282,0.979025 0.08537,0 0.155218,0.131418 0.155218,0.292039 0,0.239184 -0.04887,0.251484 -0.27,0.06796 -0.400617,-0.332481 -0.327611,0.07207 0.07949,0.440489 0.409107,0.370238 0.715899,0.39596 2.536372,0.212654 1.217204,-0.122562 1.404188,-0.09851 1.828392,0.235166 0.259889,0.20443 0.653907,0.371691 0.875597,0.371691 0.221688,0 0.736711,0.273395 1.144496,0.607543 0.62905,0.515459 0.77832,0.77384 0.98483,1.704701 0.133874,0.603436 0.194688,1.224108 0.135148,1.37927 -0.05954,0.155162 -0.0084,0.320425 0.113708,0.36725 0.142308,0.05458 0.216716,0.450294 0.207338,1.102637 l -0.01463,1.017501 -0.795373,0.235405 c -0.488979,0.144722 -0.818455,0.16814 -0.855292,0.06079 -0.03333,-0.09712 -0.230844,-0.05489 -0.445051,0.09514 -0.496003,0.347415 -0.905706,0.340708 -1.615706,-0.02645 -0.315039,-0.162913 -0.783385,-0.290218 -1.040769,-0.282901 -0.594093,0.0169 -1.935693,0.699165 -2.463555,1.252845 -0.303442,0.318285 -0.405,0.35478 -0.405,0.145536 0,-0.391434 -0.668797,-0.351279 -0.885242,0.05315 -0.193516,0.36159 0.0498,0.747576 0.471242,0.747576 0.1287,0 0.230004,0.18225 0.22512,0.405 -0.0065,0.295744 -0.224996,0.51234 -0.81,0.802897 -0.531687,0.264077 -0.803046,0.324614 -0.806844,0.18 -0.0035,-0.134991 -0.08916,-0.108745 -0.225,0.06898 -0.120602,0.157782 -0.523026,0.343704 -0.894276,0.413155 -0.37125,0.06945 -0.675,0.203607 -0.675,0.29812 0,0.09451 -0.111582,0.171844 -0.247961,0.171844 -0.348223,0 -0.790065,0.537574 -0.449078,0.546379 0.135871,0.0035 0.04862,0.116261 -0.193893,0.250562 -0.454912,0.251928 -0.983554,0.189202 -0.807411,-0.0958 0.127677,-0.206588 0.07218,-0.203013 -0.625823,0.04031 -0.382797,0.133443 -0.544752,0.2878 -0.479736,0.45723 0.05493,0.143131 3.6e-4,0.239681 -0.123973,0.219226 -0.342135,-0.0563 -1.711784,0.317862 -2.742125,0.749095 -0.198,0.08287 -0.6435,0.18866 -0.99,0.235087 -0.3465,0.04643 -0.954,0.179997 -1.35,0.296824 -0.72762,0.214657 -1.835394,0.379658 -4.95,0.737289 -1.631709,0.187358 -11.387047,0.414203 -11.537838,0.268293 z M 10.44,34.92 c 0,-0.099 -0.03572,-0.18 -0.07938,-0.18 -0.04366,0 -0.129438,0.081 -0.190623,0.18 -0.06119,0.099 -0.02547,0.18 0.07938,0.18 C 10.35422,35.1 10.44,35.019 10.44,34.92 Z m 33.264,-1.836 c 0.339766,-0.339766 0.25247,-0.536184 -0.144,-0.324 -0.198,0.105966 -0.36,0.270815 -0.36,0.366332 0,0.238391 0.243751,0.217917 0.504,-0.04233 z M 11.7,32.659376 c 0,-0.154342 -0.081,-0.230562 -0.18,-0.169376 -0.099,0.06119 -0.18,0.187466 -0.18,0.280624 0,0.09316 0.081,0.169376 0.18,0.169376 0.099,0 0.18,-0.126281 0.18,-0.280624 z M 33.93,25.92 c 0.06119,-0.099 0.02547,-0.18 -0.07938,-0.18 -0.104843,0 -0.190624,0.081 -0.190624,0.18 0,0.099 0.03572,0.18 0.07938,0.18 0.04366,0 0.129438,-0.081 0.190624,-0.18 z m 1.049722,-0.542756 c 0.55073,-0.002 0.678467,-0.04917 0.480278,-0.177244 -0.236068,-0.152559 -0.233876,-0.174834 0.01746,-0.177244 0.347411,-0.0033 1.062542,-0.594843 1.062542,-0.87887 0,-0.112136 0.0945,-0.203886 0.21,-0.203886 0.115499,0 0.15315,-0.05685 0.08367,-0.126331 -0.06948,-0.06948 -0.325161,0.08809 -0.568174,0.350174 -0.268848,0.28994 -0.865407,0.595353 -1.523667,0.780051 -0.595005,0.16695 -1.081827,0.382538 -1.081827,0.479083 0,0.09655 0.128124,0.126372 0.284722,0.06628 0.156596,-0.06009 0.622346,-0.110498 1.035,-0.112014 z M 10.89,36.72 c 0.06119,-0.099 0.146966,-0.18 0.190623,-0.18 0.04366,0 0.07938,0.081 0.07938,0.18 0,0.099 -0.08578,0.18 -0.190623,0.18 -0.104843,0 -0.140562,-0.081 -0.07938,-0.18 z M 8.4633779,33.21407 c -0.3484293,-0.419832 -0.125048,-0.70686 0.2379513,-0.30575 0.1804686,0.199415 0.2467793,0.402505 0.1507918,0.461828 -0.094232,0.05824 -0.2691662,-0.01201 -0.3887431,-0.156078 z M 44.64,32.4 c 0,-0.099 0.081,-0.18 0.18,-0.18 0.099,0 0.18,0.081 0.18,0.18 0,0.099 -0.081,0.18 -0.18,0.18 -0.099,0 -0.18,-0.081 -0.18,-0.18 z M 12.18,31.919999 c -0.066,-0.066 -0.12,-0.203698 -0.12,-0.306 0,-0.112788 0.08384,-0.10216 0.213,0.027 0.11715,0.117152 0.17115,0.254852 0.12,0.306 -0.05115,0.05115 -0.147,0.039 -0.213,-0.027 z"
       style="fill:#cbc7b6" />
    <path
       id="path3379"
       d="m 18.36,37.724908 c 0,-0.178017 -0.08341,-0.254605 -0.199283,-0.18299 -0.130124,0.08042 -0.162164,0.006 -0.09232,-0.214377 0.05883,-0.185648 -0.0058,-0.554815 -0.143729,-0.820373 -0.218927,-0.421655 -0.216725,-0.469798 0.01738,-0.379962 0.147441,0.05658 0.337163,0.273854 0.421603,0.482832 0.147873,0.365963 0.15417,0.3667 0.170926,0.01996 0.0096,-0.198 0.169907,-0.54283 0.356304,-0.766287 0.289687,-0.347283 0.412992,-0.379807 0.849014,-0.223951 0.460049,0.164445 0.477736,0.157142 0.180239,-0.07442 -0.315477,-0.245565 -0.311553,-0.266562 0.09,-0.481466 C 20.241062,34.960284 20.45025,34.872854 20.475,34.889584 20.694611,35.038022 20.649206,34.806092 20.34,34.2 19.903697,33.344773 19.726092,33.273733 19.89,34.02 20.021049,34.61666 19.720691,34.784483 19.567845,34.2 19.460016,33.787661 19.08,33.709279 19.08,34.099376 c 0,0.142658 -0.09151,0.315933 -0.203351,0.385056 -0.121221,0.07492 -0.171202,0.02923 -0.12375,-0.113126 0.04378,-0.131344 -0.04696,-0.379813 -0.201649,-0.552154 -0.916966,-1.021617 -0.921301,-1.140152 -0.03237,-0.885211 0.435937,0.125026 0.564782,0.112774 0.505577,-0.04808 -0.0437,-0.118724 -0.180717,-0.192234 -0.304483,-0.163353 -0.123766,0.02888 -0.381836,-0.0894 -0.573489,-0.262844 -0.301039,-0.272435 -0.373325,-0.279581 -0.531175,-0.05251 -0.138598,0.19938 -0.204757,0.208517 -0.274011,0.03784 -0.05021,-0.12375 -0.321607,-0.225 -0.603098,-0.225 -0.336071,0 -0.540066,-0.108158 -0.594119,-0.315 -0.0784,-0.300001 -0.08331,-0.300001 -0.103199,0 -0.01148,0.17325 -0.08838,0.315 -0.17088,0.315 -0.286342,0 -0.366229,-0.219087 -0.220066,-0.603526 C 15.796519,31.230927 15.522371,30.78 15.141385,30.78 c -0.0956,0 -0.534368,-0.27522 -0.975049,-0.611599 C 13.050502,29.316665 12.714533,29.16 12.003816,29.16 11.090963,29.16 10.096108,28.678356 9.7521637,28.069895 9.5101645,27.641783 9.3603996,27.554011 9,27.62908 8.7525,27.680632 7.3893334,27.88294 5.9707409,28.078654 3.6800165,28.39469 3.3347309,28.40515 2.8841751,28.172158 1.8741402,27.64985 1.2617635,25.431556 1.8828311,24.544858 2.2980672,23.952026 2.8932293,23.804249 7.2,23.224628 c 5.562408,-0.748609 5.109569,-0.64116 5.346396,-1.268586 0.13009,-0.344648 0.424549,-0.634194 0.807811,-0.794331 0.331706,-0.138595 0.743248,-0.406852 0.914538,-0.596126 0.171291,-0.189274 0.708742,-0.530221 1.194337,-0.757661 0.777117,-0.363982 0.909799,-0.509598 1.107399,-1.215359 0.123474,-0.441007 0.339414,-0.916746 0.479866,-1.057198 0.376444,-0.376444 1.541038,-0.318347 2.077506,0.103639 0.364651,0.286835 0.618014,0.336855 1.260311,0.248819 0.744817,-0.102089 0.858593,-0.06078 1.547873,0.561939 0.409179,0.36967 0.743963,0.81648 0.743963,0.992913 0,0.26631 0.22162,0.342779 1.305,0.450289 1.832405,0.181844 3.357371,1.006386 3.752219,2.028811 l 0.159024,0.411779 0.546398,-0.403971 C 28.873476,21.611056 29.245052,21.522011 30.19952,21.508573 31.585171,21.489062 33.12,21.090771 33.12,20.750702 33.12,20.623817 33.039,20.52 32.94,20.52 c -0.337984,0 -0.180608,-0.724374 0.368923,-1.698093 0.776737,-1.376303 0.947476,-1.487524 1.718857,-1.119678 0.474887,0.226457 0.718204,0.253717 0.985896,0.110452 0.280631,-0.150189 0.534536,-0.09271 1.206832,0.273199 0.829544,0.451494 0.874535,0.456395 1.75046,0.19071 1.124905,-0.341205 1.878095,-0.341485 2.328435,-9e-4 0.192172,0.145352 0.480064,0.264276 0.63976,0.264276 0.159696,0 0.65749,0.232828 1.106208,0.517397 0.748674,0.474797 0.833486,0.604482 1.030016,1.575 0.199247,0.983936 0.188859,1.078335 -0.14913,1.355256 -0.358931,0.294077 -0.355669,0.30435 0.271487,0.855 0.689898,0.605738 0.820454,0.62435 2.690557,0.383537 1.141097,-0.146938 1.317137,-0.125431 1.89,0.23089 0.347434,0.216106 0.712699,0.403826 0.811699,0.417157 0.099,0.01334 0.3015,0.03687 0.45,0.05232 0.1485,0.01544 0.541782,0.260559 0.873961,0.544702 0.483894,0.413917 0.651948,0.743463 0.845343,1.657684 0.233507,1.103831 0.228483,1.151045 -0.153961,1.44701 -0.217438,0.168271 -0.592841,0.35589 -0.834224,0.416932 -0.241386,0.06104 -0.551142,0.247367 -0.688349,0.414054 -0.137207,0.166685 -0.194166,0.195323 -0.126578,0.06364 0.09766,-0.190271 -0.06907,-0.218054 -0.812061,-0.135322 -0.514222,0.05726 -1.061019,0.174659 -1.215106,0.26089 -0.154086,0.08623 -0.439875,0.115018 -0.635085,0.06397 -0.29513,-0.07718 -0.334267,-0.02772 -0.232305,0.293537 0.144119,0.454079 -0.04269,0.508428 -0.341751,0.09943 -0.190879,-0.261041 -0.37939,-0.251823 -2.089843,0.102193 -2.853207,0.590534 -3.128633,0.682429 -3.601764,1.201733 -0.241053,0.264576 -0.337027,0.422706 -0.213277,0.351399 0.125482,-0.0723 0.225,-0.03682 0.225,0.08023 0,0.117013 -0.12539,0.161766 -0.283374,0.101141 -0.155857,-0.05981 -0.40199,0.0099 -0.546964,0.154848 -0.268285,0.268285 -0.618297,0.25292 -2.173698,-0.09542 -0.554519,-0.124187 -1.102239,-0.09269 -2.07,0.119045 -0.72378,0.158353 -1.538878,0.318715 -1.811328,0.356358 -0.272449,0.03764 -0.807238,0.227551 -1.188421,0.422016 -0.381182,0.194465 -0.849674,0.312615 -1.041093,0.262559 -0.264497,-0.06917 -0.422813,0.06579 -0.659561,0.562262 -0.17134,0.359302 -0.25717,0.741229 -0.190732,0.848727 0.06905,0.111735 0.03768,0.144081 -0.07325,0.07552 -0.106727,-0.06596 -0.379256,0.144275 -0.60562,0.467188 -0.226365,0.322915 -0.717749,0.85941 -1.091967,1.192214 -0.374216,0.332804 -0.628187,0.689569 -0.564379,0.792812 0.06973,0.11282 0.02827,0.133484 -0.103914,0.05179 -0.139185,-0.08602 -0.255033,-0.0016 -0.315547,0.229734 -0.05259,0.20111 -0.195471,0.327339 -0.317509,0.280508 -0.12204,-0.04683 -0.739163,0.179599 -1.371384,0.503178 -0.632223,0.323579 -1.435643,0.606308 -1.785375,0.628288 -0.349735,0.02198 -1.952131,0.09614 -3.560881,0.16481 -2.682454,0.114492 -2.925,0.09946 -2.925,-0.181311 z M 18.99,32.22 c -0.06119,-0.099 -0.187466,-0.18 -0.280624,-0.18 -0.09316,0 -0.169376,0.081 -0.169376,0.18 0,0.099 0.126281,0.18 0.280624,0.18 0.154342,0 0.230562,-0.081 0.169376,-0.18 z m 15.110341,-6.289326 c 0.361393,-0.399335 2.126522,-0.697405 2.48602,-0.419803 0.142979,0.110408 0.79034,0.107631 1.794888,-0.0077 1.467819,-0.168518 1.564995,-0.205306 1.476255,-0.558873 -0.05224,-0.208165 0.03238,-0.683318 0.188052,-1.055898 l 0.283043,-0.677418 -0.499299,0.111977 c -0.274615,0.06159 -0.7828,0.184665 -1.1293,0.273504 -0.80815,0.207204 -0.946496,0.204392 -0.81,-0.01647 0.146101,-0.236397 -0.25715,-0.228501 -0.96694,0.01893 -0.313863,0.109413 -0.649728,0.346674 -0.746367,0.527245 -0.101714,0.190056 -0.706512,0.495837 -1.4362,0.726131 C 33.566285,25.222883 33.48,25.285365 33.48,25.765052 c 0,0.602394 0.181264,0.650785 0.620341,0.165611 z M 6.2850001,25.265615 c 0.04125,-0.03609 0.030456,-0.11016 -0.023987,-0.164602 C 6.1045673,24.944567 4.32,25.228089 4.32,25.409389 c 0,0.147186 1.78141,0.01685 1.9650001,-0.143774 z M 7.74,25.02 C 8.1809766,24.878774 8.1791721,24.875581 7.65,24.860698 7.353,24.852346 6.9885,24.924031 6.84,25.02 6.6175684,25.163746 6.6334246,25.191812 6.93,25.179302 7.128,25.17095 7.4925,25.099263 7.74,25.02 Z m 1.1687258,-0.177939 c 0.063061,-0.102035 -0.00919,-0.13221 -0.169377,-0.07074 C 8.4275138,24.890981 8.3704592,25.02 8.6293769,25.02 c 0.093157,0 0.2188644,-0.08007 0.2793489,-0.177939 z M 10.98,24.471367 c 0.165983,-0.09575 -0.0074,-0.114671 -0.45,-0.04912 -0.396,0.05865 -0.8415,0.181288 -0.99,0.272532 -0.3480363,0.213847 1.06095,-0.0048 1.44,-0.223416 z m 2.433262,-0.346089 c -0.04657,-0.07535 -0.307089,-0.09448 -0.578934,-0.04252 -0.436557,0.08345 -0.45282,0.109251 -0.139296,0.220952 0.399019,0.142161 0.847507,0.03074 0.71823,-0.178437 z m 2.863424,-0.360593 c -0.108414,-0.108412 -0.379734,-0.114316 -0.711,-0.01546 -0.529403,0.157968 -0.527347,0.160024 0.175314,0.175315 0.461331,0.01004 0.649438,-0.04609 0.535686,-0.159844 z m 5.994565,-3.893436 c -0.05981,-0.05981 -0.215064,-0.06621 -0.345001,-0.0142 -0.143591,0.05746 -0.10094,0.100113 0.108751,0.108749 0.189748,0.0078 0.296062,-0.03473 0.23625,-0.09454 z M 18.103505,35.797293 C 17.812177,35.513699 17.802669,35.46 18.043785,35.46 c 0.157723,0 0.414896,-0.04917 0.571493,-0.109258 0.345198,-0.132464 0.391854,0.339789 0.05972,0.604512 -0.157311,0.125381 -0.32924,0.07786 -0.571495,-0.157961 z M 30.78,34.480624 C 30.78,34.326281 30.861,34.2 30.96,34.2 c 0.099,0 0.18,0.07622 0.18,0.169376 0,0.09316 -0.081,0.219438 -0.18,0.280624 -0.099,0.06119 -0.18,-0.01503 -0.18,-0.169376 z M 17.46,34.38 c 0,-0.099 0.08578,-0.18 0.190623,-0.18 0.104843,0 0.140562,0.081 0.07938,0.18 -0.06119,0.099 -0.146966,0.18 -0.190623,0.18 -0.04366,0 -0.07938,-0.081 -0.07938,-0.18 z m 0.03083,-0.917528 C 17.1537,32.922646 17.390275,32.804523 17.818858,33.298684 18.24223,33.786835 18.255434,33.84 17.953298,33.84 c -0.124685,0 -0.332798,-0.169888 -0.462471,-0.377528 z m 13.946412,0.113605 c -0.137248,-0.357662 -0.05428,-0.529643 0.207364,-0.429828 0.09191,0.03506 0.111132,0.219829 0.04273,0.410591 -0.118179,0.329555 -0.130641,0.330514 -0.250089,0.01924 z M 14.4,33.12 c 0,-0.099 0.08578,-0.18 0.190623,-0.18 0.104843,0 0.140562,0.081 0.07938,0.18 -0.06119,0.099 -0.146966,0.18 -0.190623,0.18 C 14.43572,33.3 14.4,33.219 14.4,33.12 Z m 21.69,-0.36 c -0.06119,-0.099 0.01503,-0.18 0.169376,-0.18 0.154343,0 0.280624,0.081 0.280624,0.18 0,0.099 -0.07622,0.18 -0.169376,0.18 -0.09316,0 -0.219438,-0.081 -0.280624,-0.18 z m 3.51,-0.443668 c 0,-0.04602 0.160177,-0.16939 0.355948,-0.274165 0.290403,-0.155417 0.336577,-0.140011 0.250744,0.08367 C 40.113454,32.36881 39.6,32.53003 39.6,32.316332 Z M 38.25,31.86 c -0.06119,-0.099 0.01981,-0.18 0.18,-0.18 0.160186,0 0.241186,0.081 0.18,0.18 -0.06119,0.099 -0.142186,0.18 -0.18,0.18 -0.03781,0 -0.118814,-0.081 -0.18,-0.18 z"
       style="fill:#adac9c" />
    <path
       id="path3377"
       d="M 20.846142,37.592689 C 20.522423,37.334137 20.58098,36.36 20.920243,36.36 c 0.09805,0 0.129616,-0.126797 0.07015,-0.28177 -0.08388,-0.218594 -0.02478,-0.255316 0.263619,-0.163784 0.334273,0.106094 0.319826,0.04632 -0.143346,-0.593073 -0.283299,-0.391084 -0.664692,-1.147631 -0.847537,-1.681216 -0.439353,-1.282131 -1.20948,-1.8258 -2.687423,-1.897184 C 16.500036,31.691018 16.02,31.47039 16.02,31.027961 16.02,30.891582 15.853978,30.78 15.651061,30.78 c -0.472493,0 -1.35025,-0.452237 -2.147073,-1.106213 C 13.066473,29.314705 12.678021,29.16 12.213911,29.16 11.261078,29.16 10.021577,28.580008 9.7633861,28.013341 9.5058324,27.44807 9.6812019,27.454477 6.66,27.9 3.495717,28.366623 3.037943,28.361326 2.5599676,27.852543 2.0871443,27.349247 1.62,26.26171 1.62,25.664251 c 0,-0.61659 0.3139389,-1.248889 0.7576663,-1.526001 0.2046259,-0.127791 2.5096271,-0.530971 5.122225,-0.895955 l 4.7501777,-0.663608 0.354552,-0.583015 c 0.195004,-0.320657 0.567687,-0.680124 0.828184,-0.798814 0.260498,-0.118691 0.702674,-0.429759 0.982614,-0.691262 0.706816,-0.660265 1.59209,-1.017054 1.777833,-0.716515 0.08884,0.143741 0.187466,-0.02667 0.269875,-0.466275 0.256794,-1.369879 0.554407,-1.831023 1.268117,-1.964915 0.519158,-0.09739 0.768184,-0.04251 1.176375,0.25928 C 19.296974,17.905033 19.686789,18 20.479036,18 c 0.914641,0 1.116046,0.06529 1.526967,0.495 0.260344,0.27225 0.546121,0.692345 0.635058,0.933545 0.144723,0.392495 0.282837,0.444758 1.315321,0.497725 1.68744,0.08656 3.385515,1.026473 3.751572,2.07655 l 0.195639,0.561206 0.358936,-0.385272 c 0.458032,-0.491639 1.724819,-0.846185 2.225372,-0.622832 0.359943,0.16061 1.05912,0.01634 2.340855,-0.48298 0.511773,-0.199375 0.514212,-0.207117 0.181221,-0.575068 -0.332057,-0.366917 -0.32712,-0.392407 0.304148,-1.570422 0.615778,-1.149108 0.666597,-1.195365 1.258779,-1.145754 0.339403,0.02843 0.969801,0.0473 1.400886,0.04193 0.498204,-0.0062 1.008481,0.129101 1.400456,0.371355 0.60905,0.376414 0.632497,0.37724 1.898703,0.06694 1.15591,-0.28327 1.336885,-0.287471 1.839544,-0.04271 0.306628,0.149309 0.985331,0.459618 1.508226,0.689573 0.522894,0.229957 1.022922,0.505104 1.111172,0.611439 0.08825,0.106333 0.215802,0.682554 0.283451,1.280491 0.11398,1.007447 0.09383,1.100172 -0.274771,1.264647 -0.380897,0.169962 -0.360827,0.206273 0.473121,0.855996 0.596669,0.464862 0.985096,0.646338 1.233599,0.576347 0.19949,-0.05619 0.970209,-0.151497 1.712709,-0.2118 1.224441,-0.09944 1.381892,-0.07412 1.692898,0.272224 0.188593,0.210026 0.559849,0.381865 0.82501,0.381865 0.72125,0 1.789175,1.014736 1.989069,1.89 0.29145,1.276153 0.230922,1.524179 -0.440417,1.804682 -0.337392,0.14097 -2.028555,0.500382 -3.758141,0.798692 -1.729584,0.298309 -3.741786,0.673981 -4.471558,0.834829 -0.729774,0.160847 -1.529361,0.33417 -1.776861,0.385163 -0.2475,0.05099 -0.678409,0.33654 -0.957575,0.63455 l -0.507575,0.541838 -1.578612,-0.119169 c -1.394547,-0.105275 -1.818088,-0.05764 -3.632425,0.408501 -1.129598,0.290219 -2.244581,0.555401 -2.477742,0.589293 -0.284076,0.04129 -0.572141,0.328835 -0.873201,0.871621 -1.154123,2.080778 -2.500263,3.368732 -4.673961,4.471931 -0.829743,0.421112 -1.361024,0.516868 -3.748909,0.675693 -1.220263,0.08116 -1.694977,0.04787 -1.923858,-0.134935 z M 27.72,35.418703 c 0,-0.105356 -0.114374,-0.08786 -0.27,0.0413 -0.1485,0.123244 -0.27,0.252121 -0.27,0.286391 0,0.03427 0.1215,0.0157 0.27,-0.0413 0.1485,-0.05699 0.27,-0.18586 0.27,-0.28639 z M 26.46,35.179376 C 26.46,35.036719 26.379,34.92 26.28,34.92 c -0.099,0 -0.18,0.166781 -0.18,0.370624 0,0.203842 0.081,0.320562 0.18,0.259376 0.099,-0.06119 0.18,-0.227966 0.18,-0.370624 z m 18.45,-6.831248 0.9,-0.237312 -0.99,0.102992 c -0.5445,0.05665 -1.1925,0.16425 -1.44,0.239121 -0.43337,0.131098 -0.430043,0.136061 0.09,0.13432 0.297,-0.0011 0.945,-0.108598 1.44,-0.239121 z M 34.049466,25.983333 c 0.429466,-0.388661 2.113387,-0.661644 2.434988,-0.394738 0.173003,0.14358 0.702387,0.135943 1.941051,-0.028 1.568232,-0.207565 1.689084,-0.251745 1.52538,-0.557628 -0.131137,-0.245034 -0.07637,-0.547974 0.20874,-1.154509 0.407614,-0.867161 0.360054,-1.198258 -0.115435,-0.803637 -0.165098,0.13702 -0.676878,0.225537 -1.219351,0.210899 -1.166056,-0.03146 -2.0556,0.237928 -2.666833,0.807626 -0.259596,0.241958 -0.948096,0.580768 -1.53,0.752915 -0.9805,0.290061 -1.062139,0.35514 -1.114411,0.888364 -0.06342,0.646928 0.05877,0.710478 0.535871,0.278707 z M 5.85,25.468744 c 0.792,-0.145296 2.0475,-0.350828 2.79,-0.456736 0.7425,-0.105908 1.5525,-0.232153 1.8,-0.280543 0.2475,-0.04839 0.865186,-0.118296 1.372636,-0.155341 1.738753,-0.12694 2.625018,-0.31047 2.431886,-0.503603 -0.194314,-0.194313 -4.006269,0.16141 -4.5333773,0.423045 -0.1533704,0.07613 -1.1253704,0.226604 -2.16,0.334395 C 4.6947602,25.127548 4.32,25.203618 4.32,25.485822 c 0,0.139797 0.02025,0.252585 0.045,0.250637 0.02475,-0.0019 0.693,-0.122419 1.485,-0.267715 z M 44.73,25.56 c 0.06119,-0.099 0.02547,-0.18 -0.07938,-0.18 -0.104843,0 -0.190624,0.081 -0.190624,0.18 0,0.099 0.03572,0.18 0.07938,0.18 0.04366,0 0.129438,-0.081 0.190624,-0.18 z m 4.05,-1.0755 c 0,-0.100841 -0.248859,-0.128129 -0.585,-0.06414 C 47.374688,24.576502 47.348557,24.66 48.119999,24.66 48.483,24.66 48.78,24.581025 48.78,24.4845 Z M 16.225345,23.94 c 0.195746,0 0.30584,-0.081 0.244655,-0.18 -0.133841,-0.21656 -1.35,-0.243585 -1.35,-0.03 0,0.258126 0.240778,0.405195 0.50032,0.305599 0.137018,-0.05258 0.409279,-0.0956 0.605025,-0.0956 z M 14.76,22.240624 c 0,-0.189987 -0.34544,-0.269804 -0.448185,-0.10356 -0.06218,0.100615 0.01322,0.182936 0.167562,0.182936 0.154343,0 0.280623,-0.03572 0.280623,-0.07938 z m 3.648425,-0.578693 c -0.121865,-0.04931 -0.364865,-0.05231 -0.539999,-0.0067 -0.175134,0.04564 -0.07543,0.08598 0.221574,0.08965 0.297,0.0037 0.440291,-0.03367 0.318425,-0.08298 z M 38.52,20.52 c 0,-0.099 -0.081,-0.18 -0.18,-0.18 -0.099,0 -0.18,0.081 -0.18,0.18 0,0.099 0.081,0.18 0.18,0.18 0.099,0 0.18,-0.081 0.18,-0.18 z M 22.365761,19.773761 c -0.181521,-0.181521 -1.704981,-0.0028 -1.588109,0.186261 0.03911,0.06328 0.45009,0.08492 0.913288,0.04808 0.51903,-0.04128 0.777961,-0.131197 0.674821,-0.234337 z"
       style="fill:#8c8974" />
    <path
       id="path3375"
       d="m 21.669097,37.473824 c 0.06223,-0.100692 0.0137,-0.216227 -0.107862,-0.256745 -0.142164,-0.04739 -0.0489,-0.245779 0.261429,-0.556106 L 22.3051,36.178537 21.844114,35.876486 c -0.566609,-0.371256 -1.201374,-1.353123 -1.558503,-2.410724 -0.346205,-1.025249 -1.551029,-1.916671 -2.590529,-1.916671 -0.971307,0 -1.54221,-0.206649 -1.423749,-0.515352 C 16.335115,30.867525 16.244477,30.78 16.008569,30.78 15.454737,30.78 14.445132,30.305995 13.638914,29.66746 13.111082,29.249408 12.749192,29.100618 12.329055,29.128912 11.503288,29.184525 10.121417,28.54784 9.8699337,27.995893 9.6143679,27.434988 9.4901261,27.431631 6.0414745,27.892465 4.3707152,28.115725 3.2533402,28.187726 2.9933572,28.088881 2.1140449,27.754567 1.4146385,25.950344 1.8019143,25.015379 2.133484,24.214898 2.5836521,23.991404 4.32,23.765231 c 2.0330077,-0.264816 4.9936073,-0.673506 6.66,-0.919366 1.248235,-0.184166 1.370353,-0.24113 1.62,-0.755691 0.1485,-0.306081 0.41175,-0.622584 0.585,-0.703343 C 13.741841,21.12727 13.97132,20.981317 14.760152,20.385 15.692093,19.6805 16.02,19.645364 16.02,20.25 c 0,0.696154 0.330773,0.531166 0.451085,-0.225 0.220217,-1.384069 0.509209,-2.224602 0.822512,-2.392277 0.400182,-0.214171 1.253326,-0.219835 1.583781,-0.01051 0.189844,0.120254 0.130141,0.213804 -0.256709,0.402244 -0.277247,0.13505 -0.535405,0.367047 -0.573685,0.515547 -0.0579,0.224618 -0.02988,0.221836 0.166708,-0.01656 0.159167,-0.19301 0.700253,-0.328444 1.657541,-0.414882 l 1.421235,-0.12833 0.603765,0.585193 C 22.749817,19.392752 22.685981,19.62 21.6,19.62 c -0.669101,0 -0.9,0.06743 -0.9,0.26284 0,0.220399 0.360846,0.250624 2.234873,0.187194 1.960475,-0.06635 2.286457,-0.03536 2.655,0.252402 0.231069,0.180423 0.59882,0.384013 0.817221,0.452424 0.376487,0.117925 0.970442,0.729659 1.43313,1.476027 0.20297,0.327413 0.220145,0.325505 0.497774,-0.05527 0.349153,-0.478881 1.718364,-0.73707 2.359535,-0.444931 0.236286,0.107658 0.472239,0.12677 0.524338,0.04247 0.0521,-0.0843 0.318242,-0.205535 0.591428,-0.269412 C 32.656748,21.326528 33.3,21.025213 33.3,20.827336 c 0,-0.103945 -0.116095,-0.317272 -0.257989,-0.474065 -0.226321,-0.250081 -0.187657,-0.415832 0.315,-1.350351 0.707687,-1.315703 0.976018,-1.501748 1.67064,-1.158319 0.37816,0.186967 0.656039,0.210661 1.006664,0.08584 0.399813,-0.142334 0.612612,-0.08752 1.21961,0.314177 0.727605,0.481505 0.744998,0.483712 1.663355,0.21099 1.145972,-0.340317 1.763982,-0.347839 2.423133,-0.02949 0.280272,0.135362 0.89877,0.43247 1.374437,0.660238 1.015549,0.486286 1.160215,0.706435 1.237384,1.883029 L 44.01,21.850137 43.151461,22.09653 c -0.91409,0.262337 -1.019014,0.643981 -0.128057,0.46579 0.423187,-0.08464 0.657862,0.0069 1.169285,0.455895 0.709953,0.623347 0.969333,0.656321 2.754556,0.35019 1.210837,-0.207636 1.245744,-0.202583 1.865331,0.27 0.347273,0.264877 0.790272,0.481595 0.984444,0.481595 0.194171,0 0.630765,0.204899 0.970207,0.455332 0.492842,0.363607 0.66335,0.658684 0.846428,1.464798 0.162067,0.713596 0.173465,1.076699 0.03889,1.238854 -0.349673,0.421329 -2.038617,0.682808 -4.582544,0.709461 -2.039177,0.02136 -3.052341,0.134285 -5.31,0.591825 -2.853331,0.578259 -7.834219,1.467769 -9.045,1.615297 -0.471503,0.05745 -0.675832,0.171511 -0.677756,0.37834 -0.0024,0.258576 -0.02714,0.261882 -0.195154,0.02609 -0.147029,-0.206332 -0.169261,-0.135036 -0.09427,0.302344 0.05397,0.31479 0.03671,0.59829 -0.03834,0.63 -0.07506,0.03171 -0.442901,0.624656 -0.817431,1.317656 -1.054472,1.951114 -3.235568,3.803328 -5.152039,4.375177 -0.922025,0.275121 -4.211438,0.476034 -4.070903,0.248647 z m 4.681645,-1.578546 c 0.06009,-0.156597 0.106796,-0.662847 0.103784,-1.125 -0.0068,-1.035106 -0.298148,-0.671847 -0.470651,0.586704 -0.11067,0.807414 0.128777,1.158749 0.366867,0.538296 z m 1.169372,-0.05918 c 0.366066,-0.231816 0.456039,-1.528819 0.125107,-1.803468 -0.230211,-0.191058 -0.253204,-0.134815 -0.165597,0.405054 0.08687,0.535325 0.03297,0.671974 -0.368944,0.935317 -0.258874,0.169622 -0.47068,0.380087 -0.47068,0.4677 0,0.20426 0.554875,0.201359 0.880114,-0.0046 z M 28.17,32.58 c 0.06119,-0.099 0.02547,-0.18 -0.07938,-0.18 C 27.985781,32.4 27.9,32.481 27.9,32.58 c 0,0.099 0.03572,0.18 0.07938,0.18 0.04366,0 0.129438,-0.081 0.190624,-0.18 z m -4.542525,-0.666707 c -0.221389,-0.04273 -0.626389,-0.04383 -0.9,-0.0024 -0.273611,0.04137 -0.09247,0.07633 0.402525,0.07768 0.495,0.0013 0.718864,-0.0325 0.497475,-0.07522 z m 1.343776,-0.162044 c -0.05981,-0.05981 -0.215064,-0.06621 -0.345001,-0.0142 -0.143591,0.05746 -0.10094,0.100113 0.108751,0.108749 0.189748,0.0078 0.296062,-0.03473 0.23625,-0.09454 z M 22.41,30.42 c 0.06119,-0.099 0.02547,-0.18 -0.07938,-0.18 -0.104843,0 -0.190624,0.081 -0.190624,0.18 0,0.099 0.03572,0.18 0.07938,0.18 0.04366,0 0.129438,-0.081 0.190624,-0.18 z m 0.07639,-1.12912 c 0.212884,-0.277827 0.206292,-0.30445 -0.05093,-0.205742 -0.162502,0.06236 -0.295459,0.239711 -0.295459,0.394121 0,0.154407 0.02292,0.24699 0.05093,0.205742 0.02801,-0.04125 0.16097,-0.218605 0.295459,-0.394121 z M 21.33,29.34 c 0.06119,-0.099 0.02547,-0.18 -0.07938,-0.18 -0.104843,0 -0.190624,0.081 -0.190624,0.18 0,0.099 0.03572,0.18 0.07938,0.18 0.04366,0 0.129438,-0.081 0.190624,-0.18 z m 12.735,-1.555533 c 0.37125,-0.06136 0.675,-0.163863 0.675,-0.227776 0,-0.169149 -1.499143,-0.009 -1.701,0.181746 -0.202531,0.191355 0.07222,0.203681 1.026,0.04603 z M 27.54,26.850001 c 0,-0.234375 -0.213979,-0.390248 -0.388042,-0.282671 C 26.965798,26.682385 27.126317,27 27.370624,27 27.463781,27 27.54,26.9325 27.54,26.850001 Z m 8.73,-0.03 c 0.06119,-0.099 -0.01503,-0.18 -0.169376,-0.18 -0.154343,0 -0.280624,0.081 -0.280624,0.18 0,0.099 0.07622,0.18 0.169376,0.18 0.09316,0 0.219438,-0.081 0.280624,-0.18 z m 2.658425,0.06193 c -0.121865,-0.04931 -0.364865,-0.05231 -0.54,-0.0067 -0.175134,0.04564 -0.07542,0.08598 0.221575,0.08965 0.297,0.0037 0.440291,-0.03367 0.318425,-0.08298 z M 40.005,26.70079 c -0.12375,-0.04993 -0.32625,-0.04993 -0.45,0 -0.12375,0.04993 -0.0225,0.09079 0.225,0.09079 0.2475,0 0.34875,-0.04086 0.225,-0.09079 z m 1.166251,-0.169541 c -0.05981,-0.05981 -0.215064,-0.06621 -0.345001,-0.0142 -0.143591,0.05746 -0.10094,0.100113 0.108751,0.108749 0.189748,0.0078 0.296062,-0.03473 0.23625,-0.09454 z m -7.074744,-0.41634 c 0.395716,-0.437261 1.898957,-0.666336 2.447206,-0.372922 0.304555,0.162992 0.669102,0.159226 1.590695,-0.01643 1.083412,-0.206505 1.593302,-0.28728 2.086592,-0.330552 0.09405,-0.0082 0.0738,-0.112199 -0.045,-0.230999 -0.319741,-0.319741 -0.266877,-0.681291 0.238388,-1.630433 0.249916,-0.469462 0.391666,-0.853297 0.315,-0.852968 -0.364856,0.0016 -3.612722,0.700225 -4.009388,0.862472 -0.2475,0.101234 -0.590328,0.352723 -0.761839,0.55886 -0.171511,0.20614 -0.799261,0.510315 -1.395,0.675945 L 33.48,25.079022 l 0,0.690489 c 0,0.769959 0.154136,0.856314 0.616507,0.345398 z M 44.46,25.999376 c 0,-0.142657 0.081,-0.259376 0.18,-0.259376 0.099,0 0.18,-0.1215 0.18,-0.27 0,-0.423315 -0.248065,-0.314422 -0.495,0.217291 -0.271561,0.584737 -0.287914,0.832838 -0.045,0.682709 0.099,-0.06119 0.18,-0.227966 0.18,-0.370624 z M 25.74,25.92 C 25.958333,25.778903 25.932499,25.744986 25.605,25.742756 25.38225,25.74124 25.2,25.821 25.2,25.92 c 0,0.225526 0.191023,0.225526 0.54,0 z M 5.85,25.550671 c 0.7546736,-0.136241 2.3203202,-0.365226 8.096761,-1.184201 0.298781,-0.04236 1.022862,-0.135396 1.609068,-0.206744 0.586206,-0.07135 1.095984,-0.22131 1.13284,-0.333245 0.102984,-0.312775 -0.762441,-0.452644 -1.331177,-0.215143 C 15.078371,23.727897 14.4045,23.838041 13.86,23.8561 c -1.206177,0.04 -2.335637,0.178612 -4.23,0.519104 -0.792,0.142353 -2.31075,0.357453 -3.375,0.477999 -1.8765668,0.212557 -1.935,0.232555 -1.935,0.662243 0,0.348709 0.067086,0.416942 0.315,0.320386 0.17325,-0.06748 0.72,-0.1958 1.215,-0.285161 z M 24.66,25.38 c 0,-0.099 -0.081,-0.18 -0.18,-0.18 -0.099,0 -0.18,0.081 -0.18,0.18 0,0.099 0.081,0.18 0.18,0.18 0.099,0 0.18,-0.081 0.18,-0.18 z M 3.6329999,24.620999 C 3.5038388,24.491839 3.42,24.481211 3.42,24.593999 c 0,0.240261 0.2128698,0.453131 0.333,0.333 0.05115,-0.05115 -0.00285,-0.188848 -0.1200001,-0.306 z M 49.04212,24.456519 c 0.225691,-0.24174 -1.465382,-0.06974 -2.108803,0.214492 -0.296046,0.130777 -0.09423,0.152708 0.758803,0.08246 0.639165,-0.05264 1.246665,-0.186266 1.35,-0.296948 z M 17.865,23.697063 C 17.84025,23.632679 17.7795,23.58 17.73,23.58 c -0.0495,0 -0.2115,0 -0.36,0 -0.1485,0 -0.27,0.08049 -0.27,0.178871 0,0.09838 0.18225,0.151056 0.405,0.117063 0.22275,-0.03399 0.38475,-0.114487 0.36,-0.178871 z M 14.76,22.23 c 0,-0.1485 -0.1215,-0.27 -0.27,-0.27 -0.1485,0 -0.27,0.1215 -0.27,0.27 0,0.1485 0.1215,0.27 0.27,0.27 0.1485,0 0.27,-0.1215 0.27,-0.27 z m 9.45,-0.09 c 0.06119,-0.099 -0.01981,-0.18 -0.18,-0.18 -0.160186,0 -0.241186,0.081 -0.18,0.18 0.06119,0.099 0.142186,0.18 0.18,0.18 0.03781,0 0.118814,-0.081 0.18,-0.18 z m -8.64,-0.18 c 0.06119,-0.099 -0.01981,-0.18 -0.18,-0.18 -0.160185,0 -0.241185,0.081 -0.18,0.18 0.06118,0.099 0.142185,0.18 0.18,0.18 0.03782,0 0.118815,-0.081 0.18,-0.18 z m -1.53,-0.07938 c 0,-0.189987 -0.34544,-0.269804 -0.448185,-0.10356 -0.06218,0.100615 0.01322,0.182936 0.167562,0.182936 0.154343,0 0.280623,-0.03572 0.280623,-0.07938 z m 4.494787,-0.09359 c 0.145633,-0.0921 0.21973,-0.212514 0.164661,-0.267585 C 18.544358,21.364357 16.38,21.631417 16.38,21.805643 c 0,0.20797 1.821384,0.192238 2.154787,-0.01861 z M 15.221131,20.92113 c -0.06034,-0.06034 -0.249524,0.03669 -0.420417,0.215611 -0.29704,0.310995 -0.292212,0.315823 0.109702,0.109701 0.231229,-0.118584 0.371051,-0.264976 0.310715,-0.325312 z M 25.56,20.980624 c 0,-0.04366 -0.081,-0.129438 -0.18,-0.190624 -0.099,-0.06119 -0.18,-0.02547 -0.18,0.07938 0,0.104843 0.081,0.190624 0.18,0.190624 0.099,0 0.18,-0.03572 0.18,-0.07938 z M 38.52,20.509376 C 38.52,20.317219 38.439,20.16 38.34,20.16 c -0.099,0 -0.18,0.207281 -0.18,0.460624 0,0.261244 0.07791,0.41247 0.18,0.349376 0.099,-0.06119 0.18,-0.268466 0.18,-0.460624 z M 20.34,19.282039 c 0,-0.08688 -0.1215,-0.258795 -0.27,-0.382039 -0.293078,-0.243232 -0.329713,-0.185053 -0.160742,0.255278 0.115659,0.301404 0.430742,0.39413 0.430742,0.126761 z"
       style="fill:#565950" />
    <path
       id="path3373"
       d="M 23.625,37.132969 C 23.40225,37.090064 23.22,36.979596 23.22,36.887481 23.22,36.795366 23.0985,36.72 22.95,36.72 c -0.1485,0 -0.270553,-0.10125 -0.271229,-0.225 -7.2e-4,-0.12375 -0.294716,-0.424913 -0.653422,-0.669251 -0.77524,-0.528068 -1.393504,-1.429931 -1.698667,-2.477855 C 20.149983,32.741116 19.911614,32.452771 19.157141,31.933145 18.635956,31.574191 18.116633,31.337917 18.003087,31.408092 17.685464,31.604395 16.56,31.33438 16.56,31.061876 16.56,30.925361 16.268779,30.765431 15.89122,30.694601 15.046217,30.536077 14.292827,30.151913 13.538737,29.495039 13.099959,29.112827 12.761911,28.98 12.227955,28.98 c -0.918343,0 -1.838329,-0.384077 -2.217841,-0.925907 -0.2767544,-0.395122 -0.276015,-0.439233 0.01088,-0.649014 0.38957,-0.284861 0.06693,-0.300269 -0.8653074,-0.04133 C 8.1838679,27.63369 5.9683241,27.703418 5.8662077,27.46728 5.8143035,27.347256 5.7042326,27.390818 5.5851284,27.578522 5.4279679,27.826204 5.2967048,27.851818 4.9195075,27.708406 4.5603518,27.571856 4.3780298,27.594587 4.1456533,27.804884 3.3626556,28.513487 2.1951662,27.747535 1.7954135,26.262967 1.5559498,25.373666 1.6716133,24.980033 2.3368675,24.420258 2.7607246,24.063606 3.1421171,23.960846 4.4422468,23.852995 5.3155109,23.780554 6.273,23.685147 6.57,23.640977 c 0.297,-0.04417 0.8167936,-0.111627 1.1550969,-0.149906 0.3383033,-0.03828 0.9053033,-0.112045 1.26,-0.163922 C 9.3397936,23.275269 9.9945,23.186666 10.44,23.130254 c 1.674025,-0.211983 2.051839,-0.352075 2.157588,-0.800037 0.05554,-0.235269 0.319463,-0.590884 0.586496,-0.790252 0.407072,-0.303923 0.55906,-0.328981 0.940715,-0.155087 0.468286,0.213365 1.355201,-0.01816 1.355201,-0.353772 0,-0.08311 0.3105,-0.151106 0.69,-0.151106 0.782762,0 0.94933,-0.100183 0.802548,-0.48269 -0.08414,-0.219267 -0.133204,-0.224208 -0.272137,-0.0274 -0.232515,0.329373 -0.02093,-1.140138 0.249672,-1.734052 0.281931,-0.618768 0.876445,-0.623322 0.764477,-0.0058 -0.09663,0.532878 0.145875,0.580248 0.593427,0.115917 0.408681,-0.424003 1.355643,-0.608854 1.953875,-0.381406 0.316046,0.120159 0.582091,0.111114 0.843286,-0.02867 0.331333,-0.177325 0.452993,-0.124283 0.923985,0.402849 l 0.54241,0.607063 -0.980772,0.194085 c -0.635927,0.125843 -0.962728,0.275652 -0.929455,0.42607 0.02822,0.127593 -0.03182,0.332165 -0.133439,0.454603 -0.101614,0.122438 -0.131456,0.275911 -0.06632,0.341053 0.20425,0.20425 0.373354,0.130282 0.460046,-0.201225 0.06456,-0.246867 0.295153,-0.328869 1.012572,-0.360085 0.882396,-0.03839 0.917903,-0.02269 0.708116,0.313234 -0.159696,0.255712 -0.347068,0.326185 -0.676578,0.254466 L 21.51,20.668768 l 0.458883,0.256207 c 0.252383,0.140913 0.738383,0.306102 1.08,0.36709 1.562645,0.278969 2.078449,0.528649 1.851323,0.896148 -0.06905,0.11173 -0.02812,0.133205 0.101371,0.05318 0.148907,-0.09203 0.205445,-0.0018 0.179816,0.287188 -0.07268,0.819337 0.01904,1.50943 0.169175,1.272885 0.242993,-0.382846 0.06211,-2.078862 -0.239727,-2.247779 -0.435392,-0.243657 -0.31189,-0.510842 0.179159,-0.387596 0.469346,0.117798 0.589444,-0.07464 0.255186,-0.408899 -0.139752,-0.139752 -0.347962,-0.118413 -0.736664,0.0755 -0.451028,0.225002 -0.614488,0.231438 -0.975188,0.0384 C 23.380238,20.62859 23.232199,19.98 23.629948,19.98 c 0.126474,0 0.409974,0.126094 0.63,0.280206 0.224233,0.157059 0.400052,0.196614 0.400052,0.09 0,-0.321485 0.645604,-0.210758 0.99,0.169794 0.179188,0.198 0.434741,0.36 0.567898,0.36 0.387135,0 0.279321,0.503928 -0.136017,0.635751 -0.252081,0.08001 -0.318119,0.180011 -0.19812,0.30001 0.244009,0.244009 0.936239,0.0043 0.936239,-0.324224 0,-0.208425 0.076,-0.223527 0.36,-0.07154 0.198,0.105966 0.36,0.347036 0.36,0.535711 0,0.188674 0.08652,0.396516 0.192271,0.461872 0.10575,0.06536 0.153644,0.219492 0.106434,0.342522 -0.05846,0.152336 0.05246,0.197252 0.347729,0.140809 0.23846,-0.04558 0.434009,-0.134188 0.434549,-0.196898 5.4e-4,-0.06271 0.74388,-0.132439 1.651867,-0.154955 0.907987,-0.02252 1.697294,-0.111642 1.754017,-0.198054 C 32.195558,22.094021 32.8892,21.78 33.288167,21.78 c 0.204509,0 0.371833,-0.07846 0.371833,-0.174352 0,-0.09589 -0.117621,-0.129214 -0.26138,-0.07405 -0.480378,0.184338 -0.691432,-0.130714 -0.280418,-0.418599 0.372945,-0.261223 0.374717,-0.280606 0.05822,-0.637506 -0.225581,-0.254378 -0.260037,-0.391363 -0.111533,-0.443423 0.118189,-0.04143 0.174414,-0.180804 0.124945,-0.309719 -0.04947,-0.128912 0.136742,-0.609679 0.413802,-1.06837 C 33.992167,18.010742 34.212658,17.82 34.56769,17.82 c 0.25317,0 0.555312,0.095 0.671427,0.211117 0.16149,0.16149 0.320097,0.161463 0.674719,-1.14e-4 0.371095,-0.169082 0.567336,-0.157588 0.983469,0.0576 0.635904,0.328838 0.888171,0.678065 0.432283,0.598431 -0.204332,-0.03569 -0.352652,0.07068 -0.396319,0.284226 -0.05277,0.258087 0.0041,0.312926 0.233196,0.225 0.166638,-0.06395 0.422634,-0.116264 0.568879,-0.116264 0.147514,0 0.21143,-0.08814 0.143557,-0.197959 -0.07697,-0.124542 0.03442,-0.114058 0.300363,0.02827 0.379193,0.202939 0.389485,0.23788 0.09998,0.339433 -0.301853,0.105885 -0.298561,0.135079 0.0509,0.451337 0.366603,0.331771 0.38169,0.330558 0.802253,-0.06454 0.235742,-0.22147 0.579145,-0.431094 0.763114,-0.465832 0.183969,-0.03474 0.37499,-0.0706 0.42449,-0.07969 0.0495,-0.0091 -0.0035,-0.07604 -0.117812,-0.148772 -0.114296,-0.07273 0.189454,-0.122119 0.675,-0.109744 1.320104,0.03365 1.31607,0.03234 1.059201,0.341851 -0.268448,0.32346 -0.241054,0.357901 0.408611,0.513757 0.293857,0.0705 0.495,0.04421 0.495,-0.06468 0,-0.100886 0.162,-0.183429 0.36,-0.183429 0.198,0 0.36,0.081 0.36,0.18 0,0.099 -0.07846,0.18 -0.174352,0.18 -0.09589,0 -0.127904,0.121036 -0.07114,0.268967 0.05677,0.147931 0.167236,0.229395 0.245489,0.181033 0.188411,-0.116444 0.36,0.355624 0.36,0.990419 0,0.429255 -0.09356,0.532208 -0.585,0.643731 -0.32175,0.07301 -0.88875,0.116669 -1.26,0.09701 -0.513565,-0.0272 -0.675,0.03311 -0.675,0.252171 0,0.158353 0.07871,0.239267 0.174915,0.179811 0.09621,-0.05946 0.38011,0.02634 0.630902,0.190668 0.347772,0.22787 0.514706,0.25004 0.70342,0.09342 0.18889,-0.156763 0.380066,-0.129859 0.807962,0.113708 0.308288,0.175484 0.562718,0.400061 0.565398,0.499061 0.0027,0.099 0.447012,0.3825 0.987403,0.63 0.970124,0.444319 1.245805,0.72 0.72,0.72 -0.1485,0 -0.27,0.08967 -0.27,0.199258 0,0.109591 -0.1215,0.152635 -0.27,0.09565 -0.181814,-0.06977 -0.27,0.0085 -0.27,0.239556 0,0.228103 0.116528,0.334386 0.347544,0.316984 0.191149,-0.0144 0.332899,-0.106247 0.315,-0.204108 -0.02897,-0.158362 0.769981,-0.322797 3.477456,-0.715719 0.490289,-0.07115 0.673101,-0.05776 0.46316,0.03394 -0.323455,0.141276 -0.325393,0.159719 -0.02876,0.273549 0.174945,0.06713 0.391773,0.07652 0.481838,0.02085 0.09007,-0.05567 0.163757,0.02507 0.163757,0.179415 0,0.165374 0.155759,0.280624 0.379258,0.280624 0.268807,0 0.348039,-0.08135 0.272061,-0.279349 -0.06524,-0.170005 -0.03274,-0.233334 0.08301,-0.161793 0.104615,0.06466 0.147725,0.228269 0.0958,0.363585 -0.05193,0.135315 -0.02741,0.287437 0.05448,0.338048 0.20822,0.128685 0.387059,1.119654 0.261236,1.44754 -0.0574,0.149583 -0.293417,0.271969 -0.524483,0.271969 -0.231066,0 -0.470179,0.081 -0.531365,0.18 -0.06119,0.099 -0.354245,0.18 -0.651245,0.18 -0.349001,0 -0.496437,-0.07049 -0.416837,-0.199283 0.07985,-0.129199 0.0044,-0.164144 -0.214377,-0.09936 C 49.021893,27.476311 48.384,27.569097 47.79,27.627547 45.045868,27.897566 43.723186,28.075631 42.650122,28.319501 42.012056,28.464512 40.6395,28.715629 39.6,28.87754 36.493182,29.361452 35.461989,29.533993 33.515863,29.895541 32.496088,30.084993 31.60015,30.24 31.524892,30.24 c -0.143037,0 -0.651445,-1.77536 -0.539253,-1.883065 0.0354,-0.03398 0.908505,-0.172126 1.940238,-0.30699 1.137114,-0.148636 1.905068,-0.332778 1.95,-0.467575 0.09986,-0.299572 -0.4029,-0.274457 -2.565877,0.128178 -1.538465,0.286384 -1.829038,0.298336 -1.999843,0.08226 C 30.200242,27.653764 30.021122,27.54 29.912112,27.54 c -0.10901,0 -0.51898,-0.324 -0.911041,-0.72 C 28.330263,26.142455 27.9,25.917372 27.9,26.244 c 0,0.0792 0.0972,0.2412 0.216,0.36 0.167999,0.167999 0.148,0.216 -0.09,0.216 -0.1683,0 -0.306,-0.081 -0.306,-0.18 0,-0.099 -0.162,-0.18 -0.36,-0.18 -0.2,0 -0.36,0.120001 -0.36,0.27 0,0.152579 0.161181,0.27 0.370624,0.27 0.203842,0 0.320562,0.081 0.259376,0.18 -0.06464,0.104596 0.11313,0.18 0.424377,0.18 0.294593,0 0.569597,-0.06075 0.611122,-0.135 0.04152,-0.07425 0.05082,-0.03375 0.02065,0.09 -0.03183,0.130559 0.118492,0.225 0.358125,0.225 0.430801,0 1.195727,0.673142 1.195727,1.052251 0,0.120476 0.117612,0.264179 0.261362,0.319342 0.14407,0.05529 0.3148,0.456644 0.380437,0.89435 0.06549,0.436732 0.190879,0.794057 0.278638,0.794057 0.08776,0 0.159563,0.267597 0.159563,0.594659 0,2.272934 -4.13487,6.114476 -6.502088,6.040829 C 24.38456,37.222006 23.84775,37.175872 23.625,37.132969 Z m 3.844397,-1.145549 c 0.52974,-0.194139 0.718497,-1.546672 0.284286,-2.037049 -0.225653,-0.254843 -0.245581,-0.363285 -0.07756,-0.422043 0.124368,-0.04349 0.187028,-0.142331 0.139245,-0.219645 -0.04778,-0.07731 0.07321,-0.285449 0.268878,-0.462524 C 28.537897,32.435608 28.536437,32.22 28.08,32.22 c -0.198,0 -0.36,0.09682 -0.36,0.21515 0,0.118334 -0.217789,0.442475 -0.483975,0.720314 -0.446585,0.466133 -0.460156,0.522579 -0.175653,0.730612 0.382135,0.279423 0.2279,1.393924 -0.192904,1.393924 -0.206516,0 -0.24147,-0.13892 -0.153261,-0.609116 0.08459,-0.450929 0.04455,-0.63587 -0.154204,-0.712138 -0.147662,-0.05666 -0.316484,-0.02534 -0.375162,0.0696 -0.15339,0.248192 -0.422238,2.037357 -0.329193,2.190757 0.08155,0.134447 0.958068,0.0086 1.613749,-0.231685 z M 21.6,33.940624 c 0,-0.04366 -0.081,-0.129438 -0.18,-0.190624 -0.099,-0.06119 -0.18,-0.02547 -0.18,0.07938 0,0.104843 0.081,0.190624 0.18,0.190624 0.099,0 0.18,-0.03572 0.18,-0.07938 z M 21.42,33.12 c 0,-0.099 -0.08578,-0.18 -0.190624,-0.18 -0.104842,0 -0.140562,0.081 -0.07938,0.18 0.06119,0.099 0.146966,0.18 0.190624,0.18 0.04366,0 0.07938,-0.081 0.07938,-0.18 z m 3.33,-0.54 c 0.06119,-0.099 -0.05553,-0.18 -0.259376,-0.18 -0.203843,0 -0.370624,0.081 -0.370624,0.18 0,0.099 0.116719,0.18 0.259376,0.18 0.142658,0 0.309438,-0.081 0.370624,-0.18 z M 27,32.4 c 0,-0.099 -0.07622,-0.18 -0.169376,-0.18 -0.09316,0 -0.219438,0.081 -0.280624,0.18 -0.06119,0.099 0.01503,0.18 0.169376,0.18 C 26.873719,32.58 27,32.499 27,32.4 Z m -2.815123,-0.294466 c 1.249157,-0.171216 1.085114,-0.561861 -0.199877,-0.475977 -1.363313,0.09112 -1.845,0.19917 -1.845,0.413872 0,0.202662 0.834496,0.228006 2.044877,0.0621 z M 27.54,31.68 c 0,-0.099 -0.126281,-0.18 -0.280624,-0.18 -0.154342,0 -0.230562,0.081 -0.169376,0.18 0.06119,0.099 0.187466,0.18 0.280624,0.18 0.09316,0 0.169376,-0.081 0.169376,-0.18 z m -9.9,-0.99 c -0.232514,-0.2475 -0.489098,-0.45 -0.570186,-0.45 -0.08109,0 0.02864,0.2025 0.243837,0.45 0.215198,0.2475 0.471782,0.45 0.570186,0.45 0.0984,0 -0.01132,-0.2025 -0.243837,-0.45 z m 5.009173,-0.467528 C 22.95441,29.73371 22.730207,29.501651 22.395283,29.959686 22.254878,30.151703 22.14,30.374325 22.14,30.454403 c 0,0.271413 0.272286,0.147386 0.509173,-0.231931 z M 27.36,30.235027 c 0,-0.09005 -0.121036,-0.117283 -0.268967,-0.06052 -0.147931,0.05677 -0.223333,0.177046 -0.167562,0.267287 0.116651,0.188744 0.436529,0.03723 0.436529,-0.206771 z m -11.068201,-0.53315 c -0.283555,-0.295966 -0.555529,-0.498148 -0.604386,-0.44929 -0.118806,0.118807 0.706016,0.987413 0.93764,0.987413 0.100265,0 -0.0497,-0.242156 -0.333254,-0.538123 z M 21.671975,28.948838 22.01395,28.35 21.446975,28.878676 C 21.135139,29.169448 20.88,29.523616 20.88,29.665717 c 0,0.363055 0.362803,0.03465 0.791975,-0.716879 z M 22.68,29.014204 c 0,-0.2214 -0.0648,-0.211358 -0.36,0.0558 -0.198,0.179188 -0.36,0.447296 -0.36,0.595796 0,0.2214 0.0648,0.211358 0.36,-0.0558 0.198,-0.179188 0.36,-0.447296 0.36,-0.595796 z M 28.08,27.9 c 0,-0.099 -0.08578,-0.18 -0.190624,-0.18 -0.104842,0 -0.140562,0.081 -0.07938,0.18 0.06119,0.099 0.146966,0.18 0.190624,0.18 0.04366,0 0.07938,-0.081 0.07938,-0.18 z M 3.832108,27.54018 c 0.051752,-0.197903 4.5e-4,-0.413388 -0.1140064,-0.478859 -0.1144559,-0.06547 -0.1471748,-0.05187 -0.072709,0.03021 0.074466,0.08209 0.00117,0.297576 -0.1628979,0.478859 C 3.2224298,27.857761 3.2196892,27.9 3.4611086,27.9 3.6134059,27.9 3.7803555,27.738081 3.832108,27.54018 Z M 5.22,27.36 c 0,-0.099 -0.081,-0.18 -0.18,-0.18 -0.099,0 -0.18,0.081 -0.18,0.18 0,0.099 0.081,0.18 0.18,0.18 0.099,0 0.18,-0.081 0.18,-0.18 z m 40.287249,-0.27 c 0.112768,-0.2475 0.175585,-0.45 0.139594,-0.45 -0.03599,0 -0.198123,0.2025 -0.36029,0.45 -0.162169,0.2475 -0.224986,0.45 -0.139596,0.45 0.08539,0 0.247522,-0.2025 0.360292,-0.45 z M 7.92,26.981093 c 0,-0.241665 -0.7864004,-0.193846 -1.1468752,0.06974 -0.2720812,0.19895 -0.2146808,0.2212 0.4155966,0.161095 C 7.5909247,27.17357 7.92,27.069696 7.92,26.981093 Z m 18.822112,-0.29898 c -0.163145,-0.163147 -0.665066,0.135126 -0.547495,0.325357 0.08065,0.130489 0.198355,0.122852 0.375757,-0.02438 0.14208,-0.117915 0.219361,-0.253356 0.171738,-0.300978 z M 40.635,26.811554 c 0.71775,-0.112244 1.305,-0.277761 1.305,-0.367817 0,-0.223556 -0.735448,-0.19485 -2.34,0.09134 -0.847667,0.151187 -1.428453,0.178191 -1.560839,0.07257 -0.152216,-0.121444 -0.18306,-0.06199 -0.110933,0.213828 0.109147,0.417371 -0.02874,0.417877 2.706772,-0.0099 z M 9.81,26.723666 c 0.297,-0.143053 0.378,-0.222901 0.18,-0.177441 -0.198,0.04546 -0.66375,0.101713 -1.035,0.125005 -0.37125,0.02329 -0.675,0.106794 -0.675,0.18556 0,0.231122 0.9443639,0.148954 1.53,-0.133124 z M 36.405,26.73 c -0.06643,-0.265712 -0.63207,-0.21879 -0.725049,0.06015 -0.05488,0.164639 0.05359,0.221234 0.345001,0.18 C 36.258728,26.937067 36.42975,26.829 36.405,26.73 Z M 22.887783,26.415783 c -0.206132,-0.206132 -0.620415,-0.0066 -0.474955,0.228793 0.05429,0.08784 0.223052,0.111983 0.375035,0.05366 0.180481,-0.06926 0.21514,-0.167234 0.09992,-0.282454 z m 14.483257,-0.02604 c -0.11813,-0.470669 -0.04762,-0.497295 2.00396,-0.756657 0.931975,-0.117821 1.14953,-0.336559 0.741029,-0.74506 -0.151961,-0.151961 -0.06017,-0.458778 0.36,-1.203273 C 40.786213,23.135139 41.04,22.634712 41.04,22.572695 c 0,-0.133488 -0.784361,-0.0014 -2.910413,0.489846 -1.137333,0.262833 -1.699697,0.493712 -2.074125,0.851534 -0.282541,0.270012 -0.968409,0.633951 -1.524152,0.808754 -0.882844,0.277688 -1.024265,0.386942 -1.119915,0.865195 -0.06021,0.301056 -0.04073,0.670212 0.04329,0.82035 0.129886,0.232094 0.210047,0.211491 0.535253,-0.137576 0.284533,-0.305411 0.643577,-0.432203 1.401991,-0.495097 0.732535,-0.06075 0.983941,-0.02701 0.893162,0.119877 -0.07729,0.125055 0.0059,0.204422 0.214285,0.204422 0.467168,0 0.616654,0.189697 0.37702,0.478438 -0.157523,0.189805 -0.114442,0.241562 0.201075,0.241562 0.333527,0 0.383259,-0.07289 0.293567,-0.430254 z M 44.595,25.972709 C 44.863187,25.395237 44.877888,25.2 44.653183,25.2 c -0.208056,0 -0.731559,1.021624 -0.593994,1.159189 0.187722,0.187722 0.310158,0.09941 0.535811,-0.38648 z M 39.33,26.1 c -0.06119,-0.099 -0.223186,-0.18 -0.36,-0.18 -0.136814,0 -0.298814,0.081 -0.36,0.18 -0.06334,0.102492 0.09167,0.18 0.36,0.18 0.268328,0 0.423344,-0.07751 0.36,-0.18 z M 25.815278,25.990742 c 0.156598,-0.06009 0.284722,-0.181591 0.284722,-0.27 0,-0.251921 -0.614743,-0.188313 -1.000597,0.103534 -0.341899,0.258599 -0.341022,0.264398 0.04087,0.27 0.214653,0.0031 0.518403,-0.04344 0.675,-0.103534 z M 27.9,25.729376 C 27.9,25.636219 27.819,25.56 27.72,25.56 c -0.099,0 -0.18,0.126281 -0.18,0.280624 0,0.154342 0.081,0.230562 0.18,0.169376 0.099,-0.06119 0.18,-0.187466 0.18,-0.280624 z m 18.54,0.201248 c 0,-0.09316 -0.081,-0.219438 -0.18,-0.280624 -0.099,-0.06119 -0.18,0.01503 -0.18,0.169376 0,0.154343 0.081,0.280624 0.18,0.280624 0.099,0 0.18,-0.07622 0.18,-0.169376 z M 7.92,25.365845 c 2.775051,-0.400675 6.879008,-0.915075 7.59,-0.951354 0.264,-0.01346 0.54075,-0.08524 0.615,-0.159491 0.07425,-0.07425 0.30375,-0.135452 0.51,-0.136004 0.20625,-5.4e-4 0.696152,-0.09016 1.088671,-0.199138 0.658357,-0.182777 0.68782,-0.217037 0.380135,-0.442022 -0.244712,-0.178937 -0.426966,-0.193886 -0.684365,-0.05613 -0.202844,0.10856 -0.715655,0.137581 -1.215723,0.06881 -0.549464,-0.07557 -0.908671,-0.04812 -0.984929,0.07527 -0.06602,0.106823 -0.540505,0.195851 -1.054412,0.197842 -0.513907,0.002 -1.460877,0.08242 -2.104377,0.178736 -0.6435,0.09632 -1.656,0.222162 -2.25,0.279661 -0.594,0.0575 -1.3635,0.174139 -1.71,0.259203 -0.7334161,0.180049 -2.5506245,0.418101 -3.33,0.436223 -0.4583153,0.01066 -0.5489937,0.09135 -0.5994551,0.533454 -0.058505,0.512573 -0.048437,0.518859 0.63,0.39335 C 5.1797452,25.774096 6.5835,25.558814 7.92,25.365845 Z M 24.75,25.38 C 24.811186,25.281 24.73497,25.2 24.580624,25.2 24.426281,25.2 24.3,25.281 24.3,25.38 c 0,0.099 0.07622,0.18 0.169376,0.18 0.09316,0 0.219438,-0.081 0.280624,-0.18 z M 3.7996193,24.896729 C 3.6716339,24.418174 3.24,24.087065 3.24,24.467443 3.24,24.721558 3.6496377,25.38 3.8077313,25.38 c 0.066624,0 0.062974,-0.217472 -0.00811,-0.483271 z M 29.575624,23.773376 c 0.319789,-0.0085 0.460616,-0.0862 0.383169,-0.211509 -0.06861,-0.11101 -0.344741,-0.153677 -0.627968,-0.09703 -0.313738,0.06275 -0.532873,0.01902 -0.577632,-0.115257 -0.05098,-0.152946 -0.157696,-0.130787 -0.364086,0.0756 -0.348966,0.348968 -0.221915,0.531875 0.300942,0.433246 0.208973,-0.03942 0.607482,-0.07769 0.885575,-0.08505 z M 30.6,23.4 c -0.352507,-0.227808 -0.590792,-0.227808 -0.45,0 0.06119,0.099 0.248216,0.17876 0.415624,0.177244 0.262308,-0.0024 0.26706,-0.02687 0.03438,-0.177244 z m 0.947597,0.0724 c 0.05918,-0.05918 0.06322,-0.223245 0.009,-0.364593 -0.07567,-0.197187 -0.156562,-0.208908 -0.347598,-0.05036 -0.136938,0.113648 -0.248979,0.277716 -0.248979,0.364593 0,0.17842 0.423263,0.214697 0.587597,0.05036 z M 32.67,23.22 c -0.0662,-0.107122 0.148131,-0.18 0.529376,-0.18 0.352343,0 0.640624,-0.07846 0.640624,-0.174352 0,-0.09589 -0.107532,-0.133086 -0.238959,-0.08265 -0.131427,0.05043 -0.473994,0.0023 -0.761256,-0.10688 -0.36592,-0.139122 -0.541382,-0.141322 -0.586042,-0.0073 -0.03506,0.105175 -0.17595,0.19123 -0.313094,0.19123 -0.147694,0 -0.20711,0.110075 -0.145742,0.27 0.05699,0.1485 0.302223,0.27 0.544975,0.27 0.248407,0 0.392729,-0.07869 0.330118,-0.18 z M 14.90082,22.185 C 14.858569,21.982043 14.693813,21.885251 14.437622,21.912878 14.21893,21.936461 14.04,21.875711 14.04,21.777878 14.04,21.680044 13.9185,21.6 13.77,21.6 c -0.39818,0 -0.328363,0.378441 0.09,0.487845 0.198,0.05178 0.36,0.165695 0.36,0.253148 0,0.08745 0.167939,0.159007 0.373198,0.159007 0.260409,0 0.35338,-0.0952 0.307622,-0.315 z M 15.84,21.757961 C 15.84,21.671082 15.678,21.6 15.48,21.6 c -0.345899,0 -0.487989,0.352012 -0.241562,0.598439 C 15.374704,22.334704 15.84,21.994002 15.84,21.757961 Z M 24.435085,22.005 C 24.479026,21.873028 24.354956,21.78 24.134999,21.78 23.9139,21.78 23.76,21.896224 23.76,22.063198 c 0,0.330818 0.561679,0.282396 0.675085,-0.0582 z M 39.414487,21.69 c 0,-0.099 -0.07852,-0.0585 -0.174487,0.09 -0.09597,0.1485 -0.174487,0.351 -0.174487,0.45 0,0.099 0.07852,0.0585 0.174487,-0.09 0.09597,-0.1485 0.174487,-0.351 0.174487,-0.45 z m -20.74866,0.141345 c 0.501847,-0.192577 0.09829,-0.500517 -0.59283,-0.452367 -1.464813,0.102051 -1.86241,0.219168 -1.748836,0.515137 0.08805,0.229446 0.289471,0.258175 1.100029,0.156902 0.545736,-0.06818 1.104472,-0.167038 1.241637,-0.219672 z M 21.78,21.450001 c 0,-0.234375 -0.213979,-0.390248 -0.388042,-0.282671 C 21.205798,21.282385 21.366317,21.6 21.610624,21.6 21.703781,21.6 21.78,21.5325 21.78,21.450001 Z m 16.64134,-0.492047 c 0.250996,-0.383068 0.262762,-0.510222 0.06883,-0.743891 -0.207058,-0.249491 -0.247707,-0.23261 -0.3541,0.147046 -0.140418,0.501075 -0.18613,1.058891 -0.08678,1.058891 0.03811,0 0.205533,-0.207922 0.372042,-0.462046 z M 19.290321,20.658321 c -0.133573,-0.133573 -0.156998,-0.0633 -0.0787,0.236108 0.06365,0.243396 0.145242,0.32499 0.190179,0.190179 0.04329,-0.129859 -0.0069,-0.321689 -0.111476,-0.426287 z M 39.96,20.936601 C 39.96,20.757019 39.203471,19.98 39.028624,19.98 c -0.284493,0 -0.145971,0.394508 0.256376,0.730159 0.422174,0.35219 0.675,0.437006 0.675,0.226442 z M 18.18,19.598755 c 0,-0.099 -0.081,-0.129941 -0.18,-0.06875 -0.099,0.06119 -0.18,0.192245 -0.18,0.291245 0,0.099 0.081,0.129941 0.18,0.06875 0.099,-0.06119 0.18,-0.192245 0.18,-0.291245 z m 2.16,-0.261612 C 20.34,19.008846 19.918103,18.54 19.62268,18.54 c -0.124943,0 -0.08035,0.207691 0.115953,0.54 0.349176,0.591109 0.601367,0.698945 0.601367,0.257143 z m 26.1,4.994325 c 0,-0.104175 0.38475,-0.239296 0.855,-0.300266 0.47025,-0.06097 1.032286,-0.147232 1.248968,-0.191691 0.216684,-0.04446 0.440139,-0.0061 0.496571,0.08518 0.106161,0.171768 -0.281613,0.278163 -1.745539,0.478928 -0.552602,0.07578 -0.855,0.05026 -0.855,-0.07215 z M 46.159556,23.743102 C 46.104115,23.653395 46.266034,23.58 46.519376,23.58 c 0.551529,0 0.596083,0.102589 0.100804,0.232108 -0.197903,0.05175 -0.405182,0.0207 -0.460624,-0.06901 z M 47.66625,23.45704 c 0.129937,-0.052 0.285188,-0.0456 0.345001,0.0142 0.05981,0.05981 -0.0465,0.102355 -0.23625,0.09454 -0.209691,-0.0086 -0.252342,-0.05129 -0.108751,-0.108749 z M 31.77,21.78 c -0.06119,-0.099 0.06031,-0.18 0.27,-0.18 0.209686,0 0.331186,0.081 0.27,0.18 -0.06119,0.099 -0.182686,0.18 -0.27,0.18 -0.08731,0 -0.208814,-0.081 -0.27,-0.18 z m -1.92375,-0.12296 c 0.129937,-0.052 0.285187,-0.0456 0.345001,0.0142 0.05981,0.05981 -0.0465,0.102355 -0.23625,0.09454 -0.209691,-0.0086 -0.252342,-0.05129 -0.108751,-0.108749 z M 14.263223,20.835 c 0.07436,-0.228497 1.549426,-1.127335 1.656439,-1.009357 0.03211,0.0354 -0.01057,0.246607 -0.09484,0.469357 -0.103295,0.273037 -0.301736,0.405 -0.60902,0.405 -0.25069,0 -0.4558,0.081 -0.4558,0.18 0,0.099 -0.12825,0.18 -0.285,0.18 -0.15675,0 -0.25205,-0.10125 -0.211777,-0.225 z M 39.02625,18.59704 c 0.129937,-0.052 0.285187,-0.0456 0.345001,0.0142 0.05981,0.05981 -0.0465,0.102355 -0.23625,0.09454 -0.209691,-0.0086 -0.252342,-0.05129 -0.108751,-0.108749 z"
       style="fill:#44463a" />
    <path
       id="path3371"
       d="m 24.885,36.955921 c 0.17325,-0.04527 0.315,-0.162159 0.315,-0.259742 0,-0.09758 -0.081,-0.127365 -0.18,-0.06618 -0.099,0.06119 -0.18,0.02547 -0.18,-0.07938 0,-0.104843 -0.125525,-0.190624 -0.278944,-0.190624 -0.21022,0 -0.236549,-0.07576 -0.106864,-0.307489 0.124992,-0.223351 0.0905,-0.371109 -0.126056,-0.54 -0.274623,-0.214174 -0.269813,-0.254365 0.06099,-0.509619 0.308186,-0.237802 0.320951,-0.301239 0.09,-0.447243 C 24.123323,34.330716 23.58,34.333346 23.58,34.56 c 0,0.099 -0.081,0.18 -0.18,0.18 -0.099,0 -0.17876,-0.18225 -0.177244,-0.405 0.0016,-0.235015 0.05826,-0.320877 0.135,-0.204568 0.183906,0.27873 0.666945,0.04635 0.697244,-0.335432 0.02717,-0.342371 -0.206251,-0.42422 -0.385,-0.135 -0.137911,0.223144 -0.45,0.236893 -0.45,0.01982 0,-0.0881 0.3645,-0.331513 0.81,-0.540923 0.4455,-0.209408 0.81,-0.456548 0.81,-0.5492 0,-0.305978 -0.346522,-0.389579 -0.740597,-0.178677 -0.309665,0.165728 -0.337682,0.239564 -0.138721,0.365568 0.185999,0.117797 0.146462,0.158596 -0.155682,0.160653 -0.254716,0.0018 -0.405,-0.105611 -0.405,-0.289283 0,-0.226588 -0.05516,-0.246262 -0.246118,-0.08778 -0.187201,0.155364 -0.3002,0.139095 -0.472041,-0.06796 -0.19546,-0.235515 -0.119802,-0.27509 0.56112,-0.293515 1.096029,-0.02966 1.861405,-0.215368 1.766833,-0.428704 -0.04544,-0.102499 -0.564178,-0.152671 -1.204794,-0.116525 -1.063987,0.06003 -1.504355,-0.149387 -0.845651,-0.402156 0.160186,-0.06147 0.232438,-0.03129 0.169377,0.07074 -0.179559,0.290533 0.101829,0.205961 0.930459,-0.279648 0.807723,-0.473357 0.941992,-0.748044 0.555815,-1.137078 -0.180405,-0.181739 -0.162567,-0.202894 0.09,-0.106742 0.17325,0.06596 0.315,0.192256 0.315,0.280665 0,0.08841 0.07292,0.160742 0.162047,0.160742 0.08912,0 0.257965,-0.399834 0.375199,-0.888518 0.154888,-0.645647 0.283358,-0.861579 0.469994,-0.789959 0.176417,0.0677 0.2231,0.01062 0.149084,-0.182253 -0.05927,-0.154447 -0.01692,-0.386217 0.0941,-0.515041 0.111021,-0.128826 0.308306,-0.388354 0.43841,-0.576729 0.340515,-0.49302 0.684374,-0.218276 0.461263,0.368551 -0.108049,0.284193 -0.114117,0.687968 -0.0157,1.044427 0.131178,0.47509 0.101595,0.617877 -0.162144,0.782584 -0.325183,0.20308 -0.307388,0.786188 0.03753,1.229953 0.103531,0.1332 0.01721,0.248085 -0.250997,0.334078 -0.323761,0.103802 -0.347114,0.147823 -0.112268,0.211628 0.163091,0.04431 0.338366,0.240548 0.3895,0.436086 0.05113,0.195539 0.160697,0.332951 0.243473,0.305359 0.175293,-0.05843 0.2405,0.09054 0.2405,0.549418 0,0.18127 -0.2025,0.437958 -0.45,0.570416 -0.2475,0.132458 -0.45,0.348646 -0.45,0.480416 0,0.318854 -0.32135,0.303948 -0.655715,-0.03042 -0.239999,-0.239999 -0.21857,-0.27 0.192858,-0.27 0.275628,0 0.462857,-0.101426 0.462857,-0.250742 0,-0.137909 0.1215,-0.297365 0.27,-0.354351 0.1485,-0.05698 0.27,-0.18715 0.27,-0.289259 0,-0.319293 -0.526327,-0.202656 -0.757757,0.167922 -0.155282,0.248647 -0.342691,0.32298 -0.631526,0.250487 -0.520074,-0.130531 -0.559723,0.321613 -0.06874,0.78393 0.292223,0.275164 0.320587,0.452952 0.194967,1.222013 -0.08085,0.495 -0.204763,1.046581 -0.275353,1.225739 -0.09499,0.241063 -0.02869,0.351797 0.255031,0.425993 0.210857,0.05514 0.383378,0.16236 0.383378,0.238268 0,0.177899 -0.682648,0.360299 -1.26,0.336661 -0.302891,-0.0124 -0.347024,-0.04533 -0.135,-0.10074 z M 25.2,36 c 0,-0.099 -0.081,-0.18 -0.18,-0.18 -0.099,0 -0.18,0.081 -0.18,0.18 0,0.099 0.081,0.18 0.18,0.18 0.099,0 0.18,-0.081 0.18,-0.18 z m -0.285021,-1.015763 c 0.165366,-0.430937 0.03647,-0.46403 -0.218318,-0.05605 C 24.575819,35.121685 24.54997,35.28 24.639217,35.28 c 0.08925,0 0.21334,-0.133094 0.275762,-0.295763 z M 28.08,34.860001 c 0,-0.462001 -0.01093,-0.89781 -0.02426,-0.968465 -0.01334,-0.07065 0.118569,-0.212404 0.293142,-0.315 0.233567,-0.137265 0.339995,-0.124198 0.40293,0.04947 0.06609,0.182367 0.163102,0.165798 0.426858,-0.0729 C 29.45122,33.306449 29.52,33.296171 29.52,33.502099 c 0,0.141841 -0.162,0.396603 -0.36,0.566136 -0.198,0.169533 -0.36,0.430534 -0.36,0.580003 0,0.14947 -0.09049,0.251512 -0.201089,0.226762 -0.110599,-0.02475 -0.226022,0.104171 -0.256494,0.286493 C 28.228646,35.842207 28.08,35.671424 28.08,34.860001 Z M 28.62,33.93 c 0,-0.1485 -0.081,-0.27 -0.18,-0.27 -0.099,0 -0.18,0.1215 -0.18,0.27 0,0.1485 0.081,0.27 0.18,0.27 0.099,0 0.18,-0.1215 0.18,-0.27 z m -7.569283,0.796964 c -0.558622,-0.784512 -0.928801,-2.099469 -0.707461,-2.51305 0.118582,-0.221571 0.110623,-0.497212 -0.02417,-0.837129 L 20.118114,30.87 19.894909,31.59 c -0.175612,0.566474 -0.252017,0.652833 -0.358316,0.405 -0.07431,-0.17325 -0.268192,-0.31624 -0.430851,-0.317756 -0.235644,-0.0022 -0.24588,-0.03435 -0.05037,-0.158211 0.207157,-0.131245 0.207157,-0.17073 0,-0.253541 -0.172895,-0.06911 -0.186642,-0.142005 -0.04654,-0.246789 0.144557,-0.108115 0.140705,-0.319084 -0.01411,-0.772916 -0.197544,-0.579094 -0.227784,-0.59861 -0.418352,-0.27 -0.19978,0.344497 -0.205565,0.343514 -0.210888,-0.03579 -0.003,-0.214498 -0.06622,-0.423973 -0.140474,-0.465498 -0.07425,-0.04152 -0.04167,-0.05386 0.0724,-0.0274 0.364822,0.0846 0.427446,-0.153572 0.104801,-0.398576 -0.28656,-0.2176 -0.277553,-0.237544 0.109649,-0.242798 0.27011,-0.0037 0.454926,0.120755 0.513801,0.345893 0.05057,0.193391 0.27194,0.469552 0.491927,0.613692 0.392227,0.256997 0.399435,0.247571 0.372044,-0.486617 L 19.86169,28.53 l -1.785845,0.01123 c -0.982216,0.0062 -2.009732,0.06876 -2.283369,0.139063 -0.484491,0.124482 -0.490497,0.141413 -0.229324,0.646466 0.147508,0.28525 0.735891,0.850421 1.307517,1.255937 l 1.039322,0.737302 -0.694254,0 c -0.537447,0 -0.671277,-0.05987 -0.592528,-0.265091 0.07415,-0.19322 -0.103635,-0.315463 -0.655742,-0.450888 -1.011498,-0.248106 -2.238418,-0.876573 -2.36738,-1.212642 -0.07241,-0.18869 -0.02122,-0.239632 0.167872,-0.16707 0.160053,0.06142 0.272041,0.0042 0.272041,-0.138964 0,-0.307949 -0.67394,-0.497365 -0.787159,-0.221236 -0.04643,0.11324 -0.09082,0.06129 -0.09863,-0.115441 -0.01223,-0.276545 -0.07066,-0.291255 -0.41921,-0.105531 -0.36724,0.195682 -0.381967,0.187881 -0.15796,-0.08367 0.135872,-0.164709 0.196622,-0.309595 0.135,-0.32197 -0.06162,-0.01237 -0.18629,-0.03262 -0.27704,-0.045 -0.333253,-0.04544 -0.418306,-0.287181 -0.138781,-0.394445 0.226731,-0.08701 0.241735,-0.16023 0.07076,-0.345342 -0.322512,-0.349184 -0.443676,-0.17887 -0.38639,0.543124 0.04136,0.521225 -0.0066,0.633996 -0.249702,0.587178 C 11.5654,28.551146 11.43,28.404679 11.43,28.257534 c 0,-0.147143 -0.081,-0.329823 -0.18,-0.405954 -0.111227,-0.08553 -0.0465,-0.240273 0.169403,-0.405 0.345871,-0.263885 0.345871,-0.266728 0,-0.2812 -0.550369,-0.02303 0.521198,-0.453344 2.035597,-0.817446 0.71775,-0.172566 1.305,-0.386383 1.305,-0.475148 0,-0.08877 -0.243,-0.108018 -0.54,-0.04279 -0.310693,0.06824 -0.54,0.04438 -0.54,-0.05618 0,-0.09613 -0.194975,-0.223724 -0.433278,-0.283534 -0.238303,-0.05981 -0.582553,-0.165309 -0.765,-0.234441 -0.303311,-0.11493 -0.307244,-0.10098 -0.04592,0.162885 0.157188,0.158721 0.481188,0.325408 0.72,0.370417 0.371586,0.07003 0.355031,0.08537 -0.114797,0.106346 -0.30195,0.01348 -0.656325,-0.07674 -0.7875,-0.200488 -0.190826,-0.180025 -0.255066,-0.1798 -0.321374,0.0011 -0.04558,0.124367 -0.166011,0.17474 -0.267625,0.11194 -0.101612,-0.0628 -0.250521,-0.0078 -0.330907,0.122303 -0.104539,0.16915 -0.21413,0.182783 -0.384875,0.04788 C 10.59976,25.702501 9.6624682,25.501246 9.805541,25.732744 9.8760186,25.846821 9.7060154,25.92 9.3706231,25.92 c -0.551313,0 -0.7261186,-0.230292 -0.3508524,-0.462218 0.1098738,-0.06791 0.7781238,-0.134658 1.4850003,-0.148338 0.706876,-0.01368 1.396352,-0.09528 1.532169,-0.181341 0.135817,-0.08606 0.621817,-0.171022 1.08,-0.18881 0.458183,-0.01778 0.999424,-0.122754 1.202759,-0.233258 0.211835,-0.115124 0.473878,-0.13653 0.613677,-0.05013 0.134188,0.08293 0.332323,0.121611 0.440301,0.08596 0.107978,-0.03566 0.439323,-0.105964 0.736323,-0.15624 1.56693,-0.265242 2.753572,-0.980946 2.025,-1.221348 -0.465656,-0.153648 -2.85744,0.01026 -3.101155,0.212535 -0.139716,0.115954 -0.440738,0.184276 -0.668937,0.151826 -0.328686,-0.04674 -0.407866,-0.161829 -0.38102,-0.553819 0.04421,-0.645526 -0.262654,-0.645359 -0.336932,1.8e-4 -0.05276,0.458525 -0.123273,0.498651 -0.956956,0.544533 -0.734075,0.0404 -3.5129009,0.443316 -5.85,0.848219 -0.2475,0.04288 -0.3482453,0.03376 -0.2238784,-0.02027 0.1243667,-0.05403 0.1803364,-0.172314 0.1243769,-0.262857 -0.05596,-0.09054 0.1257858,-0.171377 0.4038784,-0.179626 0.5762024,-0.0171 0.7844463,-0.04485 2.3770964,-0.316863 0.6333107,-0.108164 1.2121297,-0.159172 1.2862657,-0.113355 0.07414,0.04582 0.365973,-0.03726 0.648527,-0.18463 0.282554,-0.147364 0.704765,-0.268434 0.938247,-0.269044 0.360926,-9e-4 0.407867,-0.06743 0.313378,-0.443907 -0.142255,-0.566791 0.443602,-0.967127 0.795248,-0.54342 0.121518,0.146421 0.307052,0.266218 0.4123,0.266218 0.105247,0 0.385502,0.18225 0.622789,0.405 0.237287,0.22275 0.415165,0.324 0.395286,0.225 -0.119139,-0.593301 0.02933,-0.927766 0.405869,-0.914292 0.243592,0.0087 0.424275,-0.108581 0.463198,-0.300708 0.046,-0.227061 -0.05155,-0.315 -0.349434,-0.315 -0.796227,0 0.219777,-0.472644 1.071196,-0.498319 C 17.499507,21.072272 18,20.916301 18,20.64181 c 0,-0.117661 0.243,-0.321493 0.54,-0.452958 0.358265,-0.158583 0.540927,-0.370249 0.542756,-0.62894 0.0042,-0.593317 0.252974,-0.916308 0.480191,-0.623431 0.09964,0.128435 0.2317,0.375269 0.293461,0.548519 0.14136,0.396536 0.410283,0.405666 0.558674,0.01897 0.06388,-0.166458 -0.01869,-0.442207 -0.18864,-0.63 C 20.060212,18.690286 20.012978,18.54 20.12148,18.54 c 0.1085,0 0.251392,0.08756 0.317534,0.194585 0.06614,0.107021 0.313924,0.145979 0.550622,0.08657 0.312349,-0.07839 0.430364,-0.03303 0.430364,0.165415 0,0.245727 -0.113753,0.306853 -0.47882,0.257301 -0.194882,-0.02645 -0.449562,0.544581 -0.329513,0.738824 0.06113,0.09892 -0.014,0.227871 -0.166961,0.286568 -0.212522,0.08155 -0.234945,0.187383 -0.09508,0.448729 0.239458,0.447429 0.53037,0.43756 0.53037,-0.018 0,-0.252605 0.12082,-0.360733 0.405,-0.362457 0.22275,-0.0014 0.6075,-0.04888 0.855,-0.105615 0.352877,-0.08089 0.391727,-0.06153 0.18,0.0897 -0.1485,0.106072 -0.481612,0.194099 -0.740248,0.195615 -0.401163,0.0024 -0.462564,0.07274 -0.417955,0.479126 0.05412,0.493034 0.394609,0.831819 0.66688,0.663546 0.08573,-0.05298 0.114398,-0.204391 0.06372,-0.336468 -0.07543,-0.196566 0.06115,-0.193615 0.752727,0.01625 0.464685,0.141017 0.865129,0.257272 0.889879,0.258345 0.02475,0.0011 0.045,0.157197 0.045,0.346948 0,0.189749 0.10125,0.386082 0.225,0.436297 0.170262,0.06909 0.160583,0.136038 -0.03979,0.275212 -0.145633,0.101153 -0.207087,0.241618 -0.136563,0.312142 0.07052,0.07052 0.02768,0.252477 -0.09521,0.404339 -0.15385,0.190122 -0.157607,0.236637 -0.01206,0.149359 0.118974,-0.07135 0.237004,-0.0098 0.27,0.140706 0.04378,0.199741 0.126988,0.219618 0.328622,0.0785 0.204187,-0.142904 0.214882,-0.21131 0.04388,-0.280635 -0.124368,-0.05042 -0.179954,-0.166374 -0.123524,-0.257677 0.100032,-0.161854 0.619645,0.232697 0.619645,0.470506 0,0.06571 0.152899,0.313846 0.339777,0.551422 l 0.339777,0.431957 0.139743,-0.853565 c 0.07686,-0.469462 0.15359,-1.051609 0.170514,-1.293662 0.01692,-0.242055 0.125195,-0.471573 0.240602,-0.510041 0.127448,-0.04248 0.166887,0.04197 0.100451,0.215097 -0.105192,0.274125 0.168727,0.37839 0.784136,0.298477 0.12375,-0.01607 0.225,0.09105 0.225,0.23805 0,0.428957 0.203159,0.454056 1.625033,0.200769 2.090135,-0.37233 3.395484,-0.478242 2.98532,-0.242223 -0.186808,0.107495 -0.956308,0.267407 -1.71,0.355364 -0.753695,0.08795 -1.518581,0.184674 -1.699748,0.214929 -0.522028,0.08718 -0.666545,0.494082 -0.332679,0.936698 0.241023,0.319532 0.332391,0.348242 0.479889,0.150797 0.215112,-0.287957 1.401483,-0.528217 3.503014,-0.709423 1.127765,-0.09724 1.616243,-0.22099 1.89,-0.478804 0.44275,-0.416963 1.518055,-0.893889 1.725856,-0.765463 0.08164,0.05046 0.199318,0.0094 0.261501,-0.09119 C 35.796679,22.21211 35.588723,22.14 35.200624,22.14 34.848281,22.14 34.56,22.061542 34.56,21.965648 c 0,-0.09589 -0.126331,-0.125872 -0.280739,-0.06662 -0.1888,0.07245 -0.31444,-0.02116 -0.383655,-0.285831 -0.0665,-0.254283 -0.197189,-0.357383 -0.369303,-0.291338 -0.1879,0.07211 -0.233964,0.01773 -0.156344,-0.184541 0.06052,-0.15772 0.110041,-0.320638 0.110041,-0.362041 0,-0.0414 0.171918,-0.07528 0.382039,-0.07528 0.299194,0 0.338566,-0.05238 0.181563,-0.241562 -0.110263,-0.132858 -0.142901,-0.29914 -0.07253,-0.369513 0.07037,-0.07037 -0.01219,-0.07417 -0.183485,-0.0084 -0.239738,0.092 -0.298701,0.03607 -0.256124,-0.24293 0.03042,-0.199342 0.162706,-0.491841 0.293964,-0.649996 C 33.98384,18.996683 33.99615,18.9 33.862039,18.9 33.750918,18.9 33.66,18.832766 33.66,18.750593 c 0,-0.08217 0.287842,-0.139857 0.63965,-0.128184 0.351806,0.01166 0.726224,-0.08309 0.832039,-0.210592 C 35.401862,18.086278 36.18,18.11462 36.18,18.45 c 0,0.1485 0.116042,0.27 0.25787,0.27 0.141829,0 0.310361,0.165386 0.374517,0.367522 0.07771,0.244854 0.219819,0.334777 0.425759,0.269415 0.520384,-0.165164 0.834351,0.992677 0.552192,2.036364 -0.124409,0.460184 -0.30455,0.937949 -0.40031,1.061699 -0.09576,0.12375 -0.10344,0.221963 -0.01706,0.218254 0.270803,-0.01163 1.35099,-2.042228 1.263779,-2.375721 -0.121635,-0.465135 0.0019,-0.387791 0.283451,0.177467 0.502729,1.009298 -0.298609,2.657169 -1.21972,2.508233 -0.203241,-0.03286 -0.476852,0.05514 -0.608025,0.19556 -0.138442,0.148203 -0.452475,0.223902 -0.748564,0.180446 -0.306665,-0.04501 -0.545057,0.01631 -0.597807,0.153783 -0.05829,0.151891 0.01492,0.191264 0.218093,0.11729 0.262775,-0.09568 0.256997,-0.05576 -0.04103,0.283547 -0.190773,0.217195 -0.433773,0.362998 -0.54,0.324009 -0.106225,-0.03899 -0.314638,0.03314 -0.463138,0.160284 -0.1485,0.127147 -0.5535,0.304564 -0.9,0.394258 -0.612737,0.158614 -0.63,0.187394 -0.63,1.050336 0,0.547385 -0.09672,0.962982 -0.252501,1.084948 -0.138873,0.108731 -0.199413,0.283586 -0.13453,0.388568 0.07463,0.120751 -0.336128,0.272028 -1.118045,0.411764 -1.13868,0.203494 -1.264131,0.194157 -1.593108,-0.118569 C 30.095417,27.422755 29.511403,26.946 28.994011,26.55 28.476621,26.154 27.97546,25.68825 27.880319,25.515 27.675787,25.142553 27.36,25.097924 27.36,25.441463 c 0,0.184043 -0.181921,0.211194 -0.765,0.114172 -0.42075,-0.07001 -0.920038,-0.192434 -1.109527,-0.272052 -0.232398,-0.09765 -0.30507,-0.08091 -0.223287,0.05141 0.06668,0.107896 -0.08203,0.356069 -0.330471,0.551495 C 24.683272,26.081917 24.48,26.276436 24.48,26.318756 c 0,0.04232 0.483275,0.06544 1.073945,0.05139 0.964175,-0.02294 1.03746,0 0.716988,0.224465 -0.196326,0.137513 -0.31032,0.32548 -0.253321,0.417707 0.057,0.09223 -0.0265,0.167684 -0.18556,0.167684 -0.322895,0 -1.751643,1.372401 -2.434045,2.338049 -0.345025,0.488235 -0.45725,0.55836 -0.504117,0.315 C 22.860733,29.660872 22.748625,29.52 22.644761,29.52 c -0.113821,0 -0.09731,-0.110293 0.04157,-0.277628 0.1582,-0.19062 0.172261,-0.33578 0.04487,-0.463176 -0.31673,-0.31673 -0.973203,0.94577 -0.83947,1.614436 0.06517,0.325829 0.191104,0.5117 0.300778,0.443918 0.124976,-0.07724 0.137115,-3.6e-4 0.03596,0.227923 -0.08399,0.189489 -0.158508,0.567277 -0.165588,0.839527 -0.01543,0.592931 -0.238645,0.645925 -0.439032,0.104225 -0.208453,-0.563499 -0.401127,-0.155089 -0.513979,1.089472 -0.06853,0.755716 -0.01391,1.188706 0.202798,1.607776 0.376247,0.72758 0.248654,0.737561 -0.261945,0.02049 z m 0.631037,-5.682848 c 0.67835,-0.888408 0.792837,-1.19214 0.391277,-1.038046 -0.334827,0.128484 -1.38969,1.617272 -1.247,1.759959 0.172652,0.172653 0.172708,0.172606 0.855723,-0.721913 z m 1.59982,0.215051 c 0.0669,-0.174333 0.01359,-0.22764 -0.160741,-0.160741 C 22.836121,29.207678 22.76197,29.52 23.020742,29.52 c 0.08841,0 0.205783,-0.117374 0.260832,-0.260833 z M 22.995085,26.505 C 23.039026,26.373028 22.914956,26.28 22.694999,26.28 22.4739,26.28 22.32,26.396224 22.32,26.563198 c 0,0.330818 0.561679,0.282396 0.675085,-0.0582 z M 24.84,25.360742 C 24.84,25.272335 24.678,25.2 24.48,25.2 c -0.350854,0 -0.46908,0.190921 -0.252401,0.407597 C 24.371798,25.751799 24.84,25.563069 24.84,25.360742 Z M 37.08,22.23 c 0,-0.1485 -0.081,-0.27 -0.18,-0.27 -0.099,0 -0.18,0.1215 -0.18,0.27 0,0.1485 0.081,0.27 0.18,0.27 0.099,0 0.18,-0.1215 0.18,-0.27 z M 17.760256,22.121523 C 18.716908,21.954929 18.9,21.864812 18.9,21.560553 c 0,-0.340034 -0.07527,-0.354641 -1.215,-0.235784 -1.336851,0.139416 -1.553135,0.248231 -1.381643,0.695131 0.13663,0.356053 0.03611,0.349042 1.456899,0.101623 z M 19.62,20.992039 c 0,-0.286837 -0.500265,-0.751773 -0.648934,-0.603106 -0.137749,0.13775 0.260593,0.851067 0.475266,0.851067 0.09552,0 0.173668,-0.111582 0.173668,-0.247961 z m 3.24,14.097337 c 0,-0.104842 0.081,-0.140562 0.18,-0.07938 0.099,0.06119 0.18,0.146966 0.18,0.190624 0,0.04366 -0.081,0.07938 -0.18,0.07938 -0.099,0 -0.18,-0.08578 -0.18,-0.190624 z m 4.012506,-0.702505 c 0.110678,-0.293222 0.229084,-0.50528 0.263124,-0.47124 0.112244,0.112244 -0.171556,1.004369 -0.319507,1.004369 -0.07967,0 -0.0543,-0.239909 0.05638,-0.533129 z M 22.77,33.84 c 0.06119,-0.099 0.146966,-0.18 0.190624,-0.18 0.04366,0 0.07938,0.081 0.07938,0.18 0,0.099 -0.08578,0.18 -0.190624,0.18 -0.104842,0 -0.140562,-0.081 -0.07938,-0.18 z m 6.087202,-0.657202 c 0.06446,-0.06446 -0.02329,-0.23198 -0.194999,-0.372263 -0.283371,-0.231507 -0.267509,-0.245556 0.171765,-0.152138 0.266184,0.05661 0.534215,0.02163 0.595623,-0.07774 0.149183,-0.241382 0.450409,-0.230553 0.450409,0.01618 0,0.108268 -0.162,0.239214 -0.36,0.290993 -0.198,0.05178 -0.36,0.165695 -0.36,0.253148 0,0.08745 -0.0945,0.159007 -0.210001,0.159007 -0.115498,0 -0.157258,-0.05274 -0.0928,-0.117202 z M 28.62,31.14 c 0,-0.099 0.081,-0.18 0.18,-0.18 0.099,0 0.18,0.081 0.18,0.18 0,0.099 -0.081,0.18 -0.18,0.18 -0.099,0 -0.18,-0.081 -0.18,-0.18 z m 0.660001,-0.300001 C 29.107975,30.667975 29.13203,30.42 29.320742,30.42 c 0.08841,0 0.207365,0.1215 0.264351,0.27 0.105286,0.27437 -0.08645,0.368638 -0.305092,0.149999 z M 18.194999,30.729065 c 0.04125,-0.02801 0.218605,-0.16097 0.394121,-0.295459 0.277827,-0.212884 0.30445,-0.206292 0.205742,0.05093 -0.06236,0.162502 -0.239711,0.295459 -0.394121,0.295459 -0.154407,0 -0.24699,-0.02292 -0.205742,-0.05094 z M 22.5,30.621245 c 0,-0.099 0.081,-0.230059 0.18,-0.291245 0.099,-0.06119 0.18,-0.03024 0.18,0.06876 0,0.099 -0.081,0.230059 -0.18,0.291245 -0.099,0.06119 -0.18,0.03024 -0.18,-0.06876 z M 27.72,30.42 c -0.230742,-0.149117 -0.224199,-0.174888 0.045,-0.177244 0.17325,-0.0014 0.315,0.07824 0.315,0.177244 0,0.21953 -0.0203,0.21953 -0.36,0 z m 1.740001,-0.480001 c -0.066,-0.066 -0.120001,-0.203698 -0.120001,-0.306 0,-0.112788 0.08384,-0.10216 0.212999,0.027 0.117152,0.117152 0.171152,0.254852 0.120001,0.306 -0.05115,0.05115 -0.147001,0.039 -0.212999,-0.027 z m 1.817046,-0.686856 C 30.956875,28.280608 30.800565,28.380082 33.12,28.08032 c 0.9405,-0.12155 1.766396,-0.310831 1.835325,-0.420627 0.06961,-0.110884 -0.116042,-0.401917 -0.417614,-0.654662 C 33.953866,26.515719 33.962344,25.92 34.553155,25.92 c 0.359051,0 1.266849,1.014732 1.266849,1.416076 0,0.199651 0.104709,0.168307 0.416601,-0.1247 0.47527,-0.446494 0.747181,-0.509341 0.605426,-0.139932 -0.137475,0.358254 0.888961,0.476102 1.6898,0.194011 0.353007,-0.124342 1.082007,-0.269507 1.62,-0.322585 1.281012,-0.126387 2.141824,-0.444301 1.790667,-0.661327 -0.140418,-0.08678 -0.32898,-0.112256 -0.419025,-0.0566 -0.09005,0.05565 -0.228312,-0.0033 -0.307258,-0.131069 -0.113307,-0.183333 -0.206561,-0.169234 -0.442734,0.06694 C 40.44323,26.491055 39.96,26.56186 39.96,26.28 c 0,-0.099 0.164542,-0.18 0.365648,-0.18 0.534264,0 0.655915,-0.510959 0.198015,-0.831686 C 40.312649,25.120514 40.14,24.861166 40.14,24.691984 c 0,-0.446916 0.654476,-1.569778 0.884196,-1.516984 0.107692,0.02475 0.175554,-0.05625 0.150804,-0.18 -0.02874,-0.143703 0.117592,-0.203557 0.405,-0.165652 0.2475,0.03264 0.750276,0.05501 1.117282,0.0497 0.367003,-0.0053 0.716034,0.06924 0.775623,0.165652 0.05959,0.09642 0.285811,0.177876 0.502719,0.181024 0.364933,0.0053 0.371008,0.02347 0.08137,0.243385 -0.292143,0.22182 -0.286146,0.250618 0.09,0.432092 0.221652,0.10694 0.301754,0.199917 0.178004,0.206617 -0.359181,0.01945 -0.260113,0.336778 0.14531,0.465454 0.514219,0.163206 0.765656,0.890894 0.482498,1.396403 C 44.55461,26.680563 44.1,27.233888 44.1,27.007666 c 0,-0.121485 0.162,-0.426834 0.36,-0.678549 C 44.831338,25.857036 44.951828,25.02 44.648446,25.02 c -0.158213,0 -0.347899,0.359185 -0.879291,1.665 -0.11079,0.27225 -0.284174,0.495 -0.385296,0.495 -0.264794,0 -0.226154,0.291991 0.07902,0.59717 0.230511,0.23051 0.04764,0.299151 -1.485,0.557397 -0.961335,0.161984 -2.193383,0.3807 -2.737883,0.486034 -0.5445,0.105336 -2.2455,0.391954 -3.78,0.63693 -1.5345,0.244976 -3.041194,0.488203 -3.348209,0.540506 -0.530598,0.09039 -0.571889,0.05354 -0.834744,-0.744894 z m 3.242336,-0.279675 c 1.304953,-0.256547 1.784525,-0.641884 0.558398,-0.44867 -0.666114,0.104965 -1.894556,0.437938 -2.110806,0.572139 -0.03466,0.02151 -0.0043,0.134149 0.0675,0.250304 0.08399,0.1359 0.170633,0.146497 0.243025,0.02973 0.06187,-0.09981 0.620723,-0.281382 1.241883,-0.403499 z m 2.4426,-0.411486 c 0.06013,0.06013 0.212524,0.02699 0.338666,-0.07362 0.126144,-0.10062 0.634351,-0.239476 1.129351,-0.308569 1.400639,-0.195503 1.71,-0.299116 1.71,-0.572731 0,-0.185682 -0.13302,-0.222122 -0.495,-0.135599 -0.27225,0.06507 -0.576,0.167866 -0.675,0.228429 -0.17908,0.109551 -0.270592,0.122616 -1.215,0.173462 -0.276109,0.01487 -0.495,0.131548 -0.495,0.263864 0,0.160549 -0.203603,0.221177 -0.63,0.187598 -0.3465,-0.02729 -0.63,0.01447 -0.63,0.09279 0,0.279891 0.232429,0.367011 0.54,0.202403 0.171967,-0.09203 0.361859,-0.118141 0.421983,-0.05802 z M 42.66,26.55 c 0,-0.1485 -0.081,-0.27 -0.18,-0.27 -0.099,0 -0.18,0.1215 -0.18,0.27 0,0.1485 0.081,0.27 0.18,0.27 0.099,0 0.18,-0.1215 0.18,-0.27 z m -23.295069,2.634158 c -0.07754,-0.12546 -0.09237,-0.27672 -0.03296,-0.336134 0.161094,-0.161093 0.336738,0.07583 0.24973,0.336861 -0.06097,0.182911 -0.103369,0.182768 -0.216774,-7.2e-4 z M 15.66,28.98 c 0,-0.099 0.081,-0.18 0.18,-0.18 0.099,0 0.18,0.081 0.18,0.18 0,0.099 -0.081,0.18 -0.18,0.18 -0.099,0 -0.18,-0.081 -0.18,-0.18 z m -5.04,-0.550624 c 0,-0.104842 0.081,-0.140562 0.18,-0.07938 0.099,0.06119 0.18,0.146966 0.18,0.190624 0,0.04366 -0.081,0.07938 -0.18,0.07938 -0.099,0 -0.18,-0.08578 -0.18,-0.190624 z m 34.74,-0.657721 c 0,-0.312561 0.785448,-1.491655 0.993658,-1.491655 0.337743,0 0.336821,-0.179275 -0.0034,-0.66503 -0.312682,-0.446416 -0.03913,-0.658902 0.494757,-0.384314 0.210812,0.108425 0.315,0.09393 0.315,-0.04384 0,-0.129688 0.166491,-0.164061 0.45,-0.09291 0.259497,0.06513 0.45,0.03529 0.45,-0.07049 0,-0.100886 0.18225,-0.174033 0.405,-0.162549 0.30477,0.01571 0.327043,0.04125 0.09,0.103199 -0.384815,0.100563 -0.418934,0.415921 -0.045,0.415921 0.1485,0 0.27,0.0972 0.27,0.216 0,0.167999 0.048,0.167999 0.216,0 0.306059,-0.306059 0.5031,-0.26777 0.509473,0.099 0.0052,0.300001 0.0142,0.300001 0.188945,0 0.224818,-0.38599 0.525582,-0.411741 0.525582,-0.045 0,0.1485 -0.081,0.27 -0.18,0.27 -0.099,0 -0.18,0.081 -0.18,0.18 0,0.322526 0.332748,0.189427 0.45,-0.18 0.191574,-0.603598 0.359064,-0.403792 0.37726,0.450045 0.01699,0.797423 -0.126634,0.955163 -0.73726,0.80971 -0.443798,-0.105714 -1.414034,0.0093 -1.636595,0.194017 -0.134638,0.111738 -0.611233,0.174018 -1.0591,0.138398 -0.447869,-0.03562 -0.814305,-0.01262 -0.814305,0.0511 0,0.06373 -0.243,0.151533 -0.54,0.195124 -0.297,0.04359 -0.54,0.04956 -0.54,0.01327 z M 2.4549073,27.09 c 0.056985,-0.1485 0.1858606,-0.27 0.2863908,-0.27 0.1053547,0 0.087861,0.114374 -0.041298,0.27 -0.123244,0.1485 -0.2521199,0.27 -0.2863908,0.27 -0.034271,0 -0.015687,-0.1215 0.041298,-0.27 z M 44.73,27.18 C 44.791186,27.081 44.876966,27 44.920624,27 44.964281,27 45,27.081 45,27.18 c 0,0.099 -0.08578,0.18 -0.190624,0.18 -0.104842,0 -0.140562,-0.081 -0.07938,-0.18 z m -7.29,-0.27 c 0,-0.1485 0.081,-0.27 0.18,-0.27 0.099,0 0.18,0.1215 0.18,0.27 0,0.1485 -0.081,0.27 -0.18,0.27 -0.099,0 -0.18,-0.1215 -0.18,-0.27 z M 3.9151237,26.185703 C 3.8673592,25.935842 3.8984161,25.688061 3.9841396,25.635082 4.0698628,25.5821 4.14,25.65841 4.14,25.804656 c 0,0.146245 0.049166,0.394025 0.109258,0.550622 0.060092,0.156598 0.029035,0.284722 -0.069016,0.284722 -0.098051,0 -0.217354,-0.204433 -0.2651182,-0.454297 z M 4.86,26.272717 c -0.426069,-0.129555 -0.4194545,-0.137786 0.1243769,-0.154775 0.3159074,-0.0099 0.629955,-0.10787 0.6978838,-0.21778 C 5.7545717,25.78316 6.0574271,25.741163 6.4128838,25.798846 6.7467976,25.853033 7.02,25.838696 7.02,25.766987 c 0,-0.168481 0.6951794,-0.233451 1.215,-0.113547 0.22275,0.05138 0.405,0.172368 0.405,0.26886 0,0.193698 -0.5029704,0.156561 -0.855,-0.06313 -0.12375,-0.07723 -0.225,-0.06107 -0.225,0.03591 0,0.320184 -1.9787692,0.596951 -2.7,0.377642 z m 31.275,0.06807 c 0.12375,-0.04993 0.32625,-0.04993 0.45,0 0.12375,0.04993 0.0225,0.09079 -0.225,0.09079 -0.2475,0 -0.34875,-0.04086 -0.225,-0.09079 z M 25.56,26.209258 c 0,-0.03891 0.1215,-0.117365 0.27,-0.174351 0.1485,-0.05699 0.27,-0.02515 0.27,0.07074 0,0.09589 -0.1215,0.174352 -0.27,0.174352 -0.1485,0 -0.27,-0.03184 -0.27,-0.07074 z m 1.62,-0.119882 c 0,-0.104842 0.081,-0.140562 0.18,-0.07938 0.099,0.06119 0.18,0.146966 0.18,0.190624 0,0.04366 -0.081,0.07938 -0.18,0.07938 -0.099,0 -0.18,-0.08578 -0.18,-0.190624 z M 39.38625,25.79704 c 0.129937,-0.052 0.285187,-0.0456 0.345001,0.0142 0.05981,0.05981 -0.0465,0.102355 -0.23625,0.09454 -0.209691,-0.0086 -0.252342,-0.05129 -0.108751,-0.108749 z M 3.2542105,25.275001 c 0.00864,-0.209691 0.051289,-0.252342 0.10875,-0.108751 0.051997,0.129937 0.045602,0.285187 -0.014211,0.345001 -0.059812,0.05981 -0.1023554,-0.0465 -0.09454,-0.23625 z m 0.6449146,-0.468346 c -0.1334963,-0.510491 -0.078117,-0.557975 0.3152691,-0.270324 0.2770376,0.202574 0.2839903,0.26093 0.053845,0.451933 -0.2169192,0.180027 -0.2830537,0.147489 -0.3691146,-0.181609 z m 1.249416,-0.356656 C 5.1995288,24.3675 5.4389657,24.3 5.6806231,24.3 5.9222804,24.3 6.12,24.3675 6.12,24.449999 c 0,0.0825 -0.2394369,0.150002 -0.532082,0.150002 -0.2926452,0 -0.4903648,-0.0675 -0.4393769,-0.150002 z M 32.839403,22.415724 c -0.192171,-0.14535 -0.258071,-0.26685 -0.146442,-0.27 0.111627,-0.0032 0.303795,0.115776 0.427039,0.264276 0.284542,0.342853 0.168264,0.345226 -0.280597,0.0057 z M 39.42,22.299345 c 0,-0.09791 0.18225,-0.507719 0.405,-0.910679 0.296183,-0.535803 0.344545,-0.754958 0.18,-0.815661 C 39.663488,20.447017 39.736168,20.16 40.109584,20.16 c 0.18127,0 0.44119,0.208541 0.5776,0.463423 0.229885,0.429546 0.264868,0.440375 0.478557,0.14814 0.126795,-0.173405 0.283419,-0.262403 0.34805,-0.197774 0.06463,0.06463 0.0061,0.261218 -0.13004,0.43686 -0.231345,0.298449 -0.224188,0.300921 0.10935,0.03777 0.196294,-0.154866 0.478399,-0.268454 0.626899,-0.252416 0.1485,0.01604 0.37125,0.0415 0.495,0.05658 0.12375,0.01508 0.225,0.111265 0.225,0.213748 0,0.128277 -0.108763,0.128126 -0.349076,-5.4e-4 -0.232137,-0.124236 -0.386444,-0.126358 -0.460623,-0.0063 -0.06135,0.09927 -0.02831,0.180486 0.07343,0.180486 0.101736,0 0.13835,0.1215 0.08137,0.27 -0.05848,0.152401 -0.326523,0.27 -0.615407,0.27 -0.281489,0 -0.576572,0.109215 -0.655742,0.2427 C 40.741272,22.313835 39.42,22.558505 39.42,22.299345 Z M 26.28,22.14 c 0,-0.099 0.081,-0.18 0.18,-0.18 0.099,0 0.18,0.081 0.18,0.18 0,0.099 -0.081,0.18 -0.18,0.18 -0.099,0 -0.18,-0.081 -0.18,-0.18 z m 16.52625,-0.48296 c 0.129937,-0.052 0.285187,-0.0456 0.345001,0.0142 0.05981,0.05981 -0.0465,0.102355 -0.23625,0.09454 -0.209691,-0.0086 -0.252342,-0.05129 -0.108751,-0.108749 z M 23.895,20.809431 C 23.572861,20.564894 23.457989,19.98 23.732102,19.98 c 0.216191,0 0.747898,0.617927 0.747898,0.869173 0,0.272149 -0.191252,0.259157 -0.585,-0.03974 z M 39.42,19.62 c 0,-0.099 0.126281,-0.18 0.280624,-0.18 0.154342,0 0.230562,0.081 0.169376,0.18 -0.06119,0.099 -0.187466,0.18 -0.280624,0.18 C 39.496219,19.8 39.42,19.719 39.42,19.62 Z"
       style="fill:#2c2e29" />
  </g>
</svg>
