<?xml version="1.0" encoding="UTF-8" standalone="no"?>
<svg
   xmlns:dc="http://purl.org/dc/elements/1.1/"
   xmlns:cc="http://creativecommons.org/ns#"
   xmlns:rdf="http://www.w3.org/1999/02/22-rdf-syntax-ns#"
   xmlns:svg="http://www.w3.org/2000/svg"
   xmlns="http://www.w3.org/2000/svg"
   viewBox="0 0 112.5 112.5"
   height="112.5"
   width="112.5"
   version="1.1"
   id="svg3336">
  <title
     id="title3395">majorIC</title>
  <metadata
     id="metadata3342">
    <rdf:RDF>
      <cc:Work
         rdf:about="">
        <dc:format>image/svg+xml</dc:format>
        <dc:type
           rdf:resource="http://purl.org/dc/dcmitype/StillImage" />
        <dc:title>majorIC</dc:title>
      </cc:Work>
    </rdf:RDF>
  </metadata>
  <defs
     id="defs3340" />
  <g
     id="g3346">
    <path
       id="path3360"
       d="m 72.000292,94.10625 c 2.1e-4,-0.399079 -0.437025,-0.531956 -1.643351,-0.499418 -0.904001,0.02438 -1.813136,0.149089 -2.020301,0.277122 -0.207161,0.128032 -0.58692,-0.02055 -0.843904,-0.330207 -0.336341,-0.405266 -0.600679,-0.452253 -0.943522,-0.167718 -0.33423,0.277383 -0.515997,0.276127 -0.609443,-0.0042 -0.07324,-0.21972 -0.806839,-0.47751 -1.630219,-0.572865 C 63.072536,92.665669 62.975344,92.696618 63.75,92.9871 l 0.9375,0.351547 -0.9375,-0.07558 c -0.604245,-0.04872 -0.93903,-0.304245 -0.941801,-0.718837 -0.0065,-0.976197 -1.360489,-1.841989 -2.02437,-1.294493 -0.366638,0.302366 -0.572753,0.313279 -0.666465,0.03529 -0.07462,-0.221355 -0.61059,-0.332756 -1.191045,-0.247564 -0.641884,0.09421 -1.288954,-0.07869 -1.65156,-0.441293 C 56.946855,90.268282 56.258704,90 55.745535,90 c -0.513169,0 -0.997211,-0.192532 -1.07565,-0.427849 -0.07844,-0.235316 -0.714218,-0.490425 -1.412843,-0.566906 -0.698625,-0.07648 -1.53687,-0.380366 -1.862763,-0.6753 -0.918267,-0.831019 -3.966649,-0.856939 -4.867819,-0.04139 -0.439898,0.398104 -1.008574,0.577621 -1.379224,0.435387 -0.83751,-0.321383 -2.25237,0.895369 -1.562347,1.343587 0.266066,0.17283 -0.330462,0.218141 -1.346802,0.1023 C 40.331539,89.952517 39,90.609244 39,91.766884 39,92.200309 38.85378,92.190112 38.166559,91.708762 37.176358,91.0152 36,90.94257 36,91.575 c 0,0.349999 -0.1,0.349999 -0.45,0 -0.706144,-0.706144 -1.647273,-0.529035 -2.092314,0.39375 -0.280498,0.581606 -0.414811,0.65856 -0.432306,0.247695 -0.03043,-0.714765 -1.721301,-1.63524 -3.023843,-1.646122 -0.51478,-0.0043 -0.936655,-0.204698 -0.9375,-0.445324 -0.0025,-0.70833 -0.509311,-1.010355 -1.023725,-0.610058 -0.660194,0.513743 -4.294199,0.609405 -4.596056,0.12099 -0.135344,-0.218992 -0.445357,-0.268849 -0.688918,-0.110797 -0.789529,0.51234 -6.769454,0.383767 -7.313374,-0.157245 C 15.16942,89.096798 14.546566,88.875 14.057846,88.875 13.569125,88.875 13.06497,88.70625 12.9375,88.5 12.540512,87.857659 12,88.088434 12,88.900271 c 0,0.628245 -0.16001,0.72774 -0.84375,0.524633 C 10.692187,89.287054 10.082198,88.895996 9.800718,88.555882 9.3914096,88.061317 9.2509226,88.039845 9.0990863,88.448644 8.963085,88.814813 8.6540123,88.662769 8.0094128,87.9126 7.3543481,87.150255 6.9972525,86.977748 6.6965989,87.2784 6.4694542,87.505545 6.0368978,87.596719 5.7353621,87.481009 5.28519,87.308261 5.2765939,87.208485 5.6873078,86.923249 6.0313642,86.684306 5.9294584,86.648261 5.3608436,86.807779 4.8898943,86.939899 4.1637698,86.801029 3.6733437,86.485088 3.1998797,86.180055 2.1796875,85.814842 1.40625,85.673509 L 0,85.416533 0,77.395766 0,69.375 l 1.03125,-0.0057 c 0.7182713,-0.004 0.8773959,-0.103238 0.524308,-0.326986 -0.3968311,-0.251467 -0.3153787,-0.456258 0.375,-0.94284 0.8384872,-0.59097 0.8878463,-0.584096 1.0017736,0.139485 C 3.0865747,69.218558 3.75,69.233025 3.75,68.25675 c 0,-0.643642 0.2417895,-0.737801 1.8041929,-0.702604 0.9923059,0.02235 2.1735558,-0.14943 2.625,-0.38175 0.4514437,-0.232316 1.1388626,-0.580432 1.5275966,-0.773587 0.3887345,-0.193159 1.0637345,-0.25785 1.5000005,-0.143764 0.436266,0.114086 0.794627,0.06119 0.79636,-0.117559 0.0017,-0.178744 1.551649,-0.377917 3.444259,-0.442609 1.892609,-0.06469 3.769016,-0.293111 4.169792,-0.5076 1.141209,-0.610758 4.845771,-1.004553 5.858001,-0.62271 0.602879,0.227427 1.276922,0.193437 1.985648,-0.100128 0.775504,-0.321225 1.315401,-0.333957 1.947546,-0.04593 0.636362,0.289946 1.001164,0.278707 1.339222,-0.04125 0.365633,-0.346061 0.429837,-0.184316 0.301355,0.759195 -0.08979,0.659419 -0.04686,1.126999 0.09542,1.039069 0.142276,-0.08793 0.349464,-0.964958 0.460418,-1.948946 0.214982,-1.906557 2.091826,-15.154538 2.325383,-16.414069 0.07649,-0.4125 0.151614,-0.870626 0.166941,-1.018058 0.01533,-0.147431 0.366504,-0.449287 0.780395,-0.670796 0.625242,-0.33462 1.387093,-0.05142 4.504078,1.674308 3.677292,2.035931 4.490536,2.360741 4.496224,1.795796 0.0044,-0.431678 0.73029,-5.051063 0.938982,-5.975006 0.35472,-1.57047 1.485652,-1.407979 5.614406,0.806658 C 54.832886,46.786429 54.38436,46.89717 54.93879,43.3125 55.444973,40.039781 55.867717,39 56.692125,39 c 0.707895,0 5.309595,2.289142 10.171151,5.059702 0.990428,0.564435 1.850625,0.964722 1.911548,0.889523 0.06093,-0.0752 0.651506,-5.6211 1.312406,-12.324225 0.660896,-6.703125 1.289993,-12.648487 1.397996,-13.211915 0.157155,-0.819872 0.500269,-1.106248 1.718427,-1.434264 1.527187,-0.411229 2.596953,-0.303523 4.515097,0.454587 0.791783,0.312938 1.03125,0.658253 1.03125,1.487087 0,1.032852 0.07453,1.079505 1.724576,1.079505 0.948518,0 2.298518,0.272353 3,0.605228 1.238408,0.587663 1.275424,0.669544 1.275424,2.821346 0,1.218865 -0.410096,8.58245 -0.911325,16.363522 -0.501229,7.781074 -1.020589,16.889591 -1.154134,20.241154 -0.241046,6.04947 -0.236988,6.09375 0.558454,6.09375 0.440696,0 0.708656,0.149846 0.595466,0.332996 -0.113193,0.183146 0.55185,0.44661 1.477868,0.585476 0.926017,0.138867 1.684009,0.368704 1.684417,0.510754 3.75e-4,0.14205 1.033887,0.296895 2.296617,0.3441 1.640973,0.06135 2.426797,0.264885 2.754866,0.713543 0.252446,0.34524 0.6414,0.51498 0.864341,0.377193 0.561769,-0.34719 3.062899,0.954799 3.074205,1.600309 0.0071,0.405323 0.180446,0.371918 0.751406,-0.144795 0.714323,-0.646451 0.751924,-0.645116 1.001704,0.03562 0.142736,0.389014 0.736879,1.172824 1.320319,1.741808 1.249206,1.218255 1.347056,1.777987 0.310796,1.777987 -0.507165,0 -0.75,0.250001 -0.75,0.772133 0,0.424672 0.1566,0.675345 0.348,0.557055 0.47844,-0.295695 0.738934,0.813528 0.612544,2.608312 -0.144563,2.0529 -0.266985,2.127705 -0.613688,0.375 -0.277683,-1.403771 -0.289695,-1.372286 -0.187215,0.490823 0.07706,1.401 -0.0081,1.873181 -0.287568,1.59375 C 98.278684,81.178684 97.725938,81 97.268749,81 96.811564,81 96.349759,80.789062 96.242516,80.53125 96.135274,80.273437 96.063574,80.4 96.083182,80.8125 c 0.07172,1.508895 -0.09704,2.016431 -0.739432,2.223765 -0.360938,0.116494 -0.922755,0.681971 -1.248484,1.256621 -0.392951,0.693233 -1.150076,1.219902 -2.25,1.56513 -0.911771,0.286178 -2.195081,1.020015 -2.8518,1.630755 -0.751939,0.699296 -1.418662,1.024242 -1.800727,0.877631 -0.353209,-0.13554 -0.510968,-0.07793 -0.377584,0.137892 0.127631,0.206516 -0.186128,0.370706 -0.708394,0.370706 -0.515625,0 -1.041791,0.16875 -1.169261,0.375 -0.12747,0.20625 -0.601493,0.377584 -1.053383,0.380741 -0.667961,0.0047 -0.716422,0.07372 -0.259117,0.369259 0.437006,0.282416 0.328271,0.364796 -0.487373,0.369259 -1.365765,0.0075 -3.361897,1.041738 -3.034121,1.572093 0.169838,0.2748 -0.134362,0.352553 -0.925237,0.236475 -1.162714,-0.170651 -1.620439,0.20226 -0.709519,0.578048 0.257812,0.106357 -0.105926,0.09408 -0.808309,-0.0273 -0.990232,-0.171101 -1.209289,-0.111008 -0.975319,0.267562 0.231015,0.373793 0.06889,0.429788 -0.691691,0.238894 C 75.405645,93.087521 75,93.14175 75,93.367856 75,93.578036 74.5275,93.75 73.95,93.75 c -0.5775,0 -1.2525,0.2025 -1.5,0.45 -0.349999,0.349999 -0.449936,0.329167 -0.449708,-0.09375 z M 97.7178,78.092801 c -0.408506,-0.40851 -0.563557,0.125655 -0.304365,1.048575 l 0.258686,0.921124 0.131741,-0.875947 c 0.07246,-0.481774 0.03371,-0.973962 -0.08606,-1.093752 z M 60.9375,91.875 c 0.12747,-0.20625 0.30618,-0.375 0.397132,-0.375 0.09095,0 0.165368,0.16875 0.165368,0.375 0,0.20625 -0.17871,0.375 -0.397132,0.375 -0.218423,0 -0.292838,-0.16875 -0.165368,-0.375 z M 14.179688,89.743834 c 0.270703,-0.108326 0.59414,-0.09501 0.71875,0.02959 0.124609,0.124609 -0.09688,0.21324 -0.492188,0.196958 -0.436854,-0.018 -0.525712,-0.106853 -0.226562,-0.22656 z M 85.6875,89.625 c 0.12747,-0.20625 0.30618,-0.375 0.397132,-0.375 0.09095,0 0.165368,0.16875 0.165368,0.375 C 86.25,89.83125 86.07129,90 85.852868,90 85.634445,90 85.56003,89.83125 85.6875,89.625 Z M 7.03125,66.126645 c 0.2578125,-0.104029 0.6796875,-0.104029 0.9375,0 0.2578125,0.104029 0.046875,0.189146 -0.46875,0.189146 -0.515625,0 -0.7265625,-0.08512 -0.46875,-0.189146 z"
       style="fill:#c1c1c1" />
    <path
       id="path3358"
       d="M 60.979819,87.479816 C 60.831218,87.331215 53.968744,87.183154 45.729877,87.150784 36.054042,87.11277 30.584128,86.95464 30.28131,86.704181 c -0.496329,-0.410512 -4.086141,-1.246192 -5.332256,-1.241306 -0.406145,0.0015 -0.845348,-0.170078 -0.976008,-0.381488 -0.130659,-0.21141 -1.023655,-0.414648 -1.984434,-0.451635 -1.301863,-0.05012 -1.696971,-0.197302 -1.550989,-0.577755 0.129407,-0.337256 0.0036,-0.436698 -0.370864,-0.293021 C 19.454159,83.994052 15,81.562702 15,80.993235 15,80.803024 14.323064,80.262667 13.495698,79.792447 12.138533,79.021121 12.013757,78.827464 12.220009,77.8125 c 0.125737,-0.61875 0.502181,-1.546875 0.836543,-2.0625 0.334362,-0.515625 0.557964,-1.172655 0.496892,-1.46007 -0.143747,-0.676496 0.704714,-1.203593 1.526141,-0.948094 0.353147,0.109841 1.028147,-0.01901 1.5,-0.286331 0.471853,-0.267323 1.189443,-0.487609 1.594645,-0.489521 0.4052,-0.0019 0.931855,-0.392888 1.170343,-0.868823 0.395626,-0.789529 0.45781,-0.805954 0.709772,-0.1875 0.259263,0.636375 0.295022,0.631958 0.584549,-0.07216 0.269649,-0.655778 0.311703,-0.665899 0.334749,-0.08056 0.02142,0.543919 0.162365,0.596655 0.751704,0.28125 0.398941,-0.213506 1.146944,-0.388192 1.66223,-0.388192 0.607535,0 1.020562,-0.263651 1.174923,-0.75 0.130922,-0.4125 0.479794,-0.75 0.77527,-0.75 0.731769,0 0.677479,0.215122 -0.27923,1.10643 -0.983533,0.916301 -0.700237,1.393106 0.416385,0.700804 0.673648,-0.41766 0.858424,-0.407104 1.186082,0.06777 0.293863,0.425891 0.324675,0.339285 0.12687,-0.356606 -0.257905,-0.907331 -0.249048,-0.911112 0.691044,-0.29514 0.83199,0.545141 1.00982,0.554659 1.407605,0.07536 0.250419,-0.301736 0.737796,-0.54861 1.08306,-0.54861 0.736605,0 0.9402,-1.021241 2.871908,-14.405595 0.711881,-4.932454 1.481306,-9.193391 1.709834,-9.46875 0.658367,-0.793286 1.274129,-0.621 5.043924,1.411241 1.950608,1.051541 3.7959,1.816211 4.100652,1.699268 0.336873,-0.12927 0.554096,-0.707258 0.554096,-1.47435 0,-2.215557 0.811556,-5.455193 1.425596,-5.690824 0.502043,-0.192649 2.003472,0.48276 7.360016,3.310856 0.60396,0.318874 1.213204,0.508639 1.353874,0.421699 0.14067,-0.08694 0.355557,-0.879862 0.477529,-1.762057 C 55.440023,40.396995 55.908941,39 56.727083,39 c 0.434463,0 3.193301,1.35 6.130747,3 C 68.17494,44.986684 69,45.339225 69,44.624486 69,42.33594 71.738524,18.87756 72.049418,18.502955 c 0.60093,-0.724075 4.800592,-0.666233 5.867141,0.08081 0.474562,0.332396 0.833441,0.978294 0.833441,1.5 C 78.75,20.903922 78.908554,21 80.262045,21 c 1.828849,0 4.03626,0.8638 4.359412,1.705917 0.216567,0.56436 -0.543517,14.278778 -1.39146,25.106583 -0.376155,4.803311 -0.807881,26.577266 -0.492558,24.842036 0.149959,-0.825221 0.281156,-0.938343 0.652369,-0.5625 0.255562,0.258758 0.576483,0.765776 0.713156,1.126714 0.161321,0.426026 0.647295,0.65625 1.385269,0.65625 1.224161,0 1.409291,0.306289 0.668017,1.105192 -0.38265,0.412399 -0.34821,0.462777 0.1875,0.274268 C 86.775675,75.102473 87,75.211793 87,75.574268 c 0,0.302902 -0.210937,0.556098 -0.46875,0.562657 -0.286271,0.0073 -0.213281,0.205856 0.1875,0.510094 0.685508,0.520372 0.936938,1.570721 0.278603,1.163842 -0.207709,-0.128366 -0.471623,0.01148 -0.586474,0.310789 -0.114855,0.299306 -0.704288,0.643282 -1.309853,0.764396 C 84.486232,79.009005 84,79.348061 84,79.653806 c 0,0.301155 -0.671719,1.022561 -1.49271,1.603125 -0.864446,0.611292 -1.665851,1.568528 -1.904081,2.274319 -0.41418,1.227064 -1.253989,1.619535 -1.604854,0.75 -0.104029,-0.257813 -0.202466,-0.09902 -0.218749,0.352868 C 78.749381,85.472576 78,86.28204 78,85.476214 c 0,-0.318079 -0.169035,-0.30276 -0.599269,0.0543 -0.329598,0.273543 -1.454505,0.540543 -2.499795,0.593332 -1.04529,0.05279 -2.022378,0.293142 -2.171306,0.534113 -0.148927,0.240971 -0.428306,0.34077 -0.620842,0.221775 -0.192533,-0.118992 -0.821314,0.02813 -1.397292,0.326959 -1.107832,0.574751 -9.20286,0.801941 -9.731677,0.273123 z M 52.875,56.075693 c 0,-0.09587 -0.379687,-0.358302 -0.84375,-0.583185 -0.810236,-0.392641 -0.814834,-0.385718 -0.115826,0.174303 0.765097,0.612971 0.959576,0.695839 0.959576,0.408882 z M 63.1875,52.125 c -0.12747,-0.20625 -0.400511,-0.375 -0.606761,-0.375 -0.20625,0 -0.270709,0.16875 -0.143239,0.375 0.12747,0.20625 0.400511,0.375 0.606761,0.375 0.20625,0 0.270709,-0.16875 0.143239,-0.375 z m 17.625,0 c -0.12747,-0.20625 -0.432742,-0.372416 -0.678382,-0.369259 -0.268354,0.0034 -0.222102,0.150836 0.115882,0.369259 0.72042,0.465574 0.850238,0.465574 0.5625,0 z m -1.5,-0.75 c -0.12747,-0.20625 -0.432742,-0.372416 -0.678382,-0.369259 -0.268354,0.0034 -0.222102,0.150836 0.115882,0.369259 0.72042,0.465574 0.850238,0.465574 0.5625,0 z M 75.375,49.339965 c 0,-0.278741 -2.3634,-1.351564 -2.555119,-1.159849 -0.100852,0.100856 0.390604,0.43248 1.092124,0.73695 1.46706,0.63672 1.462995,0.635543 1.462995,0.422899 z M 10.328514,79.525913 c -0.118661,-0.192001 -0.04425,-0.455086 0.165369,-0.584633 0.209615,-0.129547 0.381117,0.02754 0.381117,0.349088 0,0.658698 -0.225021,0.755685 -0.546486,0.235545 z m 0.383877,-1.862581 C 9.9865811,77.379101 10.115354,77.194264 11.34375,76.757092 11.825605,76.585605 12,76.719705 12,77.261767 c 0,0.79224 -0.16142,0.842584 -1.287609,0.401565 z M 10.6875,75.75 c 0.12747,-0.20625 0.474929,-0.375 0.772131,-0.375 C 11.756834,75.375 12,75.54375 12,75.75 c 0,0.20625 -0.347459,0.375 -0.772131,0.375 -0.424673,0 -0.667839,-0.16875 -0.540369,-0.375 z M 18,69.5625 c 0,-0.343751 0.181406,-0.564532 0.403125,-0.490624 0.221719,0.0739 0.403125,0.294686 0.403125,0.490624 0,0.195937 -0.181406,0.416719 -0.403125,0.490624 C 18.181406,70.127032 18,69.906251 18,69.5625 Z m 6.75,-1.5 c 0,-0.309375 0.16875,-0.5625 0.375,-0.5625 0.20625,0 0.375,0.253125 0.375,0.5625 0,0.309375 -0.16875,0.5625 -0.375,0.5625 -0.20625,0 -0.375,-0.253125 -0.375,-0.5625 z"
       style="fill:#bcbcbc" />
    <path
       id="path3356"
       d="M 43.677435,86.412067 C 43.47672,86.367394 41.371875,86.121503 39,85.865636 36.628125,85.609774 34.51875,85.277498 34.3125,85.12725 34.10625,84.977002 33.302155,84.75648 32.525623,84.6372 31.749091,84.51792 30.487205,83.90388 29.721432,83.272665 28.955659,82.64145 28.030066,82.125 27.664558,82.125 c -0.842175,0 -0.844995,-0.337987 -0.0083,-0.995663 0.589809,-0.463616 0.551152,-0.491985 -0.381826,-0.280222 -0.99589,0.226042 -1.022559,0.194805 -0.65625,-0.76866 C 27.102762,78.80589 27.105406,78 26.625,78 c -0.20625,0 -0.375,0.286875 -0.375,0.6375 0,0.468105 -0.110892,0.526609 -0.417326,0.220174 -0.575971,-0.57597 -0.168169,-1.094606 1.065773,-1.355434 1.501036,-0.31728 3.411627,-2.28414 3.618221,-3.724781 0.09583,-0.668228 0.364255,-2.649334 0.596509,-4.402459 0.232253,-1.753125 0.573016,-4.2 0.757251,-5.4375 0.184235,-1.2375 0.513757,-3.557813 0.732272,-5.15625 1.02043,-7.464446 1.22841,-8.837989 1.594259,-10.52877 0.215408,-0.995512 0.627869,-1.900665 0.916581,-2.011455 0.595267,-0.228427 2.655388,0.533966 3.014945,1.115745 0.136316,0.220556 0.05305,0.27018 -0.195544,0.116539 -0.238117,-0.147165 -0.611414,-0.157268 -0.829547,-0.02246 -0.218134,0.134813 0.330303,0.635108 1.218748,1.111766 1.165725,0.625422 1.748356,0.757242 2.093172,0.47358 0.262796,-0.216191 0.586233,-0.284655 0.718747,-0.152137 0.132518,0.132514 0.04406,0.240938 -0.19656,0.240938 -0.81936,0 -0.440966,0.734842 0.499999,0.97101 0.515625,0.129412 0.9375,0.389928 0.9375,0.578925 0,0.188996 0.443914,0.512403 0.986479,0.718687 0.542561,0.20628 1.469535,0.719025 2.059939,1.13943 0.590403,0.420405 1.243364,0.65937 1.451025,0.53103 0.207656,-0.12834 0.377557,0.02445 0.377557,0.339518 0,0.331177 0.216896,0.48963 0.51411,0.375577 0.282758,-0.108502 0.613871,0.0627 0.735802,0.380449 0.121935,0.317752 0.457583,0.487211 0.745887,0.376579 0.288304,-0.110633 1.011877,0.195045 1.607944,0.679282 1.333421,1.083251 4.190407,2.365361 4.525079,2.030689 0.135398,-0.135398 0.05228,-0.246176 -0.184717,-0.246176 -0.236989,0 -2.874139,-1.431612 -5.860328,-3.181362 -3.592031,-2.104736 -5.656488,-3.10437 -6.100357,-2.953856 -0.476269,0.161494 -0.426124,0.04475 0.17283,-0.402405 0.52116,-0.389077 0.84375,-1.02798 0.84375,-1.671097 0,-0.924375 0.741349,-5.315258 0.942626,-5.583023 0.0431,-0.05733 0.54876,0.07461 1.123695,0.293198 0.91971,0.349672 0.988043,0.328398 0.568594,-0.177012 C 46.622704,43.008499 46.576916,42.75 46.783166,42.75 c 0.20625,0 0.583534,0.251269 0.838406,0.558371 0.254877,0.307103 0.613039,0.465896 0.795919,0.352868 0.18288,-0.113025 0.332509,-0.06799 0.332509,0.100087 0,0.168075 0.548437,0.547346 1.21875,0.842828 0.670312,0.295485 1.443292,0.760102 1.717732,1.032491 0.27444,0.272385 0.654128,0.399364 0.84375,0.282169 0.189623,-0.117192 0.344768,-0.0514 0.344768,0.146193 0,0.197595 0.717187,0.713918 1.59375,1.14738 0.876562,0.433463 1.246159,0.535605 0.821325,0.226984 -0.759094,-0.551448 -0.76233,-0.620925 -0.1875,-4.026536 0.479336,-2.83983 0.713216,-3.490076 1.295606,-3.602096 0.568166,-0.109287 0.605768,-0.203126 0.1875,-0.467974 -0.438862,-0.27789 -0.440006,-0.332205 -0.0071,-0.337024 0.62526,-0.007 7.682426,3.752727 7.858912,4.186811 0.06875,0.169095 0.44844,0.307448 0.84375,0.307448 0.395314,0 0.718751,0.141664 0.718751,0.314805 0,0.364972 1.672302,1.185195 2.41641,1.185195 0.531769,0 0.899194,-2.227736 1.700862,-10.3125 0.224966,-2.26875 0.568886,-5.559375 0.764272,-7.3125 0.195386,-1.753125 0.456191,-4.328106 0.579566,-5.722179 0.130759,-1.477496 0.4575,-2.767861 0.78339,-3.09375 0.8748,-0.874798 4.300148,-0.739368 5.517428,0.218146 1.150785,0.905208 1.224682,1.519018 0.359246,2.984082 -0.520927,0.881859 -0.54522,1.165256 -0.141581,1.651609 0.665344,0.801692 1.896892,0.756619 1.889666,-0.06916 C 79.86435,22.78292 79.810661,22.769289 79.5,23.25 c -0.442995,0.685487 -0.442995,0.09341 0,-0.9375 0.177259,-0.4125 0.334147,-0.529103 0.348641,-0.259119 0.01451,0.269985 0.204701,0.380661 0.422674,0.245947 0.217969,-0.134715 0.841984,-0.133079 1.38669,0.0036 0.77883,0.195474 0.874406,0.32194 0.447439,0.592061 -0.441428,0.279268 -0.411656,0.344567 0.159221,0.349235 0.581486,0.0048 0.621934,0.102419 0.235335,0.568242 -0.394256,0.475048 -0.317813,0.5625 0.491674,0.5625 0.696345,0 1.002506,0.230775 1.119371,0.84375 0.08847,0.464063 0.110216,0.08438 0.04832,-0.84375 -0.0619,-0.928125 -0.123082,-1.710459 -0.135956,-1.738522 -0.14265,-0.310967 -2.824215,-1.271656 -3.642578,-1.304978 -0.716748,-0.02919 -0.83757,-0.102787 -0.367132,-0.223652 1.115426,-0.286576 3.978814,0.677459 4.411046,1.485096 0.216934,0.405341 0.300139,1.436187 0.184901,2.29077 -0.678963,5.035061 -0.993101,9.278008 -0.8022,10.835036 0.13425,1.094964 0.07224,1.78125 -0.160931,1.78125 -0.208628,0 -0.359606,0.632813 -0.335509,1.40625 0.03623,1.162977 -0.380325,11.965624 -0.519753,13.478918 -0.04827,0.523879 -1.519617,-0.0255 -4.740634,-1.770075 -1.129421,-0.611719 -2.126168,-1.039538 -2.214998,-0.950708 -0.08883,0.08883 0.825878,0.67002 2.032688,1.291534 2.78145,1.432466 4.028482,2.331604 4.221896,3.044081 0.08398,0.309375 0.230535,4.906212 0.325665,10.215195 0.15168,8.464902 0.09612,9.814639 -0.451545,10.96875 -0.343477,0.723829 -0.7953,1.316055 -1.004044,1.316055 -0.208747,0 -0.280477,0.160283 -0.159405,0.356187 0.121077,0.1959 -0.122092,0.539336 -0.540367,0.763192 C 79.842225,77.843238 79.5,78.233497 79.5,78.48663 c 0,0.59163 -4.466167,1.880853 -5.444295,1.571572 -0.525082,-0.166031 -0.475841,-0.07539 0.167794,0.308835 l 0.910999,0.543836 -1.285999,0.315143 c -0.707299,0.173332 -1.474065,0.322492 -1.703921,0.33147 -0.22986,0.009 -0.66726,0.223252 -0.972004,0.476164 -0.304744,0.252915 -0.654203,0.359722 -0.776576,0.237352 -0.122374,-0.122374 -0.608457,0.04784 -1.080188,0.378251 -0.471727,0.330413 -1.316434,0.60075 -1.877119,0.60075 -0.560685,0 -1.130932,0.180417 -1.267211,0.40092 -0.136282,0.220508 -0.863426,0.358347 -1.615882,0.306308 -0.752453,-0.05204 -1.705598,0.0791 -2.118098,0.291424 -1.279481,0.658578 -4.307003,1.36695 -5.999419,1.403726 -0.888941,0.01931 -1.538085,0.161685 -1.442538,0.316372 0.09555,0.154688 -0.13155,0.30711 -0.504661,0.338719 -1.180151,0.09998 -10.432109,0.189473 -10.813447,0.104599 z m 0.984326,-1.685595 c -1.526655,-0.832136 -3.027371,-1.416416 -3.33492,-1.2984 -0.608257,0.233412 -0.440696,0.572397 0.357548,0.723342 0.276712,0.05232 1.093736,0.360097 1.815611,0.683943 4.210432,1.888868 4.73643,1.83957 1.161761,-0.108885 z M 52.6875,85.875 c 0.494527,-0.212505 0.558397,-0.329306 0.1875,-0.3429 -0.309375,-0.01132 -0.815625,0.142965 -1.125,0.3429 -0.685489,0.442995 -0.09341,0.442995 0.9375,0 z M 57,84.311734 c 0.390934,-0.241542 0.276555,-0.271062 -0.375,-0.09678 -0.515625,0.137925 -1.190625,0.407164 -1.5,0.598312 -0.390934,0.241541 -0.276555,0.271061 0.375,0.09678 0.515625,-0.137925 1.190625,-0.407164 1.5,-0.598312 z m 3.5625,-1.291729 c 0.903529,-0.411428 0.94044,-0.466999 0.1875,-0.282277 -0.515625,0.126494 -1.44375,0.460518 -2.0625,0.742267 -0.903529,0.411427 -0.94044,0.466999 -0.1875,0.282277 0.515625,-0.126495 1.44375,-0.460518 2.0625,-0.742267 z M 39.916125,83.215414 C 40.193587,83.66436 41.25,83.331206 41.25,82.794757 c 0,-0.20625 -0.290168,-0.263651 -0.64482,-0.12756 -0.354649,0.136095 -0.522143,0.124763 -0.372203,-0.02516 0.251588,-0.251588 -0.822345,-1.013689 -3.670477,-2.604705 -1.833237,-1.02408 -5.603186,-3.620644 -5.900508,-4.063995 -0.336402,-0.501626 -0.369211,-0.123923 -0.05937,0.683505 0.125191,0.326246 0.420504,0.597866 0.65625,0.603604 0.655242,0.01594 3.428081,2.219861 3.432734,2.72841 0.0023,0.248782 0.378166,0.39639 0.84375,0.331335 0.519982,-0.07267 0.839645,0.07935 0.839645,0.399285 0,0.645363 2.519047,1.884723 3.119505,1.534781 0.243649,-0.141998 0.105495,0.147611 -0.307005,0.643571 -0.489195,0.588173 -0.533404,0.734659 -0.127136,0.421253 0.399472,-0.308168 0.706395,-0.345345 0.855761,-0.103665 z m 25.232314,0.183022 c -0.124613,-0.124609 -0.44805,-0.137929 -0.718752,-0.02959 -0.299148,0.119707 -0.210292,0.208567 0.226564,0.22656 0.39531,0.01627 0.616797,-0.07235 0.492188,-0.196958 z M 64.125,81.75 c 0.685489,-0.442995 0.09341,-0.442995 -0.9375,0 -0.494527,0.212505 -0.558397,0.329306 -0.1875,0.3429 0.309375,0.01132 0.815625,-0.142965 1.125,-0.3429 z m 8.52666,-1.38438 c -0.363465,-0.09481 -0.548329,-0.354435 -0.410809,-0.576941 0.149895,-0.242535 0.07419,-0.295886 -0.189026,-0.133208 -0.586523,0.36249 -0.168334,0.980558 0.626557,0.926029 0.56691,-0.03889 0.564079,-0.06177 -0.02674,-0.21588 z M 75.375,77.625 c 0.309375,-0.199935 0.39375,-0.363514 0.1875,-0.363514 -0.20625,0 -0.628125,0.163579 -0.9375,0.363514 -0.309375,0.199935 -0.39375,0.363514 -0.1875,0.363514 0.20625,0 0.628125,-0.163579 0.9375,-0.363514 z m 2.459576,-0.958189 c 0.716277,-0.573855 0.715924,-0.577665 -0.02209,-0.23817 -0.4125,0.189758 -1.003125,0.43887 -1.3125,0.553583 -0.485903,0.180165 -0.482899,0.212599 0.02209,0.23817 0.321518,0.01628 0.912143,-0.232826 1.3125,-0.553583 z M 66.540424,53.824425 c -0.400358,-0.302812 -0.88674,-0.555937 -1.080848,-0.5625 -0.194107,-0.0066 -0.02535,0.235834 0.375,0.53865 0.400358,0.302812 0.88674,0.555937 1.080848,0.5625 0.194107,0.0066 0.02535,-0.235834 -0.375,-0.53865 z M 64.875,53.094776 c 0,-0.182857 -4.55739,-2.760862 -4.96875,-2.8107 -0.154687,-0.01875 -0.28125,0.09249 -0.28125,0.247174 0,0.154687 0.16875,0.302344 0.375,0.328125 0.20625,0.02576 0.55371,0.06797 0.772132,0.09375 0.218423,0.02576 0.276724,0.241699 0.129559,0.479816 -0.159701,0.258401 -0.103477,0.331526 0.139455,0.181384 0.223868,-0.138356 0.515982,-0.07527 0.649148,0.140197 C 62.052015,52.3398 64.875,53.527826 64.875,53.094776 Z M 58.5,49.325693 c 0,-0.09587 -0.379687,-0.358302 -0.84375,-0.583185 C 56.846014,48.349867 56.841416,48.35679 57.540424,48.916811 58.305521,49.529782 58.5,49.61265 58.5,49.325693 Z m 16.875,-0.0056 c 0,-0.09893 -0.67005,-0.521711 -1.489001,-0.93951 -1.130584,-0.57678 -1.438751,-0.62868 -1.280247,-0.215618 0.248172,0.646729 2.769248,1.698338 2.769248,1.155128 z M 36.687692,46.828556 c -0.70307,-0.445676 -1.905253,-0.406706 -1.621412,0.05256 0.129549,0.209614 0.392633,0.284033 0.584632,0.165368 C 35.84291,46.927823 36,47.00415 36,47.2161 c 0,0.21195 0.267274,0.282799 0.593942,0.157444 0.478209,-0.183507 0.496477,-0.289699 0.09375,-0.544988 z m 36.697764,-26.62023 c -0.539366,-0.313775 -0.585997,-0.503571 -0.229316,-0.933347 0.509542,-0.613962 2.77074,-0.368937 3.71886,0.40298 1.575506,1.282708 2.07471,0.955343 0.73539,-0.482249 C 76.347982,17.840672 72,18.20781 72,19.669444 c 0,0.544508 0.556868,0.884029 1.5,0.914547 0.420521,0.01361 0.391609,-0.08121 -0.114544,-0.375665 z M 42,49.875 c -0.309375,-0.199935 -0.39375,-0.363514 -0.1875,-0.363514 0.20625,0 0.628125,0.163579 0.9375,0.363514 0.309375,0.199935 0.39375,0.363514 0.1875,0.363514 -0.20625,0 -0.628125,-0.163579 -0.9375,-0.363514 z m -2.834576,-1.708189 c -0.699008,-0.560021 -0.69441,-0.566943 0.115826,-0.174303 0.464062,0.224883 0.84375,0.487316 0.84375,0.583185 0,0.286957 -0.194479,0.204089 -0.959576,-0.408882 z"
       style="fill:#a9a9a9" />
    <path
       id="path3354"
       d="M 45.692029,85.008319 C 42.33882,83.246273 33.508744,78.03777 31.739402,76.778235 30.477618,75.880012 30.47113,76.13349 32.029651,65.4375 34.564717,48.039566 34.453509,48.561394 35.625,48.566936 c 1.135946,0.0054 4.125,1.177466 4.125,1.617529 0,0.173543 0.210937,0.322639 0.46875,0.33132 0.257812,0.0087 2.128166,0.964931 4.156346,2.125001 2.028176,1.160067 3.926614,2.109214 4.21875,2.109214 0.292133,0 0.531154,0.15654 0.531154,0.347869 0,0.191329 0.675,0.645679 1.5,1.009669 0.825,0.36399 1.5,0.80685 1.5,0.984138 0,0.177285 0.506051,0.49875 1.124554,0.71436 0.633937,0.220992 1.017671,0.564968 0.879559,0.788434 -0.140539,0.2274 -0.06691,0.28635 0.172691,0.138266 0.229729,-0.141979 0.719865,-0.102146 1.089191,0.08852 2.984809,1.540909 4.233233,1.979531 4.969283,1.745917 0.752306,-0.238773 0.704043,-0.31914 -0.615747,-1.025373 -1.742973,-0.932685 -8.57505,-4.789654 -12.72231,-7.182229 l -3.040278,-1.753954 0.556113,-2.521556 c 0.77562,-3.516863 0.749018,-3.44886 1.45494,-3.719745 0.666795,-0.255874 3.474094,1.059922 8.31924,3.89928 1.512353,0.886275 2.848238,1.611405 2.968628,1.611405 0.521951,0 4.896671,3.188869 4.734562,3.451166 -0.09866,0.159634 0.110194,0.179123 0.464115,0.04331 0.436583,-0.167535 0.556309,-0.105867 0.372345,0.191793 -0.153142,0.247793 -0.05751,0.448137 0.219731,0.460343 0.633735,0.0279 4.3617,1.817321 3.865883,1.855612 -0.20625,0.01594 0.46875,0.335078 1.5,0.709215 1.296086,0.470224 2.0874,0.571883 2.562934,0.329258 0.77643,-0.396154 0.662403,-0.476831 -4.625434,-3.272801 -1.546875,-0.817917 -4.753125,-2.645138 -7.125,-4.060489 -3.317936,-1.979891 -4.293083,-2.74017 -4.228301,-3.29664 0.04631,-0.3978 0.248073,-1.694858 0.448368,-2.882351 0.677528,-4.016907 0.393788,-4.049948 9.340875,1.087691 1.924144,1.104889 3.581239,2.00889 3.682433,2.00889 0.101197,0 0.919804,0.50625 1.819125,1.125 0.899321,0.61875 1.815664,1.125 2.036317,1.125 0.22065,0 0.401183,0.240754 0.401183,0.535009 0,0.294255 0.885937,0.974606 1.96875,1.511887 3.129341,1.552751 4.03125,2.097068 4.03125,2.432914 0,0.172635 0.427845,0.421267 0.950764,0.55251 0.54735,0.137377 1.107243,0.650197 1.31955,1.208614 0.357258,0.939656 0.720607,16.935892 0.429712,18.917876 -0.185407,1.263266 1.252324,0.671932 -21.637526,8.899421 -5.15625,1.853355 -9.738589,3.47658 -10.182971,3.607166 -0.556212,0.163452 -1.783125,-0.274991 -3.9375,-1.407078 z M 79.320067,51.174476 C 78.29298,50.653414 75.5391,49.177556 73.20033,47.894794 69.03075,45.607871 68.952375,45.540615 69.171476,44.4375 c 0.122899,-0.61875 0.641081,-4.584375 1.151516,-8.8125 1.5957,-13.217819 1.719372,-14.044419 2.140122,-14.304457 0.225693,-0.139486 1.327275,-0.158976 2.447962,-0.04331 1.513703,0.156228 2.120543,0.07611 2.360153,-0.311581 0.239557,-0.387613 0.431445,-0.412978 0.74583,-0.09859 0.30255,0.30255 0.307005,0.495158 0.0156,0.675246 -0.224205,0.138576 -0.407659,0.878645 -0.407659,1.644598 0,1.357012 0.03596,1.392967 1.40625,1.40537 0.773437,0.007 2.064352,0.142119 2.868697,0.300263 l 1.462452,0.287534 -0.23499,5.316215 c -0.12924,2.923917 -0.40806,8.269339 -0.619602,11.878714 -0.211537,3.609375 -0.426393,7.279552 -0.477461,8.15595 -0.05106,0.876394 -0.261596,1.592876 -0.467846,1.592179 -0.20625,-7.5e-4 -1.215345,-0.42759 -2.242433,-0.948653 z"
       style="fill:#7f7f7f" />
    <path
       id="path3352"
       d="M 46.3125,85.370861 C 37.90563,80.483434 31.947527,76.83219 31.415221,76.24152 c -0.569083,-0.631481 -0.597985,-1.010347 -0.239244,-3.136136 0.224418,-1.329837 0.49582,-2.671009 0.603114,-2.980384 0.217849,-0.628151 0.212894,-0.599081 0.99082,-5.8125 1.016555,-6.81264 2.146963,-13.109895 2.534844,-14.121064 0.378109,-0.985699 0.394216,-0.989598 1.547875,-0.375 0.641184,0.341584 1.344458,0.750004 1.562828,0.907594 1.774394,1.280524 3.309551,2.113342 4.294248,2.32962 0.640913,0.140768 1.165294,0.407066 1.165294,0.591773 0,0.308771 2.995909,1.854577 3.594334,1.854577 0.143269,0 0.502537,0.295312 0.798382,0.65625 0.295845,0.360938 0.432248,0.447244 0.303117,0.191794 -0.152993,-0.302648 -0.03701,-0.38856 0.332917,-0.246604 0.312232,0.119816 0.667129,0.531124 0.788659,0.914021 0.121526,0.382898 0.541192,0.797813 0.932591,0.922039 0.932565,0.295984 1.237999,1.341465 0.759551,2.599882 -0.211503,0.556294 -0.361571,2.814518 -0.333483,5.01828 0.02809,2.203759 0.128632,3.584963 0.223432,3.069338 0.0948,-0.515625 0.300405,-1.10625 0.456896,-1.3125 0.156495,-0.20625 0.318447,-1.362608 0.359895,-2.569684 0.04145,-1.207076 0.268564,-2.504055 0.504702,-2.882171 0.595203,-0.953074 1.70661,-1.171643 2.133232,-0.41952 0.320096,0.564323 0.403523,0.55251 0.908603,-0.128625 0.543791,-0.733343 0.565095,-0.726555 0.95916,0.305662 C 56.818643,62.198775 57,62.831588 57,63.024412 c 0,0.192822 0.253125,0.350588 0.5625,0.350588 0.309375,0 0.5625,0.253125 0.5625,0.5625 0,0.309375 -0.253125,0.5625 -0.5625,0.5625 C 57.253125,64.5 57,64.33125 57,64.125 57,63.91875 56.83125,63.75 56.625,63.75 c -0.683715,0 -0.388211,0.695265 0.40212,0.946106 0.44571,0.141465 0.694721,0.461385 0.583901,0.750177 -0.124841,0.325331 0.197337,0.589308 0.91038,0.745916 1.345894,0.295609 1.459354,0.932801 0.166099,0.932801 -0.515625,0 -0.9375,0.168649 -0.9375,0.374775 0,0.206126 0.559009,0.332689 1.24224,0.28125 1.088351,-0.08194 1.227071,-0.209662 1.119806,-1.031025 -0.0926,-0.708982 -0.05103,-0.776426 0.170517,-0.27669 0.275542,0.62154 0.329861,0.6177 0.914073,-0.06461 0.521089,-0.608584 0.53514,-0.758415 0.08724,-0.930289 C 60.990247,65.365729 60.75,65.099494 60.75,64.886768 c 0,-0.529062 1.402496,-0.491783 1.580426,0.04201 0.106478,0.31944 0.353505,0.316076 0.968749,-0.0132 C 64.245146,64.40931 64.394096,63.75 63.5625,63.75 c -0.666086,0 -0.755663,-0.623111 -0.120034,-0.83499 0.281981,-0.09399 0.334155,-0.41136 0.143843,-0.874999 C 63.391275,61.564879 63.226672,61.475925 63.11181,61.783586 62.886457,62.387224 62.25,62.006633 62.25,61.268239 c 0,-0.309375 0.165488,-0.460226 0.367747,-0.33522 0.205546,0.127035 0.475669,-0.447642 0.612435,-1.302934 0.281415,-1.759875 0.649726,-1.670584 0.768518,0.186323 0.149198,2.332207 0.653663,2.808592 2.974125,2.808592 1.470281,0 1.993785,-0.125644 1.803866,-0.432941 -0.167925,-0.271706 -0.102633,-0.331001 0.175313,-0.159221 0.243589,0.150543 0.418417,0.471929 0.388511,0.714191 C 69.2145,63.767813 69.402293,64.5 69.790121,64.5 c 0.228315,0 0.317989,-0.253125 0.199268,-0.5625 -0.12831,-0.334373 -0.0037,-0.5625 0.307384,-0.5625 0.287778,0 0.600408,0.295312 0.694728,0.65625 0.163332,0.625001 0.173569,0.625001 0.214999,0 0.02392,-0.360938 0.21225,-0.65625 0.4185,-0.65625 0.20625,0 0.375,-0.431835 0.375,-0.959632 0,-0.527798 0.161381,-0.859894 0.358624,-0.737989 0.197242,0.121901 0.270112,0.452291 0.161932,0.734197 -0.108176,0.28191 -0.01493,0.624897 0.207233,0.762199 0.6498,0.401595 1.838569,-0.148253 2.099767,-0.971216 0.13251,-0.417495 0.323562,-0.67644 0.424568,-0.575438 0.101002,0.101006 0.02242,0.49341 -0.17463,0.87201 -0.197048,0.378604 -0.238196,1.019325 -0.09144,1.423823 0.221647,0.610927 0.562897,0.717247 2.015385,0.627926 C 78.763811,64.442505 79.127595,64.722405 78.3,65.55 77.950001,65.899999 78.042248,66 78.715121,66 c 0.60654,0 0.801983,0.164539 0.653877,0.550489 -0.116183,0.302771 -0.04711,0.651934 0.153498,0.775912 0.200607,0.123983 0.27438,0.371625 0.163939,0.55032 -0.110437,0.178695 0.158846,0.965209 0.598406,1.747811 0.974093,1.734289 0.799433,4.8861 -0.30717,5.543067 -0.638178,0.378877 -8.666756,3.378435 -19.790171,7.393815 -11.828171,4.269784 -11.48322,4.199936 -13.875,2.809447 z M 58.875,71.25 c 0,-0.20625 -0.15879,-0.375 -0.352868,-0.375 -0.194077,0 -0.457162,0.16875 -0.584632,0.375 -0.12747,0.20625 0.03131,0.375 0.352868,0.375 0.321547,0 0.584632,-0.16875 0.584632,-0.375 z m -4.993834,-0.820313 c -0.119707,-0.299148 -0.208567,-0.210292 -0.22656,0.226564 -0.01628,0.39531 0.07234,0.616797 0.196958,0.492188 0.124608,-0.124613 0.137928,-0.44805 0.02959,-0.718752 z m -2.625,-0.375 c -0.119707,-0.299148 -0.208567,-0.210292 -0.22656,0.226564 -0.01628,0.39531 0.07234,0.616797 0.196958,0.492188 0.124608,-0.124613 0.137928,-0.44805 0.02959,-0.718752 z M 60,70.125 c 0,-0.445189 -0.651488,-0.445189 -1.6875,0 -0.628507,0.270079 -0.552574,0.326558 0.46875,0.348641 C 59.451562,70.488139 60,70.33125 60,70.125 Z m -5.903715,-1.66395 c -0.09609,-0.502673 0.09679,-1.458191 0.428625,-2.123374 0.331837,-0.665182 0.542389,-1.270376 0.467887,-1.344877 -0.271256,-0.27126 -1.315443,0.329876 -1.525968,0.878497 -0.268781,0.700433 0.154541,3.503704 0.529098,3.503704 0.151287,0 0.196448,-0.411278 0.100358,-0.91395 z m -0.441679,-1.929799 c 0.018,-0.436856 0.106853,-0.525712 0.22656,-0.226564 0.108326,0.270702 0.09501,0.594139 -0.02959,0.718752 -0.124613,0.124609 -0.21324,-0.09688 -0.196958,-0.492188 z m 5.118833,2.617185 c -0.124613,-0.124608 -0.44805,-0.137928 -0.718752,-0.02959 -0.299148,0.119707 -0.210292,0.208567 0.226564,0.22656 0.39531,0.01627 0.616796,-0.07235 0.492188,-0.196958 z m 3.357727,-1.718748 c -0.119707,-0.299149 -0.208567,-0.210293 -0.22656,0.226563 -0.01628,0.39531 0.07234,0.616797 0.196958,0.492188 0.124608,-0.124613 0.137928,-0.44805 0.02959,-0.718751 z m 1.415318,-1.0806 c -0.120885,-0.1956 0.57717,-0.362104 1.587633,-0.378694 0.99186,-0.01627 1.592445,-0.11472 1.334633,-0.218749 -0.618765,-0.249675 -0.59337,-0.805597 0.06696,-1.465931 0.687063,-0.687064 1.102725,-0.687375 0.839197,-7.5e-4 -0.112931,0.294292 0.02599,0.727065 0.308727,0.96171 0.400818,0.332651 0.608786,0.249626 0.944085,-0.376883 0.723948,-1.352707 0.214241,-1.869911 -1.842803,-1.869911 -1.776709,0 -1.860326,0.04563 -1.793018,0.978473 0.0684,0.948045 -0.332651,1.369908 -1.70433,1.792773 -0.397957,0.122685 -0.564453,0.423109 -0.429457,0.774904 0.12126,0.315998 0.374295,0.479475 0.562297,0.363285 0.188003,-0.116194 0.244737,-0.368347 0.126072,-0.560347 z M 72,66.375 C 72,66.16875 71.82129,66 71.602868,66 71.384445,66 71.31003,66.16875 71.4375,66.375 71.56497,66.58125 71.74368,66.75 71.834632,66.75 71.925585,66.75 72,66.58125 72,66.375 Z m 5.625,-0.5625 c 0,-0.377411 -0.37746,-0.5625 -1.147132,-0.5625 -0.681537,0 -1.05153,0.154687 -0.911588,0.381116 0.129547,0.209614 0.380974,0.291237 0.55872,0.181384 0.177746,-0.109852 0.429173,-0.02824 0.55872,0.181384 0.35343,0.57186 0.94128,0.458583 0.94128,-0.181384 z M 57,65.4375 c 0,-0.309375 -0.253125,-0.5625 -0.5625,-0.5625 -0.585589,0 -0.743989,0.443512 -0.312499,0.874999 C 56.556487,66.181489 57,66.023089 57,65.4375 Z M 70.125,65.25 c 0,-0.20625 -0.15879,-0.375 -0.352868,-0.375 -0.194077,0 -0.457162,0.16875 -0.584632,0.375 -0.12747,0.20625 0.03131,0.375 0.352868,0.375 0.321547,0 0.584632,-0.16875 0.584632,-0.375 z m 4.412974,-0.75 c -0.25761,-0.4125 -0.596543,-0.75 -0.75318,-0.75 -0.47331,0 -0.319193,1.04862 0.183956,1.251645 0.898894,0.362711 1.03443,0.24327 0.569224,-0.501645 z M 54.628485,62.489434 c -0.858596,-1.293117 -1.202261,-1.063257 -1.061243,0.709818 l 0.135297,1.701105 0.715556,-0.825048 c 0.619781,-0.714612 0.64794,-0.926888 0.21039,-1.585875 z M 73.125,64.733415 c 0,-0.07787 -0.253125,-0.351656 -0.5625,-0.608415 C 72.101809,63.742661 72,63.768285 72,64.266585 c 0,0.334627 0.253125,0.608415 0.5625,0.608415 0.309375,0 0.5625,-0.06371 0.5625,-0.141585 z M 58.5,65.665121 c 0,-0.184185 0.253125,-0.432011 0.5625,-0.550732 0.309375,-0.118718 0.5625,-0.47427 0.5625,-0.790121 C 59.625,64.00842 59.79375,63.75 60,63.75 c 0.476756,0 0.47073,0.129608 -0.0602,1.294856 C 59.529049,65.946375 58.5,66.389685 58.5,65.665121 Z M 75.5625,63.75 c -0.12747,-0.20625 -0.06301,-0.375 0.143239,-0.375 0.20625,0 0.479291,0.16875 0.606761,0.375 0.12747,0.20625 0.06301,0.375 -0.143239,0.375 -0.20625,0 -0.479291,-0.16875 -0.606761,-0.375 z M 61.6875,63.375 C 61.56003,63.16875 61.634445,63 61.852868,63 62.07129,63 62.25,63.16875 62.25,63.375 c 0,0.20625 -0.07442,0.375 -0.165368,0.375 -0.09095,0 -0.269662,-0.16875 -0.397132,-0.375 z M 73.125,62.602868 c 0,-0.218423 0.16875,-0.292838 0.375,-0.165368 0.20625,0.12747 0.375,0.30618 0.375,0.397132 C 73.875,62.925585 73.70625,63 73.5,63 73.29375,63 73.125,62.82129 73.125,62.602868 Z m -6.445313,-0.609034 c 0.270702,-0.108326 0.594139,-0.09501 0.718752,0.02959 0.124609,0.124609 -0.09688,0.21324 -0.492188,0.196958 -0.436856,-0.018 -0.525712,-0.106853 -0.226564,-0.22656 z m -0.02344,-1.133483 c 0.464063,-0.08939 1.223437,-0.08939 1.6875,0 0.464063,0.08938 0.08437,0.162514 -0.84375,0.162514 -0.928125,0 -1.307813,-0.07313 -0.84375,-0.162514 z M 73.875,60.5625 C 73.875,60.253125 74.038455,60 74.238232,60 c 0.199774,0 0.266097,0.253125 0.147379,0.5625 -0.118721,0.309375 -0.282172,0.5625 -0.363232,0.5625 -0.08106,0 -0.147379,-0.253125 -0.147379,-0.5625 z M 60.181946,59.586686 C 52.198099,55.37523 44.25,50.703079 44.25,50.221369 c 0,-0.196103 0.159529,-0.649568 0.354514,-1.007708 0.194981,-0.35814 0.452572,-1.267016 0.572422,-2.019731 0.338869,-2.128222 0.931766,-2.394221 3.333608,-1.495575 1.123132,0.420218 2.859911,1.250494 3.859507,1.84506 0.999596,0.594566 3.083074,1.823812 4.629949,2.731661 4.644754,2.725961 4.6875,2.787319 4.6875,6.728479 0,1.854293 -0.0026,3.371437 -0.0055,3.371441 -0.003,4e-6 -0.678053,-0.354739 -1.5,-0.78831 z M 68.625,60 c 0.309375,-0.199935 0.73125,-0.363514 0.9375,-0.363514 0.20625,0 0.121875,0.163579 -0.1875,0.363514 -0.309375,0.199935 -0.73125,0.363514 -0.9375,0.363514 -0.20625,0 -0.121875,-0.163579 0.1875,-0.363514 z m 3.190155,0.0043 c -0.131377,-0.212572 0.01916,-0.275437 0.352868,-0.147379 0.649657,0.249297 0.768521,0.518085 0.229109,0.518085 -0.194077,0 -0.45597,-0.166819 -0.581977,-0.370706 z m -6.910549,-1.348042 c 0.018,-0.436857 0.106853,-0.525713 0.22656,-0.226564 0.108326,0.270701 0.09501,0.594139 -0.02959,0.718751 -0.124613,0.124609 -0.21324,-0.09688 -0.196958,-0.492187 z M 72,56.625 c 0,-0.20625 -0.142414,-0.375 -0.316474,-0.375 -0.392782,0 -8.37909,-4.365405 -13.243867,-7.239251 -3.513087,-2.07534 -3.612754,-2.171351 -3.289845,-3.169211 0.183146,-0.565973 0.565781,-1.788413 0.850297,-2.716538 0.476682,-1.554979 0.610039,-1.683139 1.698135,-1.631985 1.106625,0.05203 5.953729,2.28396 6.801754,3.131985 0.103125,0.103125 0.778125,0.50745 1.5,0.8985 2.276287,1.233098 4.518765,2.635181 5.558464,3.475361 0.962467,0.777765 1.004036,0.960199 1.004036,4.406228 0,1.97718 -0.126563,3.594881 -0.28125,3.594892 C 72.126563,56.999992 72,56.83125 72,56.625 Z m 4.181318,-7.151299 c -6.321638,-3.359047 -7.260927,-4.007119 -6.999871,-4.829625 0.492657,-1.552226 1.063988,-5.337667 2.238518,-14.831576 0.331706,-2.68125 0.724556,-5.55 0.873,-6.375 l 0.269891,-1.5 2.223641,-0.11448 c 1.549707,-0.07978 2.370023,-0.30709 2.706645,-0.75 0.452153,-0.594925 0.483765,-0.593601 0.494933,0.02073 0.0066,0.360937 -0.148909,0.65625 -0.345488,0.65625 -0.196575,0 -0.323137,0.970312 -0.28125,2.15625 0.04189,1.185937 -0.03853,4.0125 -0.178706,6.28125 l -0.254869,4.125 0.629869,-4.210545 c 0.758876,-5.072925 1.120774,-5.602095 3.409759,-4.985736 0.864176,0.232699 1.656161,0.644408 1.759961,0.914909 0.1038,0.270501 0.003,3.341344 -0.223957,6.824096 -0.22698,3.482752 -0.580039,8.947901 -0.784575,12.144776 -0.466043,7.284154 -0.396889,6.751305 -0.87507,6.742627 -0.223437,-0.004 -2.321532,-1.02507 -4.662432,-2.268926 z"
       style="fill:#7b7b7b" />
    <path
       id="path3350"
       d="M 45.9375,85.055978 C 43.448692,83.752046 33.271614,77.62035 32.00327,76.660597 l -1.18423,-0.896107 0.560793,-1.788495 c 0.308436,-0.983674 0.63983,-2.37912 0.736432,-3.100995 0.0966,-0.721875 0.274016,-1.565625 0.394254,-1.875 0.120238,-0.309375 0.253446,-0.815625 0.296019,-1.125 0.204785,-1.488184 1.060393,-5.125155 1.323297,-5.625 0.162722,-0.309375 0.381895,-1.06875 0.487051,-1.6875 0.105156,-0.61875 0.311702,-1.83912 0.458991,-2.711933 0.159231,-0.943578 0.424566,-1.490047 0.654488,-1.347948 0.251473,0.155418 0.312369,-0.218996 0.174149,-1.070745 -0.186446,-1.148933 -0.08149,-1.387148 0.854929,-1.940299 1.034351,-0.611006 1.09602,-0.602021 1.987672,0.289631 0.617021,0.617021 1.179424,0.852413 1.706985,0.714454 0.527258,-0.13788 0.867352,0.0042 1.031029,0.430736 0.194178,0.506021 0.309236,0.533959 0.561315,0.136298 0.237409,-0.37452 0.318514,-0.382422 0.322815,-0.03146 0.003,0.257813 0.250481,0.46875 0.549607,0.46875 0.299126,0 0.717915,0.295313 0.930638,0.65625 0.309832,0.525702 0.452355,0.556748 0.716449,0.156056 0.263441,-0.399701 0.378528,-0.372877 0.572853,0.133527 0.177889,0.463563 0.519139,0.57669 1.270939,0.421323 0.565264,-0.116816 0.832931,-0.126022 0.59481,-0.02047 -0.613627,0.272037 1.084286,2.025188 1.975946,2.040229 0.677689,0.01144 0.678972,0.03319 0.03086,0.524625 -0.496879,0.376778 -0.546589,0.555784 -0.1875,0.675221 0.544462,0.181092 0.705352,6.630405 0.219652,8.80497 -0.180213,0.80685 -0.107291,1.365923 0.22098,1.694198 0.846645,0.846645 0.893307,1.579462 0.142482,2.237809 -0.599835,0.525956 -0.703422,1.029866 -0.597555,2.906932 0.07044,1.248878 -0.02213,2.270378 -0.205647,2.270003 -0.183544,-3.75e-4 -0.237814,0.9285 -0.120603,2.064168 0.117213,1.135673 0.07097,2.56047 -0.102754,3.166223 -0.252983,0.882097 -0.191644,1.13427 0.3081,1.266645 0.554662,0.146921 0.551077,0.170111 -0.03229,0.208781 -0.360937,0.02392 -0.65625,0.22221 -0.65625,0.440633 0,0.218422 0.194824,0.276723 0.432942,0.129558 0.268237,-0.16578 0.331147,-0.102869 0.165367,0.165368 -0.372443,0.602625 -0.927349,0.522109 -2.660809,-0.386081 z m 5.15922,0.03926 c 0.362573,-0.212209 0.826635,-0.282364 1.03125,-0.155906 0.204615,0.126461 0.37203,0.0709 0.37203,-0.123465 0,-0.194366 -0.337733,-0.441713 -0.750518,-0.54966 -0.412785,-0.107944 -0.65595,-0.04325 -0.540367,0.143764 C 51.324697,84.596989 51.240555,84.75 51.022132,84.75 50.80371,84.75 50.625,84.496875 50.625,84.1875 c 0,-0.309375 0.179359,-0.5625 0.398572,-0.5625 0.219214,0 0.345777,-0.379687 0.28125,-0.84375 -0.07241,-0.52077 0.06211,-0.807863 0.351428,-0.75 0.257812,0.05156 0.46875,-0.075 0.46875,-0.28125 0,-0.20625 -0.1671,-0.375 -0.371329,-0.375 -0.204232,0 -0.08235,-0.3375 0.27084,-0.75 0.353194,-0.4125 0.942165,-0.75 1.308829,-0.75 0.74658,0 0.861495,0.405165 0.279878,0.986783 -0.265711,0.26571 -0.03214,0.334728 0.746174,0.220499 0.623127,-0.09146 1.051467,-0.298132 0.951874,-0.459281 -0.0996,-0.161149 0.23367,-0.397091 0.740588,-0.524321 0.617745,-0.155044 0.85098,-0.415553 0.707287,-0.790001 C 56.61219,78.925725 56.786591,78.75 57.313616,78.75 c 0.422869,0 1.036309,-0.379688 1.363193,-0.84375 0.488178,-0.693041 0.654322,-0.747585 0.930183,-0.305363 0.557558,0.893805 1.625738,-0.245606 1.331033,-1.419798 -0.206314,-0.822034 -0.162379,-0.876638 0.35793,-0.444822 0.497606,0.41298 0.723127,0.378237 1.400539,-0.215763 0.444086,-0.3894 0.684086,-0.497067 0.533336,-0.239254 -0.502414,0.859222 1.150369,0.509137 1.770409,-0.375 0.442515,-0.630998 0.672637,-0.725141 0.912634,-0.373358 0.506373,0.742223 2.366204,0.396342 2.99028,-0.556117 C 69.466916,73.11636 70.5,72.807911 70.5,73.5 c 0,0.20625 0.16875,0.375 0.375,0.375 0.20625,0 0.375,-0.227528 0.375,-0.505616 0,-0.626577 2.81364,-1.780744 3.257955,-1.336429 0.179775,0.179775 0.79344,0.07792 1.387553,-0.23031 C 76.481381,71.498689 77.176271,71.25 77.439713,71.25 c 0.263441,0 0.584865,-0.421875 0.714277,-0.9375 0.129416,-0.515625 0.400834,-0.9375 0.603154,-0.9375 0.484151,0 0.4662,0.615551 -0.04586,1.572345 -0.304222,0.568444 -0.300858,0.842783 0.01271,1.036575 0.235789,0.145725 0.311561,0.56286 0.169492,0.933086 -0.21402,0.557723 -0.117487,0.625287 0.57801,0.404546 0.74475,-0.236377 0.821764,-0.149909 0.712976,0.800476 -0.08485,0.741311 -0.320392,1.049831 -0.774176,1.01406 -0.358717,-0.02828 -0.57864,0.06764 -0.488715,0.213138 0.248712,0.402424 -2.350248,1.236278 -2.888133,0.926633 -0.259017,-0.149108 -0.339027,-0.126203 -0.177807,0.0509 0.16122,0.177102 -1.69503,1.061933 -4.125,1.966287 C 64.251563,81.076511 57,83.570471 57,83.359207 c 0,-0.110572 -0.225506,-0.01387 -0.501124,0.214857 -0.684292,0.567911 -3.562909,1.599131 -4.936376,1.76838 -0.91482,0.112729 -1.001839,0.06654 -0.46578,-0.247204 z m 9.926719,-6.571804 c -0.124613,-0.124608 -0.44805,-0.137928 -0.718752,-0.02959 -0.299148,0.119707 -0.210292,0.208567 0.226564,0.22656 0.39531,0.01627 0.616797,-0.07235 0.492188,-0.196958 z M 53.25,78.75 c 0,-0.20625 0.16875,-0.375 0.375,-0.375 0.20625,0 0.375,0.16875 0.375,0.375 0,0.20625 -0.16875,0.375 -0.375,0.375 -0.20625,0 -0.375,-0.16875 -0.375,-0.375 z M 75,71.227868 c 0,-0.218423 0.16875,-0.292838 0.375,-0.165368 0.20625,0.12747 0.375,0.30618 0.375,0.397132 0,0.09095 -0.16875,0.165368 -0.375,0.165368 C 75.16875,71.625 75,71.44629 75,71.227868 Z m 1.054687,-0.984034 c 0.270702,-0.108326 0.594139,-0.09501 0.718752,0.02959 0.124609,0.124609 -0.09688,0.21324 -0.492188,0.196958 -0.436856,-0.018 -0.525712,-0.106853 -0.226564,-0.22656 z m 0,-1.125 c 0.270702,-0.108326 0.594139,-0.09501 0.718752,0.02959 0.124609,0.124609 -0.09688,0.21324 -0.492188,0.196958 -0.436856,-0.018 -0.525712,-0.106853 -0.226564,-0.22656 z M 57.5625,58.169351 C 53.390749,55.919407 44.910337,51.04308 44.536706,50.679379 c -0.279761,-0.272329 1.011,-4.099418 1.580843,-4.687167 0.605385,-0.624412 3.34776,0.209123 6.251677,1.900174 1.6188,0.942686 3.998535,2.322859 5.288303,3.067046 2.854755,1.647177 3.742552,3.205219 3.815962,6.696818 0.02711,1.289062 -0.08241,2.341406 -0.24336,2.338541 -0.160946,-0.003 -1.811381,-0.824314 -3.667631,-1.82544 z M 71.937499,56.693074 C 71.86875,56.524267 70.209375,55.530735 68.25,54.485227 61.290251,50.771561 55.125,47.173204 55.125,46.824802 c 0,-0.151788 0.194542,-0.751027 0.432319,-1.33164 0.237776,-0.580616 0.496162,-1.392397 0.574196,-1.803963 0.291915,-1.53966 1.067389,-1.891853 3.01728,-1.370333 0.977827,0.261529 2.584406,0.971772 3.570169,1.578319 C 63.70473,44.503732 64.594631,45 64.696523,45 c 0.50811,0 6.581111,4.225939 6.882622,4.789316 0.191663,0.358129 0.42483,2.127041 0.518145,3.930915 0.160661,3.105739 0.129608,3.683434 -0.159791,2.972843 z M 76.125,49.396582 c -2.371875,-1.288953 -4.923428,-2.721344 -5.670116,-3.183093 l -1.357616,-0.839543 0.64764,-3.280725 C 70.101109,40.288826 70.76409,36.28125 71.2182,33.1875 72.608857,23.713221 72.788527,22.717926 73.197,22.225744 73.417208,21.960409 74.400791,21.75 75.420915,21.75 l 1.829085,0 0,3.360293 c 0,1.848161 -0.183154,5.04387 -0.407006,7.101575 -0.635651,5.842989 -0.227895,5.659491 0.748552,-0.336868 0.486994,-2.990625 0.96246,-5.642014 1.056589,-5.891975 0.257872,-0.684756 1.386176,-0.921467 2.455099,-0.515063 1.320416,0.502022 1.500978,1.73109 1.057773,7.200209 -0.472616,5.832115 -0.965493,14.527214 -0.970042,17.113079 -0.0019,1.082812 -0.172215,1.96653 -0.378465,1.963815 -0.20625,-0.0026 -2.315625,-1.059533 -4.6875,-2.348483 z"
       style="fill:#696969" />
    <path
       id="path3348"
       d="M 54.1875,56.128417 C 49.364989,53.453985 45.570892,51.232061 45.041456,50.772251 44.961131,50.70249 45.34941,50.050196 45.90429,49.322707 46.648552,48.346931 47.197432,48 47.996951,48 c 0.596082,0 1.188079,0.16875 1.315549,0.375 0.12747,0.20625 0.547249,0.375 0.932846,0.375 0.385594,0 0.924075,0.22119 1.196618,0.491531 0.272546,0.270345 1.425401,0.945357 2.561898,1.50003 1.136502,0.554674 2.528689,1.437188 3.09375,1.961145 0.565065,0.523954 1.027388,0.82227 1.027388,0.662918 0,-0.159349 0.395674,0.297885 0.879277,1.016077 0.844636,1.254349 1.648497,4.869424 1.082299,4.867241 -0.150742,-7.5e-4 -2.805326,-1.404817 -5.899076,-3.120525 z M 65.963415,53.097308 C 63.571421,51.782408 60.916961,50.266354 60.06462,49.728293 59.212275,49.190231 58.418224,48.75 58.300058,48.75 c -0.611329,0 -2.658792,-1.753095 -2.521039,-2.158586 0.08802,-0.259099 0.314377,-0.375701 0.50301,-0.259118 0.188632,0.11658 0.342971,0.01087 0.342971,-0.23493 0,-0.708502 1.531009,-1.847366 2.483471,-1.847366 1.056897,0 4.166033,1.659536 8.293609,4.4268 2.28924,1.534781 3.013594,2.509166 3.320123,4.466145 0.122291,0.780754 0.248887,1.567211 0.281325,1.74768 0.150078,0.835035 -1.008934,0.422647 -5.040113,-1.793318 z M 76.125,49.270485 C 69.138195,45.516056 69.102034,45.48315 69.95373,43.654477 70.524244,42.429532 72.751916,31.581742 73.335345,27.1875 73.526287,25.749359 74.629504,23.648978 75.414641,23.228785 76.958512,22.40253 77.06133,23.10171 76.534537,30.84409 75.914246,39.960574 75.689842,46.100385 76.0032,45.381697 76.136483,45.076005 76.471541,44.59989 76.747766,44.323661 77.023995,44.047432 77.25,43.158484 77.25,42.348214 c 0,-0.810266 0.16875,-1.473214 0.375,-1.473214 0.20625,0 0.377584,-0.379688 0.380741,-0.84375 0.0069,-1.014739 0.600233,-2.050275 0.965468,-1.68504 0.144093,0.144094 0.314883,1.320458 0.379526,2.61414 0.390356,7.811741 0.437722,10.038746 0.213364,10.03131 -0.138379,-0.0046 -1.685974,-0.779115 -3.439099,-1.721175 z"
       style="fill:#2a2a2a" />
  </g>
</svg>
